<svg width="179" height="52" viewBox="0 0 179 52" fill="none" xmlns="http://www.w3.org/2000/svg">
<path d="M48.123 0.245258C48.1016 0.388 48.0302 0.761845 47.966 1.08131C47.9018 1.40078 47.8304 2.20965 47.8019 2.88937C47.7591 3.98372 47.7377 4.14006 47.595 4.37116C47.4094 4.67024 47.3952 4.79939 47.545 4.83337C47.6306 4.84697 47.5736 5.0169 47.2667 5.60825C46.9671 6.19281 46.7602 6.47829 46.3677 6.87933C46.0895 7.16481 45.747 7.46389 45.6114 7.54546C45.2975 7.72898 45.2975 7.96688 45.6043 8.00087C45.7184 8.01446 45.7969 8.06204 45.7969 8.13001C45.7969 8.21158 45.8397 8.22518 45.9967 8.19119C46.1037 8.164 46.2678 8.13001 46.3677 8.12322C46.4676 8.10962 46.6674 8.02806 46.8172 7.94649C46.9599 7.86493 47.0812 7.82414 47.0812 7.85813C47.0741 8.08244 46.1965 9.3739 45.5044 10.176C45.219 10.5022 45.1619 10.713 45.3117 10.8557C45.4473 10.9848 45.5258 10.9577 45.854 10.6586C46.1323 10.4003 46.1751 10.3799 46.3392 10.4547C46.5247 10.5294 46.6531 10.509 46.6531 10.3867C46.6531 10.2779 47.1026 9.91768 47.2453 9.91768C47.2596 9.91768 47.2453 10.0468 47.2025 10.2032C46.9243 11.3587 46.5675 12.1268 45.8041 13.2347C45.5615 13.5814 45.3688 13.8872 45.3688 13.9212C45.3688 13.996 45.697 14.1999 45.8183 14.1999C45.8683 14.1999 45.961 14.1251 46.011 14.03C46.0966 13.8737 46.1109 13.8737 46.2036 13.9824C46.2892 14.0912 46.3035 14.0912 46.4034 13.9688C46.4605 13.894 46.5104 13.7989 46.5104 13.7649C46.5104 13.7037 46.7031 13.6086 47.2525 13.3911C47.2882 13.3775 47.2311 13.4726 47.1312 13.6018C47.0242 13.7309 46.8244 14.0776 46.6817 14.3766C46.1608 15.4438 45.0691 16.7897 43.8704 17.8364C43.5779 18.0879 43.3353 18.3462 43.3353 18.4074C43.3353 18.5569 43.6064 18.5773 43.8704 18.4482C44.0203 18.3734 44.1701 18.353 44.3414 18.387C44.534 18.421 44.6268 18.4006 44.7481 18.2918C44.8337 18.2171 45.0549 18.1355 45.2332 18.1151C45.4188 18.0879 45.6185 18.0132 45.6828 17.9452C45.7541 17.8704 45.8611 17.8296 45.9253 17.85C45.9967 17.8636 46.1537 17.7888 46.2892 17.6733C46.5104 17.4898 46.8672 17.3878 46.8672 17.5102C46.8672 17.5781 46.3463 18.2103 45.9468 18.6181C45.3688 19.2163 45.3331 19.2502 45.1262 19.5153C45.0192 19.6581 44.8908 19.7736 44.8479 19.7736C44.798 19.7736 44.5197 20.0047 44.2272 20.2834C43.9204 20.5825 43.6207 20.8068 43.4994 20.8272C43.3853 20.8544 43.2996 20.9156 43.2996 20.9767C43.2996 21.1399 42.8787 21.6089 42.7716 21.5681C42.6361 21.5205 42.3721 21.806 42.3721 21.9895C42.3721 22.2206 42.7074 22.4381 42.9714 22.3838C43.0927 22.3634 43.2354 22.309 43.2854 22.2682C43.3496 22.2206 43.4281 22.2274 43.5422 22.2886C43.7563 22.3906 44.0916 22.3022 44.4983 22.0167L44.7766 21.8264L44.9336 21.9691C45.1334 22.1662 45.2618 22.0847 45.5757 21.5885C45.8397 21.1671 45.9396 21.1195 46.0466 21.3506C46.0966 21.4661 46.1822 21.5069 46.3677 21.5137C46.6959 21.5273 46.7958 21.4865 46.7958 21.337C46.7958 21.1942 46.9314 21.1331 47.2382 21.1331C47.4594 21.1331 47.8661 21.3234 47.8661 21.4253C47.8661 21.4593 47.8019 21.8672 47.7305 22.343C47.6092 23.1043 47.5878 23.7024 47.5593 27.3525L47.5236 31.4988L47.3452 32.1785C47.1098 33.069 46.8815 34.1225 46.8244 34.6255C46.7816 34.9314 46.6603 35.2373 46.3178 35.8694C45.7755 36.8958 45.5829 37.4735 45.5829 38.1057C45.5829 38.5407 45.6043 38.6087 45.854 38.9485C46.0823 39.268 46.2179 39.3632 46.8315 39.669C47.5379 40.0225 47.5522 40.0225 48.2086 40.0293C49.1361 40.0293 49.4144 39.8798 50.6202 38.7582C51.5264 37.9154 51.5621 37.8678 51.7904 37.3104C52.0116 36.7666 52.0187 36.7123 51.9402 36.352C51.8974 36.1481 51.8617 35.6247 51.8617 35.1965C51.8617 34.7207 51.8189 34.2789 51.7547 34.0478C51.6976 33.8438 51.5835 33.3205 51.5121 32.8854C51.3837 32.1581 51.3837 32.0562 51.4836 31.6008C51.5835 31.1521 51.5835 31.0502 51.4765 30.588C51.4122 30.3025 51.2981 29.2421 51.2196 28.2361C51.1411 27.2234 51.0198 26.1698 50.9556 25.8911C50.87 25.5309 50.8343 25.0415 50.8272 24.2258C50.82 23.0907 50.8129 23.0635 50.5988 22.5945C50.4633 22.2954 50.3634 21.9419 50.3348 21.6429C50.3063 21.3778 50.2207 20.8204 50.1422 20.3922C50.0138 19.6921 50.0138 19.6037 50.1137 19.5085C50.2064 19.4134 50.2421 19.4134 50.4347 19.5221C50.6488 19.6445 50.8842 19.6037 50.9485 19.427C50.9699 19.3726 51.0412 19.3794 51.1982 19.461C51.4979 19.6037 51.6976 19.5969 51.7476 19.4474C51.7833 19.359 51.5906 19.1279 51.0341 18.5773C50.6202 18.1695 50.1993 17.7209 50.0994 17.5781C49.9995 17.4422 49.8925 17.3266 49.8711 17.3266C49.7997 17.3266 49.5571 16.9188 49.5999 16.8712C49.6213 16.8576 49.707 16.8712 49.7926 16.9188C49.8711 16.9596 50.0066 16.9868 50.0851 16.9732C50.1779 16.9596 50.2564 17.0072 50.3134 17.1159C50.4561 17.381 50.6131 17.4422 50.8414 17.3198C51.0269 17.2179 51.0555 17.2179 51.2553 17.3334C51.3766 17.4082 51.5621 17.4626 51.6691 17.4626C51.7975 17.4626 51.926 17.5238 52.0045 17.6121C52.1186 17.7481 52.1472 17.7549 52.3113 17.6733C52.454 17.5985 52.5396 17.5985 52.7465 17.6665C53.2959 17.8364 53.2888 17.517 52.7394 17.1159C51.7119 16.3886 50.6488 15.2331 49.9924 14.1523C49.7997 13.8193 49.5571 13.4522 49.4644 13.3299C49.236 13.0512 49.3645 13.0444 49.7926 13.3231C49.9995 13.459 50.1636 13.5134 50.2635 13.493C50.3491 13.4726 50.4347 13.4862 50.449 13.527C50.4847 13.6358 50.9128 13.5338 50.9627 13.4046C50.9913 13.3367 50.9056 13.1803 50.7415 12.9968C49.8068 11.9297 49.286 11.1616 49.0077 10.4071C48.915 10.176 48.8151 9.98565 48.7723 9.98565C48.7294 9.98565 48.7152 9.97206 48.7366 9.95167C48.8151 9.8701 49.1433 10.006 49.1861 10.1284C49.2146 10.1964 49.3145 10.2779 49.4144 10.2983C49.5072 10.3255 49.6713 10.4207 49.764 10.509C49.9067 10.645 49.9638 10.6586 50.0423 10.5974C50.0994 10.5498 50.1493 10.4683 50.1493 10.4207C50.1493 10.3527 50.2207 10.3323 50.3776 10.3391C50.7487 10.3663 50.7273 10.142 50.3491 9.84971C49.9281 9.52344 48.865 8.55144 48.865 8.48347C48.865 8.45628 48.9364 8.42229 49.0291 8.4087C49.2717 8.37471 49.2646 8.13681 49.0006 7.84453C48.8436 7.6746 48.7937 7.57944 48.8436 7.53186C48.9007 7.47748 48.9649 7.48428 49.0648 7.53186C49.2717 7.64062 49.4358 7.62702 49.4358 7.49788C49.4358 7.41631 49.4929 7.40271 49.7569 7.4435C50.0708 7.48428 50.0851 7.47748 50.1565 7.28036C50.1993 7.16481 50.2778 7.05606 50.3348 7.03566C50.5418 6.9609 50.4205 6.79097 49.9995 6.58025C49.5 6.32196 49.022 5.84615 48.758 5.33636C48.4012 4.63625 48.1087 2.37278 48.1872 0.890991C48.2371 0.000556946 48.2086 -0.237343 48.123 0.245258Z" fill="white"/>
<path d="M18.4266 2.49462C18.1769 2.67135 17.8772 2.8005 17.4705 2.90925C17.1423 2.99082 16.5643 3.21513 16.179 3.39185C15.0874 3.91524 14.1955 4.09196 12.1334 4.20072C10.8348 4.26869 10.7992 4.27549 9.51485 4.83966C8.90123 5.10475 8.56588 5.31546 7.9808 5.77767C6.15422 7.21868 5.26233 8.40139 4.3419 10.5969L4.0565 11.2766V12.5273V13.7712L4.65585 14.9539C5.16958 15.9667 5.33368 16.225 5.79033 16.7144C6.07573 17.0338 6.56805 17.5096 6.882 17.7747C7.40286 18.2166 7.48848 18.2641 8.05216 18.4069C8.53021 18.5292 8.73712 18.6244 9.01539 18.8487C9.21518 19.005 9.60047 19.2837 9.8716 19.4672C10.1499 19.6508 10.6279 20.0042 10.9419 20.2489C11.4485 20.65 11.5626 20.7111 11.9765 20.7859C12.4046 20.8675 12.4759 20.9015 12.904 21.3025C13.2893 21.6559 13.4962 21.7919 14.117 22.0502C14.7449 22.3085 14.9447 22.4376 15.3656 22.8251C15.6439 23.0766 16.0292 23.396 16.229 23.532C16.4288 23.6679 16.7356 23.9262 16.9211 24.1097C17.0995 24.3001 17.4205 24.5448 17.6275 24.6535C17.9699 24.8438 18.0199 24.905 18.1769 25.2924C18.2696 25.5303 18.5051 26.0129 18.6906 26.3732C18.8761 26.7335 19.0973 27.2772 19.1829 27.5831C19.2685 27.9162 19.4184 28.256 19.5397 28.4192C19.6895 28.6163 19.7537 28.7794 19.7537 28.9629C19.7537 29.2688 19.9107 29.6698 20.1247 29.8806C20.2318 29.9893 20.2603 30.0777 20.2246 30.2204C20.0605 30.8594 20.032 31.1516 20.0677 31.8925C20.0891 32.3479 20.1247 32.8917 20.1461 33.0956C20.189 33.4559 20.1747 33.5103 19.8393 34.122C19.6467 34.4823 19.4112 34.8833 19.3113 35.0056C19.2114 35.1348 18.9474 35.5562 18.7263 35.9505C18.1269 37.004 17.7345 37.3371 16.9139 37.507C16.4573 37.5954 16.3146 37.6634 15.915 37.9692C15.5725 38.2343 15.0374 38.4314 14.4951 38.5062C14.1812 38.5402 14.1099 38.5266 13.9814 38.4043C13.7888 38.2207 13.4249 38.2207 13.2251 38.3975C13.1038 38.5062 13.0325 38.5266 12.8898 38.4722C12.797 38.4382 12.3832 38.4246 11.9693 38.445C10.8777 38.4994 9.69323 38.3023 9.69323 38.0644C9.69323 37.8605 9.41496 37.5886 9.02966 37.4051C7.92372 36.8749 6.85346 35.998 6.23984 35.1008C5.93303 34.659 5.26947 33.2384 5.26947 33.0209C5.26947 32.8577 5.10536 32.5383 4.96266 32.4295C4.90558 32.3819 4.73433 32.144 4.5845 31.8925C4.13499 31.1652 3.42148 30.6894 2.65089 30.6011C2.36548 30.5739 2.27986 30.5331 2.18711 30.37C1.83035 29.7786 0.824302 29.7378 0.33198 30.2952C0.0465763 30.6215 -0.0319097 30.9341 0.0109008 31.5935C0.0394412 32.0217 0.117927 32.3615 0.30344 32.8713C0.446142 33.252 0.560303 33.653 0.560303 33.755C0.560303 33.9725 0.774356 34.4551 0.988409 34.7066C1.0669 34.8017 1.13111 34.9513 1.13111 35.0396C1.13111 35.128 1.21673 35.2979 1.33089 35.4203C1.43792 35.5426 1.58062 35.7601 1.65197 35.9029C1.77327 36.1544 2.13002 36.4263 2.35121 36.4263C2.41543 36.4263 2.55813 36.535 2.65802 36.6642C2.89348 36.9564 3.18602 37.106 3.5285 37.106C3.74969 37.106 3.9352 37.2147 4.7272 37.7789C6.74643 39.2267 7.93799 39.8249 9.60761 40.2259C10.9775 40.559 12.7542 40.5522 13.4463 40.2055C13.6817 40.09 14.1455 39.9812 14.9018 39.8521C16.0863 39.6617 17.1779 39.3219 17.6132 39.0228C18.2125 38.6082 19.1972 37.609 19.4112 37.2079C19.5325 36.9836 19.8108 36.603 20.0391 36.3583C20.3745 35.998 20.4815 35.8145 20.6456 35.3387C20.7598 35.0192 21.0166 34.4143 21.2235 33.9997C21.723 32.9869 21.8514 32.3819 21.83 31.1992C21.8158 30.3428 21.7944 30.2544 21.5304 29.5067C21.3734 29.0717 21.1665 28.5415 21.0737 28.3308C20.981 28.1133 20.8525 27.6851 20.7812 27.3724C20.6171 26.6179 20.2389 25.8158 19.6253 24.8914C19.3256 24.4428 19.0759 23.967 19.0045 23.7359C18.9046 23.3892 18.8476 23.3145 18.5764 23.1513C18.4052 23.0426 18.0698 22.7571 17.8201 22.5056C17.0138 21.6763 16.3146 21.1394 15.2586 20.5412C14.067 19.8683 13.4534 19.4536 12.6543 18.7875C12.3403 18.5224 11.8409 18.1622 11.5484 17.9922C11.2558 17.8155 10.7849 17.4961 10.5138 17.2717C10.2355 17.0542 9.62901 16.6124 9.15096 16.2929C8.18059 15.6268 7.96653 15.3753 7.53129 14.3829C7.31724 13.8935 7.25302 13.6352 7.18881 13.0235L7.11032 12.2622L7.63832 11.1611L8.15918 10.0667L9.08674 9.25104C10.1713 8.30623 10.8705 7.8916 12.1049 7.47018C12.9112 7.19829 12.9254 7.19829 13.9457 7.19829C14.5522 7.19829 15.2943 7.15071 15.7367 7.08953C16.4716 6.97398 16.5001 6.98078 16.9282 7.11672C17.1637 7.19149 17.5561 7.29345 17.7916 7.34103C18.3766 7.45658 18.4337 7.49057 18.5265 7.79644C18.6763 8.25865 19.7537 8.92478 21.0594 9.3666C21.6659 9.57051 22.2653 9.63848 22.4365 9.52293C22.4793 9.49574 22.6434 9.30542 22.8004 9.10151L23.0929 8.72766L23.0287 8.21787C22.8004 6.29426 22.6363 5.79127 22.0441 5.19311C21.4305 4.57457 21.195 4.2483 21.0024 3.69773C20.8454 3.2695 20.7312 3.07918 20.4458 2.8005C20.1105 2.46743 20.0605 2.44704 19.5825 2.37227C19.3042 2.33149 19.0117 2.28391 18.926 2.27031C18.8333 2.24992 18.6478 2.33149 18.4266 2.49462Z" fill="white"/>
<path d="M108.999 4.78537C108.343 4.87374 108.286 4.89413 107.744 5.25438C107.38 5.49908 107.101 5.63503 106.973 5.63503C106.859 5.63503 106.602 5.65542 106.402 5.67581C106.06 5.71659 106.031 5.73698 105.838 6.06325C105.731 6.25357 105.596 6.59343 105.546 6.81774C105.453 7.21877 105.46 7.24596 105.667 7.74895L105.881 8.26554L105.774 8.72095C105.674 9.12199 105.674 9.21715 105.774 9.61819C105.896 10.1212 105.903 10.0872 105.439 11.2631L105.161 11.9564V13.0644C105.161 14.1043 105.139 14.2743 104.797 16.0008C104.426 17.8972 104.369 18.4206 104.233 21.1327C104.176 22.1862 104.119 22.7096 104.026 23.0359C103.948 23.2806 103.869 23.7972 103.841 24.1846C103.819 24.572 103.741 25.1702 103.669 25.51C103.591 25.8499 103.512 26.3869 103.491 26.7064C103.462 27.0258 103.377 27.5356 103.298 27.8483C103.227 28.161 103.163 28.5484 103.163 28.7115C103.163 28.8679 103.091 29.3029 103.013 29.6699C102.927 30.0438 102.835 30.7847 102.806 31.3285C102.763 32.0626 102.699 32.4908 102.556 32.9938C102.357 33.6735 102.357 33.6735 102.349 36.1613L102.342 38.6422L102.799 39.356C103.042 39.7434 103.348 40.1648 103.47 40.2804C104.176 40.9873 105.346 40.2464 104.997 39.3152C104.939 39.1588 104.725 38.8326 104.526 38.5811C104.326 38.3228 104.162 38.0509 104.162 37.9693C104.162 37.8878 104.197 37.4527 104.233 37.0041C104.276 36.5555 104.34 35.5019 104.376 34.6591C104.447 32.9598 104.711 30.873 104.989 29.8399C105.082 29.4932 105.161 29.0106 105.161 28.7727C105.161 28.2017 105.467 26.4753 105.689 25.7615C105.796 25.4421 105.874 25.041 105.874 24.8575V24.5313H106.474C107.066 24.5313 107.087 24.538 107.701 24.8779C108.043 25.0614 108.578 25.4217 108.885 25.6732C109.52 26.183 111.118 28.0114 111.918 29.1601C112.196 29.5544 112.66 30.1321 112.945 30.4516C113.23 30.7643 113.758 31.376 114.115 31.8043C114.522 32.2869 115.214 32.9734 115.928 33.6055C116.563 34.1629 117.347 34.931 117.668 35.3048C117.982 35.6787 118.453 36.2021 118.71 36.4603C118.967 36.7254 119.338 37.1944 119.524 37.5071C120.159 38.5471 121.45 40.124 122.171 40.729C123.341 41.7146 124.789 42.6118 125.21 42.6118C125.353 42.6118 125.503 42.5778 125.546 42.537C125.767 42.3263 125.132 41.4563 123.912 40.3144C122.849 39.3152 122.342 38.7306 121.607 37.6159C120.922 36.5759 120.63 36.0185 120.323 35.1417C120.209 34.8086 119.959 34.3192 119.731 33.9862C119.26 33.2861 118.289 31.5596 117.968 30.8527C117.847 30.574 117.369 29.7447 116.912 29.0106C116.077 27.6648 115.549 26.5704 115.257 25.5848C115.171 25.2857 114.979 24.742 114.836 24.3749C114.636 23.8515 114.579 23.6136 114.579 23.2398C114.579 22.7912 114.586 22.764 114.814 22.6008C114.936 22.5125 115.271 22.3222 115.542 22.1794C115.82 22.0435 116.249 21.7648 116.505 21.5745C116.762 21.3841 117.133 21.1191 117.34 20.9899C118.118 20.4869 118.889 19.2906 119.103 18.2302C119.16 17.938 119.245 17.299 119.288 16.8028C119.331 16.3134 119.417 15.7017 119.474 15.4434C119.652 14.6481 119.773 13.5742 119.702 13.3499C119.666 13.2411 119.645 12.8537 119.652 12.5002C119.659 11.9088 119.645 11.8137 119.438 11.3855C119.274 11.032 119.217 10.8213 119.217 10.5154C119.217 9.95805 118.839 8.96566 118.211 7.85091C117.433 6.48468 116.655 5.79136 115.243 5.22719C114.215 4.81256 113.78 4.75819 111.368 4.7174C110.169 4.69701 109.492 4.7174 108.999 4.78537ZM112.503 7.8781C112.802 7.98686 113.23 8.1296 113.459 8.19077C113.83 8.28593 113.894 8.32672 114.151 8.69377L114.436 9.0948V10.0668C114.436 10.8893 114.458 11.0728 114.565 11.2427C114.693 11.4466 114.693 11.467 114.565 11.9904L114.436 12.5274L114.622 13.0644L114.807 13.6013L114.486 14.1927L114.158 14.7773L114.108 15.7629C114.08 16.3066 114.03 16.8232 114.001 16.9048C113.958 17.0067 113.965 17.1631 114.015 17.3262C114.087 17.5573 114.08 17.6389 113.944 17.9584C113.773 18.3594 113.288 18.7876 112.331 19.379C111.903 19.6441 111.732 19.7052 111.154 19.8004C109.977 19.9975 108.957 20.2558 108.578 20.4529C108.222 20.6365 108.207 20.6365 107.815 20.5413C107.565 20.4801 107.308 20.3578 107.151 20.2286L106.887 20.0111L106.944 19.5897C106.973 19.3586 106.973 19.0459 106.944 18.8828C106.866 18.4749 106.98 17.3738 107.166 16.8164C107.244 16.5513 107.444 16.028 107.594 15.6473C107.979 14.6753 108.45 12.609 108.514 11.5826C108.578 10.5902 108.871 9.3531 109.171 8.78213L109.392 8.3607L110.277 8.07522C110.776 7.91888 111.225 7.81013 111.318 7.83052C111.404 7.85091 111.554 7.82373 111.654 7.77615C111.896 7.647 111.889 7.647 112.503 7.8781Z" fill="white"/>
<path d="M128.086 12.9421C127.836 12.9897 127.608 13.0508 127.572 13.078C127.53 13.0984 127.094 13.1664 126.588 13.2208C125.225 13.3839 124.711 13.6694 124.312 14.5055C124.069 15.0016 124.062 15.3687 124.269 15.9668C124.476 16.5514 125.325 17.5302 126.017 17.9856C126.474 18.2915 126.538 18.3119 127.037 18.3323C127.865 18.3731 128.015 18.3255 128.514 17.8497C128.835 17.5438 129.006 17.3195 129.121 17.034C129.356 16.4427 129.328 16.1776 128.992 15.6474C128.578 14.9948 128.6 14.8181 129.128 14.1792C129.634 13.5742 129.699 13.3567 129.477 13.0916C129.342 12.9353 129.242 12.8945 128.921 12.8741C128.707 12.8537 128.329 12.8877 128.086 12.9421Z" fill="white"/>
<path d="M54.9585 21.1601C54.6945 21.2757 54.5232 21.4184 54.352 21.6495C54.1308 21.9622 54.1094 22.0234 54.1094 22.5264C54.1094 23.1177 54.1879 23.2877 54.7658 23.9674C54.9014 24.1237 55.0655 24.416 55.1368 24.6199C55.3223 25.1229 55.5435 25.5239 55.8575 25.925C56.3141 26.5095 56.4069 26.7474 56.521 27.6583C56.5995 28.27 56.6923 28.6439 56.8421 28.9973C57.049 29.4595 57.9481 32.0628 58.2834 33.164C58.369 33.4427 58.5403 33.8505 58.6544 34.068C58.7686 34.2923 58.9256 34.6594 59.0041 34.8973C59.0754 35.1284 59.2252 35.5022 59.3251 35.7197C59.796 36.7257 60.0672 37.419 60.1029 37.7453C60.2313 38.8193 60.374 39.2475 60.7593 39.7369C60.9805 40.0088 61.5085 40.1787 61.908 40.0971C62.2291 40.0292 62.8784 39.3834 62.9498 39.064C63.014 38.7445 62.9997 38.2347 62.9141 38.0036C62.8285 37.7657 62.9426 37.0112 63.2209 36.0188C63.2922 35.7401 63.3779 35.3119 63.3993 35.0672C63.4278 34.7953 63.5634 34.3195 63.7489 33.8301C63.9201 33.3883 64.0628 33.0077 64.0628 32.9737C64.0628 32.8921 64.6408 31.4171 65.0832 30.3771C65.2972 29.8742 65.5184 29.3236 65.5683 29.1536C65.6183 28.9837 65.7182 28.7526 65.7895 28.6439C65.8609 28.5283 65.918 28.3516 65.918 28.2496C65.918 28.1341 66.0393 27.8894 66.2319 27.6379C66.4031 27.4068 66.6886 26.9649 66.8741 26.6591C67.0596 26.3532 67.4092 25.8978 67.6518 25.6395C68.3796 24.885 68.5365 24.3548 68.1298 24.0693C67.7374 23.7907 67.6447 23.845 66.9882 24.7083C66.6529 25.1433 66.2034 25.6599 65.9893 25.8502C65.7539 26.0473 65.5327 26.326 65.4542 26.5027C65.3757 26.6727 65.2116 26.931 65.0832 27.0873C64.9547 27.2368 64.7978 27.4815 64.7335 27.6311C64.6693 27.7738 64.5123 28.0661 64.3768 28.2768C64.1984 28.5623 64.1342 28.739 64.1342 28.9701C64.1342 29.2012 64.07 29.3848 63.8916 29.677C63.756 29.8945 63.542 30.316 63.4135 30.615C63.2851 30.9141 63.1281 31.2336 63.0639 31.3288C62.9997 31.4239 62.8356 31.757 62.7072 32.0764C62.379 32.8717 62.1007 33.4223 61.9508 33.5786C61.8367 33.701 61.8224 33.701 61.7368 33.5854C61.587 33.4019 61.6155 32.9057 61.7867 32.6406C61.9294 32.4299 61.9366 32.3415 61.8938 31.8249C61.8724 31.5055 61.7867 30.9481 61.7154 30.5879C61.6369 30.2276 61.5584 29.779 61.5299 29.5819C61.5085 29.3848 61.4443 29.0993 61.3872 28.9429C61.3301 28.7866 61.2801 28.4875 61.2801 28.2768C61.2801 28.0661 61.2516 27.7262 61.2159 27.5223C61.1303 27.0465 61.2088 26.6455 61.4443 26.3124C61.694 25.959 61.7297 25.7415 61.6084 25.3268C61.5513 25.1365 61.4799 24.8034 61.4514 24.5995C61.38 24.0489 61.1589 23.7635 60.5738 23.4848C60.1956 23.3013 59.9387 23.0973 59.4179 22.574C58.419 21.5748 57.7197 21.2213 56.3926 21.0718C55.5007 20.9698 55.3723 20.9766 54.9585 21.1601Z" fill="white"/>
<path d="M133.123 21.153C132.895 21.255 132.709 21.4181 132.531 21.656C132.288 21.9823 132.274 22.0366 132.274 22.5192C132.274 23.0834 132.338 23.2262 132.923 23.9603C133.08 24.1506 133.259 24.47 133.337 24.674C133.516 25.177 133.737 25.578 134.058 25.9926C134.507 26.5568 134.6 26.8151 134.7 27.6579C134.764 28.2697 134.843 28.5824 135.057 29.0853C135.307 29.7039 136.156 32.1577 136.484 33.2316C136.569 33.5103 136.712 33.8502 136.791 33.9793C136.876 34.1085 137.062 34.5367 137.205 34.9309C137.347 35.3252 137.64 36.0389 137.854 36.5283C138.139 37.1672 138.261 37.5411 138.296 37.8809C138.396 38.8121 138.66 39.5259 139.038 39.8453C139.238 40.0221 139.745 40.1648 140.001 40.1172C140.33 40.0628 140.508 39.9405 140.829 39.553C141.072 39.2676 141.115 39.1588 141.157 38.7578C141.186 38.4315 141.172 38.214 141.1 38.0237C141.036 37.8401 141.022 37.6838 141.065 37.5479C141.093 37.4323 141.157 37.1264 141.2 36.8681C141.243 36.6031 141.336 36.1952 141.407 35.9505C141.478 35.7058 141.557 35.3116 141.578 35.0669C141.607 34.8222 141.75 34.2852 141.899 33.8774C142.056 33.4627 142.313 32.7626 142.484 32.314C142.649 31.8654 142.941 31.1449 143.127 30.7167C143.312 30.2885 143.555 29.6903 143.655 29.3912C143.762 29.0921 143.912 28.7319 143.983 28.596C144.054 28.4532 144.118 28.2765 144.118 28.1949C144.118 28.1066 144.29 27.7939 144.497 27.4948C144.711 27.1889 145.032 26.7063 145.217 26.414C145.403 26.1218 145.717 25.7411 145.909 25.5576C146.252 25.2381 146.544 24.7215 146.544 24.4429C146.544 24.2321 146.202 23.9195 145.966 23.9195C145.802 23.9195 145.681 24.035 145.182 24.6808C144.86 25.1022 144.411 25.612 144.183 25.8227C143.954 26.0266 143.712 26.3189 143.648 26.4684C143.583 26.618 143.405 26.8966 143.255 27.087C143.105 27.2773 142.977 27.4608 142.977 27.4948C142.977 27.5288 142.834 27.8007 142.656 28.093C142.406 28.5212 142.335 28.6979 142.335 28.9494C142.335 29.1873 142.278 29.3436 142.113 29.6019C141.985 29.7855 141.764 30.2137 141.614 30.5535C141.464 30.8934 141.279 31.274 141.2 31.4032C141.122 31.5323 140.929 31.9538 140.765 32.3412C140.237 33.6123 140.08 33.8298 139.88 33.5443C139.716 33.2996 139.737 33.0277 139.952 32.6675C140.13 32.3616 140.13 32.348 140.051 31.6547C140.009 31.2673 139.93 30.7711 139.873 30.5467C139.823 30.3224 139.759 29.9418 139.73 29.7039C139.702 29.4592 139.616 29.0989 139.545 28.895C139.445 28.6095 139.402 28.2901 139.395 27.5492L139.374 26.5772L139.566 26.3869C139.823 26.1286 139.916 25.7275 139.787 25.3809C139.737 25.2381 139.673 24.9459 139.652 24.7419C139.588 24.0894 139.388 23.8175 138.717 23.4709C138.168 23.1854 137.675 22.7639 137.24 22.1998C137.062 21.9687 136.377 21.5472 135.842 21.3501C135.349 21.1598 134.886 21.0782 134.079 21.0375C133.53 21.0035 133.409 21.0171 133.123 21.153Z" fill="white"/>
<path d="M125.96 22.0979C125.574 22.2134 125.503 22.261 125.339 22.5465C125.061 23.0359 124.975 23.3418 125.068 23.5117C125.11 23.5933 125.21 24.0759 125.289 24.5789C125.403 25.3673 125.41 25.5984 125.346 26.149C125.218 27.1686 125.296 28.5212 125.531 29.2553C125.731 29.8875 125.91 30.139 126.323 30.3837C126.723 30.6148 126.78 30.8595 126.801 32.416C126.823 33.8367 126.916 35.0262 127.101 36.1205C127.158 36.4536 127.222 36.9294 127.244 37.1741C127.272 37.4188 127.315 37.8606 127.344 38.1597C127.372 38.5131 127.451 38.8054 127.551 38.9889C127.636 39.1453 127.708 39.3968 127.708 39.5463C127.708 39.6958 127.772 39.9541 127.85 40.1105C127.929 40.2736 128.057 40.6475 128.136 40.9533C128.307 41.5855 128.507 41.9321 128.692 41.9321C128.878 41.9321 129.106 41.7554 129.199 41.5311C129.27 41.368 129.27 41.3 129.177 41.1301C129.113 41.0145 129.063 40.797 129.063 40.6543C129.063 40.5047 129.013 40.2736 128.956 40.1445C128.899 40.0085 128.849 39.7638 128.849 39.6075C128.849 39.4444 128.785 39.0977 128.707 38.8394C128.607 38.4927 128.564 38.1597 128.564 37.6295C128.564 37.0313 128.535 36.8342 128.414 36.5555C128.264 36.2361 128.264 36.2021 128.371 35.8418C128.485 35.4748 128.478 35.4408 128.321 34.9038C128.157 34.3736 128.15 34.2445 128.143 32.2801C128.136 30.0642 128.221 28.7591 128.393 28.3717C128.478 28.1678 128.485 28.059 128.414 27.7396C128.336 27.3929 128.343 27.2977 128.478 26.9103C128.557 26.6656 128.642 26.285 128.671 26.0607C128.771 25.211 128.821 25.1023 129.306 24.8032C129.884 24.4429 129.912 24.4225 129.962 24.2254C130.041 23.9331 129.934 23.7564 129.506 23.4641C129.277 23.3078 129.021 23.0971 128.921 23.0019C128.792 22.8728 128.685 22.832 128.45 22.832C128.186 22.832 128.086 22.7844 127.693 22.4649C127.272 22.1183 126.866 21.9416 126.53 21.9551C126.452 21.9551 126.195 22.0231 125.96 22.0979Z" fill="white"/>
<path d="M74.8366 22.2883C73.9733 22.3699 72.8317 22.6078 72.4036 22.7845C72.1824 22.8796 71.8114 23.1107 71.5759 23.2943C71.3404 23.4846 70.9837 23.7157 70.7839 23.8109C70.3843 24.0012 69.6566 24.5382 69.4853 24.7625C69.4282 24.844 69.1785 25.1431 68.9288 25.4422C68.4293 26.0267 68.2866 26.3734 68.3294 26.8424C68.3651 27.2027 68.622 27.5017 69.1642 27.8008C69.5852 28.0319 70.0133 28.0591 70.6269 27.8892C70.841 27.828 71.3904 27.76 71.8542 27.726C72.639 27.6785 72.7104 27.6581 73.1099 27.427C73.8377 27.0055 73.9947 26.9648 74.908 26.9648C76.1138 26.9648 76.6275 27.1279 77.3268 27.7125C77.8762 28.1815 78.2329 28.6029 78.604 29.2214L78.8252 29.5953L78.6967 29.874C78.5897 30.0983 78.5183 30.1594 78.3328 30.2002C78.0189 30.2546 76.8487 30.7916 76.228 31.1518C75.6857 31.4713 75.2719 31.5801 73.9091 31.7704C73.0957 31.8859 73.0814 31.8927 72.5891 32.2462C71.8756 32.7628 71.6972 32.9667 71.1763 33.8435C70.6055 34.7951 70.5128 35.203 70.5913 36.4129C70.6483 37.3033 70.7768 37.6296 71.2762 38.2005C71.7685 38.7647 72.7889 39.2269 73.9804 39.4444L74.5869 39.5464L75.964 39.1114C77.4838 38.622 78.3328 38.2481 78.6539 37.9219C78.7752 37.8063 79.0321 37.6228 79.2319 37.514C79.4316 37.4053 79.7242 37.1674 79.8812 36.9838C80.0453 36.8071 80.3164 36.5828 80.4948 36.4944C80.8943 36.2905 80.9871 36.3449 81.1512 36.8887C81.2154 37.1062 81.3438 37.3849 81.4366 37.5208C81.5294 37.6568 81.6507 37.9083 81.7006 38.0714C81.829 38.4928 82.1929 38.8735 82.4641 38.8735C82.7209 38.8735 83.042 38.5472 83.0491 38.2753C83.0777 37.4664 82.9564 36.8819 82.5425 35.7807C82.2429 34.9787 81.8219 33.2386 81.6863 32.2462C81.6435 31.9063 81.5579 31.4509 81.5008 31.2266C81.4437 30.9819 81.4009 30.4517 81.4009 29.9147C81.4009 29.0243 81.3938 28.9903 81.0798 28.0795C80.9086 27.5697 80.6303 26.7201 80.4734 26.1967C80.1452 25.1159 79.8597 24.5178 79.453 24.0827C79.082 23.6817 78.2615 23.1583 77.762 23.002C77.548 22.934 77.1912 22.7981 76.9772 22.6961C76.5633 22.499 75.6429 22.2135 75.4717 22.2271C75.4146 22.2339 75.1292 22.2611 74.8366 22.2883ZM78.7966 32.3549C79.3246 32.4909 79.3532 32.5589 79.3103 33.3541C79.2675 34.0474 79.2604 34.0678 78.9893 34.4077C78.8323 34.6048 78.6468 34.8631 78.5754 34.9923C78.4185 35.2574 76.6775 36.4061 76.2708 36.508C76.1281 36.542 75.914 36.6644 75.7927 36.7731C75.3932 37.1402 74.3871 37.2829 73.6451 37.0722C73.3383 36.9838 73.2741 36.9295 73.167 36.7052C73.0101 36.3857 73.0386 35.9235 73.2526 35.2574C73.4168 34.7408 73.9947 33.8911 74.33 33.6532C74.6583 33.4221 75.2719 33.1638 75.4788 33.1638C75.5787 33.1638 75.8855 33.0619 76.1566 32.9395C76.4349 32.8104 76.8202 32.6608 77.0128 32.5928C77.2126 32.5317 77.4481 32.4365 77.548 32.3821C77.762 32.2666 78.3971 32.253 78.7966 32.3549Z" fill="white"/>
<path d="M153.965 23.7156C153.359 23.7427 152.766 23.7903 152.659 23.8175C152.031 23.9806 151.09 24.6672 150.612 25.3197C150.362 25.6528 150.241 25.7615 150.069 25.7955C149.484 25.9043 148.792 27.087 148.428 28.5959C147.979 30.4924 148.05 30.9682 149.234 33.7414C149.713 34.8562 149.912 35.2368 150.141 35.4883C150.305 35.6582 150.576 35.9573 150.747 36.1544C150.918 36.3448 151.254 36.6302 151.496 36.7798C151.732 36.9361 152.188 37.2624 152.502 37.5139C154.122 38.785 155.506 39.3491 157.012 39.3491C157.797 39.3491 158.517 39.1248 159.966 38.4247C160.993 37.9285 161.571 37.5275 161.507 37.3575C161.457 37.2148 160.544 37.276 160.03 37.4459C159.302 37.6906 158.339 37.8673 157.604 37.9013L156.926 37.9285L155.713 37.3575L154.493 36.7866L153.701 35.9777C152.181 34.4347 151.946 34.0745 151.874 33.2452C151.839 32.851 151.86 32.6879 151.967 32.4568C152.174 31.9877 152.46 31.9266 154.108 31.981L155.428 32.0217L156.27 31.777C156.733 31.6411 157.311 31.4304 157.554 31.3148C158.089 31.0565 158.874 30.873 159.794 30.7914C160.594 30.7167 161.621 30.404 162.598 29.9418C163.105 29.6971 163.248 29.5883 163.476 29.2893C163.712 28.9698 163.74 28.8814 163.74 28.5212C163.74 28.2969 163.676 27.9026 163.59 27.6443C163.469 27.2501 163.376 27.1074 162.984 26.7063C162.363 26.0878 161.864 25.7751 159.987 24.8847C158.31 24.0826 157.611 23.8515 156.491 23.7223C155.806 23.6408 155.706 23.6408 153.965 23.7156ZM156.348 26.2985C157.026 26.3936 158.075 26.8355 158.424 27.1753C158.674 27.4268 158.688 27.4608 158.624 27.6987C158.567 27.9434 158.531 27.9706 158.153 28.0794C156.99 28.4124 155.513 28.5076 154.593 28.3037C154.315 28.2425 153.737 28.2017 153.152 28.1949C152.217 28.1881 152.167 28.1813 152.117 28.0454C152.031 27.8347 152.245 27.6171 152.98 27.1413C154.215 26.3325 155.064 26.1218 156.348 26.2985Z" fill="white"/>
<path d="M38.155 24.2392C37.677 24.7422 37.6199 25.252 37.9766 25.8162C38.2834 26.3056 38.5903 27.3183 38.5903 27.8621C38.5903 28.0864 38.7187 28.8953 38.8757 29.6498C39.0326 30.4043 39.1825 31.3015 39.211 31.6414L39.2538 32.2531L38.8614 32.7629C38.6402 33.0416 38.419 33.2999 38.3691 33.3475C38.312 33.3882 37.9338 33.4358 37.52 33.4494C36.9492 33.4698 36.7066 33.5038 36.5068 33.6058C36.3641 33.6805 36.0573 33.8369 35.829 33.9592C35.6007 34.0748 35.251 34.1903 35.0584 34.2175C34.8586 34.2447 34.5803 34.3263 34.4376 34.3942C34.0737 34.571 34.0095 34.5642 33.3317 34.2515C32.5896 33.9048 32.2686 33.6465 32.2115 33.3339C32.1829 33.2047 32.083 32.9396 31.9903 32.7425C31.8975 32.5454 31.7976 32.2667 31.7691 32.1172C31.7406 31.9472 31.6763 31.8453 31.5907 31.8249C31.4195 31.7773 31.3838 31.5258 31.3553 30.1392C31.3339 29.1264 31.3053 28.9157 31.1484 28.4399C30.9414 27.8145 30.1637 26.2308 29.8997 25.9045C29.3574 25.2316 28.1516 24.8442 27.3882 25.1093C26.6532 25.3607 26.2608 25.7754 26.0896 26.5027C25.9897 26.9309 25.9897 26.9649 26.1823 27.6106C26.3108 28.0388 26.4749 28.3991 26.6247 28.5962C26.7531 28.7729 26.903 29.0448 26.9529 29.208C27.0813 29.6362 27.2526 30.6558 27.3168 31.3627C27.3453 31.7161 27.4381 32.1308 27.5237 32.3347C27.6236 32.5794 27.6736 32.8377 27.6736 33.1571C27.6736 34.0816 28.016 35.2235 28.5869 36.1751C28.9222 36.7325 29.0364 36.8684 29.3432 37.0451C29.543 37.1675 29.8355 37.3646 29.9996 37.487C30.1637 37.6161 30.3278 37.7181 30.3706 37.7181C30.4134 37.7181 30.5419 37.8132 30.6632 37.9356C30.7845 38.0579 31.0056 38.1871 31.184 38.2347C31.3553 38.2754 31.8405 38.459 32.2686 38.6289C33.2104 39.0095 33.5101 39.0299 34.3805 38.7376C34.7159 38.6289 35.0441 38.5337 35.1083 38.5337C35.1725 38.5337 35.3224 38.459 35.4365 38.3638C35.5578 38.2686 35.7291 38.1939 35.8218 38.1939C36.0288 38.1939 36.5639 37.9356 36.9349 37.6569C37.0776 37.5481 37.3273 37.4258 37.4843 37.3782C37.6627 37.3238 37.9624 37.1199 38.2906 36.8276C38.5689 36.5693 38.8471 36.3586 38.9042 36.3586C39.0968 36.3586 39.4179 36.8276 39.6034 37.3918C39.9102 38.2822 39.9745 38.8192 39.8817 39.5737C39.8389 39.9272 39.8032 40.4845 39.8032 40.804C39.8032 41.2118 39.7604 41.4905 39.6677 41.7284C39.5678 41.9799 39.5464 42.1295 39.5892 42.3198C39.6605 42.6189 39.368 44.0599 39.1397 44.4813C38.9327 44.8687 38.733 45.4601 38.733 45.6708C38.733 45.9087 38.2906 46.7312 38.0123 46.9963C37.8696 47.1458 37.8054 47.2749 37.8054 47.4313C37.8054 47.608 37.7198 47.7575 37.4058 48.1042C37.1846 48.3557 36.8493 48.7703 36.6638 49.0354C36.307 49.5316 36.1144 49.7015 35.6007 49.953C35.4294 50.0346 35.1297 50.2521 34.9371 50.4356C34.5946 50.7619 34.5803 50.7687 34.3235 50.7007C33.9524 50.6056 33.5671 50.6192 33.1248 50.7415C32.7894 50.8299 32.611 50.8367 31.8619 50.7755C30.1851 50.6328 29.8712 50.5784 29.6714 50.4017C29.5715 50.3133 29.336 50.1502 29.1363 50.0414C28.701 49.8035 28.4156 49.3345 28.4513 48.8995C28.4656 48.7499 28.4727 48.4305 28.4727 48.1858C28.4656 47.9411 28.4584 47.4924 28.4584 47.1866C28.4513 46.8059 28.4227 46.6088 28.3514 46.5544C28.2087 46.4389 28.0089 46.5884 27.8091 46.9555C27.6593 47.2342 27.6379 47.3837 27.6165 48.2877C27.5951 49.083 27.6165 49.4093 27.7092 49.7491C27.8448 50.2453 28.066 50.6328 28.2087 50.6328C28.2658 50.6328 28.4727 50.7687 28.6725 50.9386C28.8723 51.1086 29.122 51.2581 29.229 51.2785C29.336 51.2989 29.6928 51.394 30.0281 51.4824C30.8201 51.6931 32.6467 51.9854 33.2746 51.999C34.0238 52.0194 35.0156 51.7271 35.4151 51.3737C35.5364 51.2717 35.8076 51.1154 36.0216 51.0202C36.2357 50.9318 36.5924 50.7075 36.8065 50.524C37.4201 50.0006 38.2335 49.1578 38.2335 49.0354C38.2335 48.9742 38.3691 48.7839 38.5403 48.6072C39.0826 48.043 39.8032 47.0234 39.8032 46.8127C39.8032 46.7651 39.9174 46.4797 40.0601 46.1806C40.5096 45.2358 40.6666 44.6716 40.7094 43.9375C40.7379 43.4549 40.7879 43.2102 40.8735 43.0879C41.0661 42.8296 41.1018 42.6392 41.1232 41.9391C41.1446 41.1439 41.2516 40.2194 41.4086 39.3154C41.5442 38.5745 41.5228 37.8132 41.3444 37.1879C41.2516 36.8684 41.2516 36.7868 41.3515 36.4538C41.4514 36.1207 41.4586 36.0188 41.3729 35.6245C41.323 35.373 41.2731 34.6797 41.2588 34.0816C41.2516 33.4834 41.2088 32.7765 41.166 32.5114C41.0804 31.9608 41.0376 29.9828 41.0875 28.7797C41.1089 28.2156 40.8021 26.8901 40.5524 26.4687C40.4668 26.3192 40.3526 26.0813 40.3027 25.9317C40.2527 25.789 40.0815 25.4831 39.9174 25.252C39.7461 25.0277 39.5749 24.7422 39.525 24.6334C39.4179 24.3752 39.0683 24.1576 38.6616 24.0965C38.3691 24.0557 38.3191 24.0693 38.155 24.2392Z" fill="white"/>
<path d="M168.606 24.6673C168.164 24.8577 167.721 25.0548 167.621 25.1227C167.336 25.2995 167.15 25.7141 167.115 26.2987C167.065 26.958 167.179 27.325 167.736 28.2359C168.107 28.8408 168.157 28.9768 168.228 29.4933C168.349 30.3634 168.356 32.219 168.242 33.7416C168.157 34.9311 168.149 35.9439 168.192 38.3637C168.206 38.8939 168.235 39.0366 168.428 39.4173C168.663 39.9067 168.949 40.1921 169.255 40.2601C169.569 40.3281 170.561 40.0494 170.854 39.8047C171.246 39.4784 171.517 38.8939 171.517 38.3841C171.517 37.8403 171.703 36.3993 171.81 36.0866C171.853 35.9575 171.91 35.1146 171.938 34.2174L171.995 32.5861L172.302 31.8044C172.53 31.2198 172.616 30.88 172.652 30.445C172.723 29.5885 172.98 29.1195 173.75 28.399C174.2 27.9776 174.457 27.794 174.735 27.6921C175.013 27.5901 175.163 27.4814 175.327 27.2639C175.463 27.0803 175.713 26.8832 176.012 26.7269C176.469 26.4822 176.497 26.4754 177.475 26.4278C178.024 26.4006 178.481 26.3802 178.495 26.3734C178.56 26.3462 178.488 25.9588 178.374 25.7821C178.167 25.4558 177.361 25.3063 176.726 25.483C176.59 25.5238 176.255 25.585 175.977 25.6189C175.591 25.6733 175.27 25.7889 174.535 26.1491C174.014 26.3938 173.358 26.7609 173.08 26.958C172.63 27.2707 172.523 27.3182 172.231 27.3182C171.717 27.3182 171.589 27.1483 171.589 26.4618C171.581 25.9996 171.553 25.8704 171.374 25.551C171.253 25.3471 171.16 25.1159 171.16 25.0412C171.16 24.9664 171.132 24.8713 171.103 24.8373C171.003 24.6945 170.183 24.4022 169.798 24.3683C169.448 24.3343 169.334 24.3615 168.606 24.6673Z" fill="white"/>
</svg>
