<svg width="23" height="23" viewBox="0 0 23 23" fill="none" xmlns="http://www.w3.org/2000/svg">
<g clip-path="url(#clip0_10_195)">
<path d="M4.11503 0.0674038C3.75117 0.161741 3.37832 0.368382 2.99648 0.69631C2.57421 1.06018 1.06035 2.601 0.813277 2.91994C-0.18848 4.20022 -0.206449 6.19026 0.763863 8.75979C1.94531 11.8998 4.15996 15.0803 6.96308 17.6633C10.8264 21.2256 16.0014 23.5301 18.6652 22.8832C19.0605 22.7889 19.7164 22.4834 20.0174 22.2543C20.3228 22.0252 22.3533 19.9408 22.542 19.6668C22.8924 19.1592 23.0271 18.4809 22.8924 17.9059C22.7396 17.2635 22.6902 17.2051 20.7361 15.2465C18.7641 13.2744 18.7012 13.225 18.0498 13.0903C17.5332 12.9824 17.0076 13.0768 16.5 13.3688C16.3832 13.4406 15.8262 13.9483 15.2646 14.5053L14.2449 15.5115L13.917 15.3408C13.1129 14.9231 12.5199 14.5233 11.635 13.7955C10.7275 13.0498 9.46074 11.7426 8.75996 10.8262C8.25234 10.1614 7.50664 8.93498 7.50214 8.76877C7.50214 8.73733 7.85253 8.36897 8.27929 7.95119C9.17773 7.07522 9.53261 6.66643 9.73476 6.2801C9.98632 5.79045 10.0357 5.17053 9.86054 4.65842C9.68535 4.13733 9.51464 3.93967 7.79863 2.21916C6.10058 0.521116 5.84003 0.296507 5.35488 0.130295C5.01796 0.0090065 4.46093 -0.0179482 4.11503 0.0674038ZM5.15722 1.32971C5.283 1.40158 6.00175 2.0799 6.96757 3.05022C8.71503 4.80217 8.78242 4.88303 8.77792 5.34573C8.77792 5.75451 8.67011 5.89826 7.49765 7.07073C6.90468 7.6592 6.38808 8.20276 6.35214 8.27912C6.29824 8.37346 6.28476 8.50373 6.29824 8.72385C6.31171 8.99338 6.34765 9.0967 6.62168 9.64026C7.2416 10.8711 8.05918 11.9537 9.41132 13.3373C10.7545 14.7119 12.0932 15.7362 13.4723 16.4459C13.9619 16.6975 14.0562 16.7334 14.2809 16.7289C14.4336 16.7289 14.5953 16.6975 14.6896 16.6481C14.775 16.6031 15.332 16.0821 15.925 15.4936C16.6887 14.7344 17.0615 14.3975 17.2053 14.3346C17.4748 14.2133 17.8252 14.2133 18.0723 14.3346C18.3418 14.4694 21.5178 17.6408 21.657 17.9194C21.7334 18.0676 21.7648 18.2024 21.7648 18.3955C21.7648 18.8582 21.6705 18.984 20.3947 20.2643C19.1324 21.5311 19.0156 21.6164 18.3418 21.7692C17.6904 21.9129 16.5988 21.7961 15.4937 21.4682C13.8092 20.9696 11.5451 19.7746 9.68085 18.4C6.0916 15.7586 3.00996 11.7201 1.72968 7.98713C1.11875 6.21272 1.05136 4.94143 1.51855 3.99807C1.6623 3.69709 1.79707 3.54436 2.73144 2.59651C3.30644 2.01252 3.85898 1.48244 3.95332 1.41506C4.35761 1.13655 4.77089 1.1051 5.15722 1.32971Z" fill="#94DA89"/>
</g>
<defs>
<clipPath id="clip0_10_195">
<rect width="23" height="23" fill="white"/>
</clipPath>
</defs>
</svg>
