<svg width="20" height="20" viewBox="0 0 20 20" fill="none" xmlns="http://www.w3.org/2000/svg">
<g clip-path="url(#clip0_10_332)">
<path d="M3.57819 0.0585822C3.26178 0.140614 2.93756 0.320301 2.60553 0.605456C2.23834 0.921864 0.921936 2.26171 0.707092 2.53905C-0.164002 3.65233 -0.179627 5.3828 0.664123 7.61718C1.69147 10.3477 3.61725 13.1133 6.05475 15.3594C9.41413 18.457 13.9141 20.4609 16.2305 19.8984C16.5743 19.8164 17.1446 19.5508 17.4063 19.3516C17.6719 19.1523 19.4376 17.3398 19.6016 17.1016C19.9063 16.6602 20.0235 16.0703 19.9063 15.5703C19.7735 15.0117 19.7305 14.9609 18.0313 13.2578C16.3165 11.543 16.2618 11.5 15.6954 11.3828C15.2462 11.2891 14.7891 11.3711 14.3477 11.625C14.2462 11.6875 13.7618 12.1289 13.2735 12.6133L12.3868 13.4883L12.1016 13.3398C11.4024 12.9766 10.8868 12.6289 10.1173 11.9961C9.32819 11.3477 8.22663 10.2109 7.61725 9.41406C7.17585 8.83593 6.52741 7.76952 6.5235 7.62499C6.5235 7.59765 6.82819 7.27734 7.19928 6.91406C7.98053 6.15234 8.28913 5.79687 8.46491 5.46093C8.68366 5.03515 8.72663 4.49608 8.57428 4.05077C8.42194 3.59765 8.2735 3.42577 6.78131 1.92968C5.30475 0.453114 5.07819 0.2578 4.65631 0.113269C4.36334 0.0077994 3.87897 -0.0156362 3.57819 0.0585822ZM4.48444 1.15624C4.59381 1.21874 5.21881 1.80858 6.05866 2.65233C7.57819 4.17577 7.63678 4.24608 7.63288 4.64843C7.63288 5.0039 7.53913 5.1289 6.51959 6.14843C6.00397 6.66015 5.55475 7.13281 5.5235 7.19921C5.47663 7.28124 5.46491 7.39452 5.47663 7.58593C5.48834 7.82031 5.51959 7.91015 5.75788 8.38281C6.29694 9.45312 7.00788 10.3945 8.18366 11.5977C9.35163 12.793 10.5157 13.6836 11.7149 14.3008C12.1407 14.5195 12.2227 14.5508 12.418 14.5469C12.5508 14.5469 12.6915 14.5195 12.7735 14.4766C12.8477 14.4375 13.3321 13.9844 13.8477 13.4727C14.5118 12.8125 14.836 12.5195 14.961 12.4648C15.1954 12.3594 15.5001 12.3594 15.7149 12.4648C15.9493 12.582 18.711 15.3398 18.8321 15.582C18.8985 15.7109 18.9258 15.8281 18.9258 15.9961C18.9258 16.3984 18.8438 16.5078 17.7344 17.6211C16.6368 18.7227 16.5352 18.7969 15.9493 18.9297C15.3829 19.0547 14.4337 18.9531 13.4727 18.668C12.0079 18.2344 10.0391 17.1953 8.41803 16C5.29694 13.7031 2.61725 10.1914 1.50397 6.9453C0.972717 5.40234 0.914123 4.29687 1.32037 3.47655C1.44537 3.21483 1.56256 3.08202 2.37506 2.2578C2.87506 1.74999 3.35553 1.28905 3.43756 1.23046C3.78912 0.988269 4.1485 0.960926 4.48444 1.15624Z" fill="#78DD7E"/>
</g>
<defs>
<clipPath id="clip0_10_332">
<rect width="19.3684" height="19.3684" fill="white" transform="scale(1.03261)"/>
</clipPath>
</defs>
</svg>
