<svg width="179" height="75" viewBox="0 0 179 75" fill="none" xmlns="http://www.w3.org/2000/svg">
<path d="M48.1229 0.353445C48.1014 0.559321 48.0301 1.09852 47.9659 1.5593C47.9017 2.02007 47.8303 3.1867 47.8018 4.16707C47.759 5.74546 47.7376 5.97095 47.5949 6.30427C47.4093 6.73563 47.3951 6.9219 47.5449 6.97092C47.6305 6.99053 47.5734 7.23562 47.2666 8.08854C46.967 8.93165 46.76 9.34341 46.3676 9.92182C46.0894 10.3336 45.7469 10.7649 45.6113 10.8826C45.2974 11.1473 45.2974 11.4904 45.6042 11.5394C45.7183 11.559 45.7968 11.6277 45.7968 11.7257C45.7968 11.8433 45.8396 11.8629 45.9966 11.8139C46.1036 11.7747 46.2677 11.7257 46.3676 11.7159C46.4675 11.6963 46.6673 11.5786 46.8171 11.461C46.9598 11.3434 47.0811 11.2845 47.0811 11.3336C47.074 11.6571 46.1964 13.5198 45.5043 14.6766C45.2189 15.1472 45.1618 15.4511 45.3116 15.657C45.4472 15.8432 45.5257 15.804 45.8539 15.3727C46.1322 15.0001 46.175 14.9707 46.3391 15.0786C46.5246 15.1864 46.653 15.157 46.653 14.9805C46.653 14.8237 47.1025 14.3041 47.2452 14.3041C47.2595 14.3041 47.2452 14.4903 47.2024 14.7158C46.9242 16.3824 46.5674 17.4903 45.8039 19.0882C45.5614 19.5882 45.3687 20.0294 45.3687 20.0784C45.3687 20.1863 45.6969 20.4804 45.8182 20.4804C45.8682 20.4804 45.9609 20.3725 46.0109 20.2353C46.0965 20.0098 46.1108 20.0098 46.2035 20.1667C46.2891 20.3235 46.3034 20.3235 46.4033 20.147C46.4604 20.0392 46.5103 19.902 46.5103 19.8529C46.5103 19.7647 46.703 19.6275 47.2524 19.3137C47.288 19.2941 47.231 19.4314 47.1311 19.6176C47.024 19.8039 46.8243 20.3039 46.6816 20.7353C46.1607 22.2744 45.069 24.2156 43.8703 25.7253C43.5778 26.0881 43.3352 26.4606 43.3352 26.5488C43.3352 26.7645 43.6063 26.7939 43.8703 26.6077C44.0202 26.4998 44.17 26.4704 44.3412 26.5194C44.5339 26.5684 44.6267 26.539 44.7479 26.3822C44.8336 26.2743 45.0548 26.1567 45.2331 26.1273C45.4187 26.0881 45.6184 25.9802 45.6826 25.8822C45.754 25.7744 45.861 25.7155 45.9252 25.7449C45.9966 25.7645 46.1536 25.6567 46.2891 25.49C46.5103 25.2253 46.8671 25.0783 46.8671 25.2548C46.8671 25.3528 46.3462 26.2645 45.9466 26.8528C45.3687 27.7155 45.333 27.7645 45.1261 28.1468C45.0191 28.3527 44.8907 28.5194 44.8478 28.5194C44.7979 28.5194 44.5196 28.8527 44.2271 29.2547C43.9203 29.686 43.6206 30.0095 43.4993 30.0389C43.3851 30.0782 43.2995 30.1664 43.2995 30.2546C43.2995 30.4899 42.8786 31.1664 42.7715 31.1075C42.636 31.0389 42.372 31.4507 42.372 31.7154C42.372 32.0487 42.7073 32.3624 42.9713 32.284C43.0926 32.2546 43.2353 32.1761 43.2853 32.1173C43.3495 32.0487 43.428 32.0585 43.5421 32.1467C43.7562 32.2938 44.0915 32.1663 44.4982 31.7546L44.7765 31.4801L44.9335 31.686C45.1332 31.9703 45.2617 31.8526 45.5756 31.137C45.8396 30.5291 45.9395 30.4605 46.0465 30.7938C46.0965 30.9605 46.1821 31.0193 46.3676 31.0291C46.6958 31.0487 46.7957 30.9899 46.7957 30.7742C46.7957 30.5683 46.9313 30.4801 47.2381 30.4801C47.4593 30.4801 47.866 30.7546 47.866 30.9017C47.866 30.9507 47.8018 31.5389 47.7304 32.2252C47.6091 33.3232 47.5877 34.1859 47.5592 39.4505L47.5235 45.4307L47.3451 46.4111C47.1097 47.6953 46.8813 49.2149 46.8243 49.9404C46.7815 50.3816 46.6602 50.8227 46.3177 51.7345C45.7754 53.2148 45.5828 54.0481 45.5828 54.9599C45.5828 55.5873 45.6042 55.6853 45.8539 56.1755C46.0822 56.6363 46.2178 56.7735 46.8314 57.2147C47.5378 57.7245 47.552 57.7245 48.2085 57.7343C49.136 57.7343 49.4143 57.5186 50.6201 55.901C51.5263 54.6854 51.562 54.6167 51.7903 53.8128C52.0115 53.0285 52.0186 52.9501 51.9401 52.4305C51.8973 52.1364 51.8616 51.3815 51.8616 50.7639C51.8616 50.0776 51.8188 49.4404 51.7546 49.1071C51.6975 48.813 51.5834 48.0581 51.512 47.4306C51.3836 46.3817 51.3836 46.2346 51.4835 45.5778C51.5834 44.9307 51.5834 44.7837 51.4763 44.117C51.4121 43.7053 51.298 42.1759 51.2195 40.7249C51.141 39.2642 51.0197 37.7446 50.9555 37.3427C50.8699 36.8231 50.8342 36.1172 50.8271 34.9408C50.8199 33.3036 50.8128 33.2643 50.5987 32.5879C50.4632 32.1565 50.3633 31.6467 50.3347 31.2154C50.3062 30.833 50.2206 30.0291 50.1421 29.4115C50.0137 28.4017 50.0137 28.2743 50.1135 28.137C50.2063 27.9998 50.242 27.9998 50.4346 28.1566C50.6487 28.3331 50.8841 28.2743 50.9483 28.0194C50.9698 27.941 51.0411 27.9508 51.1981 28.0684C51.4978 28.2743 51.6975 28.2645 51.7475 28.0488C51.7832 27.9214 51.5905 27.588 51.034 26.7939C50.6201 26.2057 50.1992 25.5587 50.0993 25.3528C49.9994 25.1567 49.8924 24.9901 49.871 24.9901C49.7996 24.9901 49.557 24.4018 49.5998 24.3332C49.6212 24.3136 49.7068 24.3332 49.7925 24.4018C49.871 24.4607 50.0065 24.4999 50.085 24.4803C50.1778 24.4607 50.2562 24.5293 50.3133 24.6861C50.456 25.0685 50.613 25.1567 50.8413 24.9803C51.0268 24.8332 51.0554 24.8332 51.2552 24.9999C51.3765 25.1077 51.562 25.1861 51.669 25.1861C51.7974 25.1861 51.9259 25.2744 52.0043 25.4018C52.1185 25.5979 52.147 25.6077 52.3112 25.49C52.4539 25.3822 52.5395 25.3822 52.7464 25.4802C53.2958 25.7253 53.2887 25.2646 52.7393 24.6861C51.7118 23.6372 50.6487 21.9705 49.9922 20.4117C49.7996 19.9314 49.557 19.402 49.4642 19.2255C49.2359 18.8236 49.3644 18.8137 49.7925 19.2157C49.9994 19.4118 50.1635 19.4902 50.2634 19.4608C50.349 19.4314 50.4346 19.451 50.4489 19.5098C50.4846 19.6667 50.9127 19.5196 50.9626 19.3333C50.9912 19.2353 50.9055 19.0098 50.7414 18.7451C49.8067 17.2059 49.2859 16.0981 49.0076 15.0099C48.9148 14.6766 48.815 14.4021 48.7721 14.4021C48.7293 14.4021 48.7151 14.3825 48.7365 14.3531C48.815 14.2354 49.1432 14.4315 49.186 14.608C49.2145 14.706 49.3144 14.8237 49.4143 14.8531C49.5071 14.8923 49.6712 15.0295 49.7639 15.157C49.9066 15.3531 49.9637 15.3727 50.0422 15.2844C50.0993 15.2158 50.1492 15.0982 50.1492 15.0295C50.1492 14.9315 50.2206 14.9021 50.3775 14.9119C50.7486 14.9511 50.7272 14.6276 50.349 14.206C49.928 13.7354 48.8649 12.3335 48.8649 12.2355C48.8649 12.1963 48.9363 12.1473 49.029 12.1276C49.2716 12.0786 49.2645 11.7355 49.0005 11.3139C48.8435 11.0689 48.7936 10.9316 48.8435 10.863C48.9006 10.7845 48.9648 10.7943 49.0647 10.863C49.2716 11.0198 49.4357 11.0002 49.4357 10.814C49.4357 10.6963 49.4928 10.6767 49.7568 10.7355C50.0707 10.7943 50.085 10.7845 50.1564 10.5002C50.1992 10.3336 50.2777 10.1767 50.3347 10.1473C50.5416 10.0395 50.4204 9.79437 49.9994 9.49046C49.4999 9.11792 49.0219 8.43167 48.7579 7.69639C48.4011 6.68661 48.1086 3.42199 48.1871 1.28479C48.237 0.0005126 48.2085 -0.342616 48.1229 0.353445Z" fill="white"/>
<path d="M18.4266 3.59847C18.1769 3.85336 17.8772 4.03963 17.4705 4.19649C17.1423 4.31413 16.5643 4.63766 16.179 4.89255C15.0874 5.64743 14.1955 5.90233 12.1334 6.05919C10.8348 6.15722 10.7992 6.16703 9.51485 6.98073C8.90124 7.36307 8.56589 7.66699 7.98081 8.33364C6.15422 10.412 5.26233 12.1179 4.34191 15.2844L4.0565 16.2648V19.8627L4.65585 21.5686C5.16958 23.0293 5.33368 23.4019 5.79033 24.1077C6.07574 24.5685 6.56806 25.2548 6.882 25.6371C7.40286 26.2743 7.48849 26.343 8.05216 26.5488C8.53021 26.7253 8.73713 26.8626 9.0154 27.1861C9.21518 27.4116 9.60047 27.8135 9.87161 28.0782C10.1499 28.3429 10.6279 28.8527 10.9419 29.2056C11.4485 29.7841 11.5626 29.8723 11.9765 29.9801C12.4046 30.0978 12.4759 30.1468 12.904 30.7252C13.2893 31.235 13.4962 31.4311 14.117 31.8036C14.7449 32.1762 14.9447 32.3624 15.3656 32.9212C15.6439 33.284 16.0292 33.7447 16.229 33.9408C16.4288 34.1369 16.7356 34.5094 16.9211 34.7741C17.0995 35.0486 17.4205 35.4016 17.6275 35.5584C17.9699 35.8329 18.0199 35.9212 18.1769 36.48C18.2696 36.8231 18.5051 37.5192 18.6906 38.0387C18.8761 38.5583 19.0973 39.3426 19.1829 39.7838C19.2685 40.2642 19.4184 40.7544 19.5397 40.9896C19.6895 41.274 19.7537 41.5092 19.7537 41.7739C19.7537 42.2151 19.9107 42.7935 20.1247 43.0974C20.2318 43.2543 20.2603 43.3817 20.2246 43.5876C20.0605 44.5092 20.032 44.9307 20.0677 45.9993C20.0891 46.6562 20.1247 47.4405 20.1462 47.7346C20.189 48.2542 20.1747 48.3326 19.8393 49.2149C19.6467 49.7345 19.4112 50.3129 19.3113 50.4894C19.2115 50.6757 18.9475 51.2835 18.7263 51.8521C18.1269 53.3717 17.7345 53.8521 16.914 54.0971C16.4573 54.2246 16.3146 54.3226 15.915 54.7638C15.5726 55.1461 15.0374 55.4304 14.4952 55.5383C14.1812 55.5873 14.1099 55.5677 13.9814 55.3912C13.7888 55.1265 13.4249 55.1265 13.2251 55.3814C13.1038 55.5383 13.0325 55.5677 12.8898 55.4893C12.797 55.4402 12.3832 55.4206 11.9693 55.4501C10.8777 55.5285 9.69323 55.2442 9.69323 54.901C9.69323 54.6069 9.41496 54.2148 9.02967 53.9501C7.92373 53.1854 6.85346 51.9207 6.23984 50.6266C5.93303 49.9894 5.26947 47.9404 5.26947 47.6267C5.26947 47.3914 5.10536 46.9307 4.96266 46.7738C4.90558 46.7052 4.73434 46.3621 4.5845 45.9993C4.13499 44.9503 3.42148 44.2641 2.65089 44.1366C2.36548 44.0974 2.27986 44.0386 2.18711 43.8033C1.83035 42.9504 0.824302 42.8916 0.33198 43.6955C0.0465763 44.166 -0.0319097 44.617 0.0109008 45.568C0.0394412 46.1856 0.117927 46.6758 0.30344 47.411C0.446142 47.9601 0.560304 48.5385 0.560304 48.6855C0.560304 48.9992 0.774356 49.6953 0.988409 50.058C1.0669 50.1953 1.13111 50.411 1.13111 50.5384C1.13111 50.6659 1.21673 50.911 1.33089 51.0874C1.43792 51.2639 1.58062 51.5776 1.65197 51.7835C1.77327 52.1462 2.13003 52.5384 2.35121 52.5384C2.41543 52.5384 2.55813 52.6952 2.65802 52.8815C2.89348 53.3031 3.18602 53.5187 3.5285 53.5187C3.74969 53.5187 3.93521 53.6756 4.7272 54.4893C6.74643 56.5775 7.938 57.4402 9.60761 58.0186C10.9775 58.499 12.7542 58.4892 13.4463 57.9892C13.6818 57.8225 14.1455 57.6657 14.9019 57.4794C16.0863 57.2049 17.1779 56.7147 17.6132 56.2834C18.2125 55.6853 19.1972 54.2442 19.4112 53.6658C19.5325 53.3423 19.8108 52.7933 20.0391 52.4403C20.3745 51.9207 20.4815 51.656 20.6456 50.9698C20.7598 50.509 21.0166 49.6365 21.2236 49.0385C21.723 47.5777 21.8514 46.7052 21.83 44.9993C21.8158 43.7641 21.7944 43.6366 21.5304 42.5582C21.3734 41.9308 21.1665 41.1661 21.0737 40.8622C20.981 40.5485 20.8525 39.9309 20.7812 39.4799C20.6171 38.3917 20.2389 37.2348 19.6253 35.9015C19.3256 35.2545 19.0759 34.5682 19.0045 34.2349C18.9046 33.7349 18.8476 33.6271 18.5764 33.3918C18.4052 33.2349 18.0698 32.8232 17.8201 32.4605C17.0138 31.2644 16.3146 30.4899 15.2586 29.6272C14.067 28.6566 13.4534 28.0586 12.6543 27.0979C12.3404 26.7155 11.8409 26.1959 11.5484 25.9508C11.2558 25.6959 10.7849 25.2352 10.5138 24.9116C10.2355 24.5979 9.62901 23.9607 9.15096 23.4999C8.18059 22.5392 7.96654 22.1764 7.5313 20.7451C7.31724 20.0392 7.25303 19.6667 7.18881 18.7843L7.11032 17.6863L7.63832 16.0981L8.15918 14.5197L9.08675 13.3433C10.1713 11.9806 10.8705 11.3826 12.1049 10.7747C12.9112 10.3826 12.9254 10.3826 13.9457 10.3826C14.5522 10.3826 15.2943 10.314 15.7367 10.2257C16.4716 10.0591 16.5001 10.0689 16.9282 10.265C17.1637 10.3728 17.5561 10.5199 17.7916 10.5885C18.3766 10.7551 18.4337 10.8042 18.5265 11.2453C18.6763 11.912 19.7537 12.8727 21.0594 13.51C21.6659 13.8041 22.2653 13.9021 22.4365 13.7355C22.4793 13.6962 22.6434 13.4217 22.8004 13.1276L23.0929 12.5884L23.0287 11.8532C22.8004 9.07872 22.6363 8.35324 22.0441 7.49052C21.4305 6.59839 21.195 6.12781 21.0024 5.33372C20.8454 4.71608 20.7312 4.44158 20.4458 4.03963C20.1105 3.55925 20.0605 3.52984 19.5825 3.422C19.3042 3.36318 19.0117 3.29455 18.926 3.27495C18.8333 3.24553 18.6478 3.36318 18.4266 3.59847Z" fill="white"/>
<path d="M108.999 6.90228C108.343 7.02973 108.286 7.05914 107.744 7.57873C107.38 7.93167 107.102 8.12774 106.973 8.12774C106.859 8.12774 106.602 8.15715 106.402 8.18656C106.06 8.24538 106.031 8.27479 105.839 8.74537C105.732 9.01987 105.596 9.51006 105.546 9.83358C105.453 10.412 105.46 10.4512 105.667 11.1767L105.881 11.9218L105.774 12.5786C105.675 13.157 105.675 13.2943 105.774 13.8727C105.896 14.5982 105.903 14.5491 105.439 16.2452L105.161 17.2451V18.8431C105.161 20.3431 105.139 20.5882 104.797 23.0783C104.426 25.8136 104.369 26.5684 104.233 30.4801C104.176 31.9997 104.119 32.7545 104.026 33.2251C103.948 33.5781 103.869 34.3231 103.841 34.8819C103.819 35.4408 103.741 36.3035 103.67 36.7937C103.591 37.2838 103.513 38.0583 103.491 38.5191C103.463 38.9799 103.377 39.7151 103.299 40.1661C103.227 40.6171 103.163 41.1759 103.163 41.4112C103.163 41.6367 103.092 42.2641 103.013 42.7935C102.928 43.3327 102.835 44.4013 102.806 45.1856C102.763 46.2444 102.699 46.862 102.556 47.5875C102.357 48.5679 102.357 48.5679 102.35 52.156L102.342 55.7343L102.799 56.7637C103.042 57.3225 103.348 57.9304 103.47 58.097C104.176 59.1166 105.346 58.048 104.997 56.7049C104.94 56.4794 104.726 56.0088 104.526 55.6461C104.326 55.2736 104.162 54.8814 104.162 54.7638C104.162 54.6461 104.198 54.0187 104.233 53.3717C104.276 52.7246 104.34 51.205 104.376 49.9894C104.447 47.5385 104.711 44.5288 104.99 43.0386C105.082 42.5386 105.161 41.8425 105.161 41.4994C105.161 40.6759 105.468 38.1858 105.689 37.1564C105.796 36.6956 105.874 36.1172 105.874 35.8525V35.3819H106.474C107.066 35.3819 107.087 35.3917 107.701 35.8819C108.043 36.1466 108.579 36.6662 108.885 37.0289C109.52 37.7642 111.119 40.4014 111.918 42.0582C112.196 42.6268 112.66 43.4601 112.945 43.9209C113.231 44.3719 113.759 45.2542 114.115 45.8719C114.522 46.5679 115.214 47.5581 115.928 48.4698C116.563 49.2737 117.348 50.3815 117.669 50.9207C117.983 51.4599 118.453 52.2148 118.71 52.5874C118.967 52.9697 119.338 53.6462 119.524 54.0971C120.159 55.5971 121.45 57.8715 122.171 58.7441C123.341 60.1656 124.789 61.4597 125.21 61.4597C125.353 61.4597 125.503 61.4107 125.546 61.3518C125.767 61.0479 125.132 59.7931 123.912 58.146C122.849 56.7049 122.342 55.8618 121.607 54.254C120.922 52.754 120.63 51.9501 120.323 50.6855C120.209 50.2051 119.959 49.4992 119.731 49.0188C119.26 48.0091 118.289 45.5189 117.968 44.4993C117.847 44.0974 117.369 42.9013 116.912 41.8425C116.078 39.9014 115.55 38.323 115.257 36.9015C115.171 36.4701 114.979 35.6858 114.836 35.1564C114.636 34.4016 114.579 34.0584 114.579 33.5192C114.579 32.8722 114.586 32.833 114.815 32.5977C114.936 32.4702 115.271 32.1957 115.542 31.9899C115.821 31.7938 116.249 31.3918 116.506 31.1173C116.762 30.8428 117.133 30.4605 117.34 30.2742C118.118 29.5487 118.889 27.8233 119.103 26.2939C119.16 25.8724 119.245 24.9508 119.288 24.2352C119.331 23.5293 119.417 22.647 119.474 22.2744C119.652 21.1274 119.773 19.5784 119.702 19.2549C119.666 19.098 119.645 18.5392 119.652 18.0294C119.659 17.1765 119.645 17.0393 119.438 16.4216C119.274 15.9119 119.217 15.6079 119.217 15.1668C119.217 14.3629 118.839 12.9315 118.211 11.3237C117.433 9.3532 116.655 8.35322 115.243 7.53952C114.215 6.9415 113.78 6.86307 111.368 6.80424C110.17 6.77483 109.492 6.80424 108.999 6.90228ZM112.503 11.3629C112.802 11.5198 113.231 11.7257 113.459 11.8139C113.83 11.9512 113.894 12.01 114.151 12.5394L114.436 13.1178V14.5197C114.436 15.706 114.458 15.9707 114.565 16.2158C114.693 16.5099 114.693 16.5393 114.565 17.2942L114.436 18.0687L114.807 19.6176L114.486 20.4706L114.158 21.3137L114.108 22.7352C114.08 23.5195 114.03 24.2646 114.001 24.3822C113.958 24.5293 113.966 24.7548 114.015 24.99C114.087 25.3234 114.08 25.441 113.944 25.9018C113.773 26.4802 113.288 27.0978 112.332 27.9508C111.903 28.3331 111.732 28.4213 111.154 28.5586C109.977 28.8429 108.957 29.2154 108.579 29.4997C108.222 29.7644 108.207 29.7644 107.815 29.6272C107.565 29.5389 107.308 29.3625 107.151 29.1762L106.887 28.8625L106.945 28.2547C106.973 27.9213 106.973 27.4704 106.945 27.2351C106.866 26.6469 106.98 25.0587 107.166 24.2548C107.244 23.8724 107.444 23.1175 107.594 22.5685C107.979 21.1666 108.45 18.1863 108.514 16.7059C108.579 15.2746 108.871 13.4903 109.171 12.6668L109.392 12.059L110.277 11.6473C110.776 11.4218 111.226 11.2649 111.318 11.2943C111.404 11.3237 111.554 11.2845 111.654 11.2159C111.896 11.0296 111.889 11.0296 112.503 11.3629Z" fill="white"/>
<path d="M128.086 18.6667C127.836 18.7353 127.608 18.8236 127.572 18.8628C127.529 18.8922 127.094 18.9902 126.588 19.0686C125.225 19.3039 124.711 19.7157 124.312 20.9215C124.069 21.6372 124.062 22.1666 124.269 23.0293C124.476 23.8724 125.325 25.2842 126.017 25.941C126.473 26.3822 126.538 26.4116 127.037 26.441C127.865 26.4998 128.015 26.4312 128.514 25.7449C128.835 25.3038 129.006 24.9803 129.121 24.5685C129.356 23.7156 129.327 23.3332 128.992 22.5686C128.578 21.6274 128.6 21.3725 129.128 20.451C129.634 19.5784 129.699 19.2647 129.477 18.8824C129.342 18.6569 129.242 18.5981 128.921 18.5687C128.707 18.5392 128.329 18.5883 128.086 18.6667Z" fill="white"/>
<path d="M54.9583 30.5193C54.6943 30.686 54.5231 30.8919 54.3519 31.2252C54.1307 31.6762 54.1093 31.7644 54.1093 32.4899C54.1093 33.3428 54.1878 33.5879 54.7657 34.5682C54.9013 34.7937 55.0654 35.2153 55.1367 35.5094C55.3222 36.2349 55.5434 36.8133 55.8574 37.3917C56.314 38.2348 56.4068 38.5779 56.5209 39.8916C56.5994 40.774 56.6922 41.3132 56.842 41.823C57.0489 42.4896 57.948 46.2444 58.2833 47.8326C58.3689 48.2346 58.5402 48.8228 58.6543 49.1365C58.7685 49.46 58.9255 49.9894 59.0039 50.3325C59.0753 50.6659 59.2251 51.2051 59.325 51.5188C59.7959 52.9697 60.0671 53.9697 60.1028 54.4403C60.2312 55.9893 60.3739 56.6069 60.7592 57.3128C60.9804 57.7049 61.5084 57.95 61.9079 57.8323C62.229 57.7343 62.8783 56.803 62.9497 56.3422C63.0139 55.8814 62.9996 55.1461 62.914 54.8128C62.8284 54.4697 62.9425 53.3815 63.2208 51.9501C63.2921 51.5482 63.3778 50.9306 63.3992 50.5776C63.4277 50.1855 63.5633 49.4992 63.7488 48.7934C63.92 48.1561 64.0627 47.6071 64.0627 47.5581C64.0627 47.4405 64.6407 45.3131 65.0831 43.8131C65.2971 43.0876 65.5183 42.2935 65.5682 42.0484C65.6182 41.8034 65.7181 41.47 65.7894 41.3132C65.8608 41.1465 65.9179 40.8916 65.9179 40.7446C65.9179 40.5779 66.0392 40.225 66.2318 39.8622C66.403 39.5289 66.6885 38.8917 66.874 38.4505C67.0595 38.0093 67.4091 37.3525 67.6517 36.9799C68.3795 35.8917 68.5364 35.1271 68.1297 34.7153C67.7373 34.3134 67.6446 34.3918 66.9881 35.6368C66.6528 36.2643 66.2033 37.0094 65.9892 37.2839C65.7538 37.5682 65.5326 37.9701 65.4541 38.225C65.3756 38.4701 65.2115 38.8426 65.0831 39.0681C64.9546 39.2838 64.7977 39.6367 64.7334 39.8524C64.6692 40.0583 64.5122 40.4799 64.3767 40.7838C64.1983 41.1955 64.1341 41.4504 64.1341 41.7837C64.1341 42.1171 64.0699 42.3818 63.8915 42.8033C63.7559 43.117 63.5419 43.7249 63.4134 44.1562C63.285 44.5876 63.128 45.0484 63.0638 45.1856C62.9996 45.3229 62.8355 45.8032 62.7071 46.264C62.3789 47.4111 62.1006 48.2052 61.9507 48.4306C61.8366 48.6071 61.8223 48.6071 61.7367 48.4404C61.5869 48.1757 61.6154 47.4601 61.7866 47.0777C61.9293 46.7738 61.9365 46.6464 61.8937 45.9013C61.8723 45.4405 61.7866 44.6366 61.7153 44.117C61.6368 43.5974 61.5583 42.9504 61.5298 42.6661C61.5084 42.3818 61.4441 41.97 61.3871 41.7445C61.33 41.519 61.28 41.0877 61.28 40.7838C61.28 40.4799 61.2515 39.9897 61.2158 39.6956C61.1302 39.0093 61.2087 38.4309 61.4442 37.9505C61.6939 37.4407 61.7296 37.127 61.6083 36.529C61.5512 36.2545 61.4798 35.7741 61.4513 35.48C61.3799 34.6859 61.1587 34.2741 60.5737 33.8722C60.1955 33.6075 59.9386 33.3134 59.4178 32.5585C58.4189 31.1174 57.7196 30.6076 56.3925 30.3919C55.5006 30.2448 55.3722 30.2546 54.9583 30.5193Z" fill="white"/>
<path d="M133.123 30.5095C132.895 30.6566 132.709 30.8919 132.531 31.235C132.288 31.7056 132.274 31.784 132.274 32.4801C132.274 33.2938 132.338 33.4997 132.924 34.5584C133.08 34.8329 133.259 35.2937 133.337 35.5878C133.516 36.3133 133.737 36.8917 134.058 37.4897C134.507 38.3034 134.6 38.676 134.7 39.8916C134.764 40.774 134.843 41.2249 135.057 41.9504C135.307 42.8425 136.156 46.3817 136.484 47.9306C136.57 48.3326 136.712 48.8228 136.791 49.0091C136.876 49.1953 137.062 49.813 137.205 50.3816C137.347 50.9502 137.64 51.9796 137.854 52.6854C138.139 53.607 138.261 54.1462 138.296 54.6364C138.396 55.9795 138.66 57.0088 139.038 57.4696C139.238 57.7245 139.745 57.9304 140.002 57.8618C140.33 57.7833 140.508 57.6069 140.829 57.0481C141.072 56.6363 141.115 56.4794 141.157 55.901C141.186 55.4304 141.172 55.1167 141.1 54.8422C141.036 54.5775 141.022 54.352 141.065 54.156C141.093 53.9893 141.157 53.5481 141.2 53.1756C141.243 52.7933 141.336 52.205 141.407 51.8521C141.478 51.4992 141.557 50.9306 141.578 50.5776C141.607 50.2247 141.75 49.4502 141.899 48.862C142.056 48.264 142.313 47.2542 142.485 46.6072C142.649 45.9601 142.941 44.9209 143.127 44.3033C143.312 43.6857 143.555 42.8229 143.655 42.3916C143.762 41.9602 143.912 41.4406 143.983 41.2445C144.054 41.0387 144.118 40.7838 144.118 40.6661C144.118 40.5387 144.29 40.0877 144.497 39.6564C144.711 39.2152 145.032 38.5191 145.217 38.0976C145.403 37.676 145.717 37.127 145.909 36.8623C146.252 36.4015 146.544 35.6565 146.544 35.2545C146.544 34.9506 146.202 34.4996 145.966 34.4996C145.802 34.4996 145.681 34.6663 145.182 35.5976C144.861 36.2055 144.411 36.9407 144.183 37.2447C143.954 37.5388 143.712 37.9603 143.648 38.176C143.583 38.3917 143.405 38.7936 143.255 39.0681C143.105 39.3426 142.977 39.6073 142.977 39.6564C142.977 39.7054 142.834 40.0975 142.656 40.5191C142.406 41.1367 142.335 41.3916 142.335 41.7543C142.335 42.0975 142.278 42.3229 142.114 42.6955C141.985 42.9602 141.764 43.5778 141.614 44.068C141.464 44.5582 141.279 45.1072 141.2 45.2935C141.122 45.4797 140.929 46.0876 140.765 46.6464C140.237 48.4797 140.08 48.7934 139.88 48.3816C139.716 48.0287 139.738 47.6365 139.952 47.1169C140.13 46.6758 140.13 46.6562 140.051 45.6562C140.009 45.0974 139.93 44.3817 139.873 44.0582C139.823 43.7347 139.759 43.1857 139.73 42.8425C139.702 42.4896 139.616 41.97 139.545 41.6759C139.445 41.2642 139.402 40.8034 139.395 39.7348L139.374 38.3329L139.566 38.0584C139.823 37.6858 139.916 37.1074 139.787 36.6074C139.738 36.4015 139.673 35.98 139.652 35.6859C139.588 34.7447 139.388 34.3526 138.717 33.8526C138.168 33.4408 137.675 32.833 137.24 32.0193C137.062 31.686 136.377 31.0781 135.842 30.7938C135.349 30.5193 134.886 30.4017 134.079 30.3429C133.53 30.2939 133.409 30.3135 133.123 30.5095Z" fill="white"/>
<path d="M125.96 31.8722C125.574 32.0389 125.503 32.1075 125.339 32.5193C125.061 33.2251 124.975 33.6663 125.068 33.9114C125.111 34.029 125.211 34.7251 125.289 35.4506C125.403 36.5878 125.41 36.9211 125.346 37.7152C125.218 39.1858 125.296 41.1367 125.532 42.1955C125.731 43.1072 125.91 43.47 126.324 43.8229C126.723 44.1562 126.78 44.5092 126.802 46.7542C126.823 48.8032 126.916 50.5188 127.101 52.0972C127.158 52.5776 127.223 53.2638 127.244 53.6168C127.273 53.9697 127.315 54.6069 127.344 55.0383C127.372 55.5481 127.451 55.9696 127.551 56.2343C127.636 56.4598 127.708 56.8226 127.708 57.0382C127.708 57.2539 127.772 57.6265 127.851 57.8519C127.929 58.0872 128.057 58.6264 128.136 59.0676C128.307 59.9793 128.507 60.4793 128.692 60.4793C128.878 60.4793 129.106 60.2244 129.199 59.9009C129.27 59.6656 129.27 59.5676 129.178 59.3225C129.113 59.1558 129.063 58.8421 129.063 58.6362C129.063 58.4206 129.014 58.0872 128.956 57.901C128.899 57.7049 128.849 57.352 128.849 57.1265C128.849 56.8912 128.785 56.3912 128.707 56.0187C128.607 55.5187 128.564 55.0383 128.564 54.2736C128.564 53.4109 128.535 53.1266 128.414 52.7246C128.264 52.2639 128.264 52.2148 128.371 51.6952C128.486 51.1658 128.478 51.1168 128.321 50.3423C128.157 49.5777 128.15 49.3914 128.143 46.5581C128.136 43.3621 128.222 41.4798 128.393 40.921C128.478 40.6269 128.486 40.47 128.414 40.0093C128.336 39.5093 128.343 39.372 128.478 38.8132C128.557 38.4603 128.643 37.9113 128.671 37.5878C128.771 36.3623 128.821 36.2055 129.306 35.7741C129.884 35.2545 129.913 35.2251 129.963 34.9408C130.041 34.5192 129.934 34.2643 129.506 33.8428C129.278 33.6173 129.021 33.3134 128.921 33.1761C128.792 32.9899 128.685 32.931 128.45 32.931C128.186 32.931 128.086 32.8624 127.694 32.4016C127.273 31.9016 126.866 31.6467 126.531 31.6664C126.452 31.6664 126.195 31.7644 125.96 31.8722Z" fill="white"/>
<path d="M74.8367 32.1467C73.9733 32.2644 72.8317 32.6075 72.4036 32.8624C72.1824 32.9996 71.8114 33.333 71.5759 33.5977C71.3405 33.8722 70.9837 34.2055 70.7839 34.3427C70.3844 34.6172 69.6566 35.3917 69.4853 35.7152C69.4283 35.8329 69.1785 36.2643 68.9288 36.6956C68.4293 37.5387 68.2866 38.0387 68.3295 38.7152C68.3651 39.2348 68.622 39.6661 69.1643 40.0975C69.5852 40.4308 70.0133 40.47 70.627 40.2249C70.841 40.1367 71.3904 40.0387 71.8542 39.9896C72.6391 39.921 72.7104 39.8916 73.11 39.5583C73.8378 38.9505 73.9947 38.8916 74.908 38.8916C76.1138 38.8916 76.6276 39.1269 77.3268 39.97C77.8762 40.6465 78.233 41.2543 78.604 42.1465L78.8252 42.6857L78.6967 43.0876C78.5897 43.4111 78.5184 43.4994 78.3329 43.5582C78.0189 43.6366 76.8488 44.4111 76.228 44.9307C75.6857 45.3915 75.2719 45.5483 73.9091 45.8228C73.0957 45.9895 73.0814 45.9993 72.5891 46.5091C71.8756 47.2542 71.6972 47.5483 71.1764 48.8129C70.6056 50.1855 70.5128 50.7737 70.5913 52.5187C70.6484 53.803 70.7768 54.2736 71.2763 55.0971C71.7686 55.9108 72.7889 56.5775 73.9805 56.8912L74.5869 57.0382L75.964 56.4108C77.4838 55.7049 78.3329 55.1657 78.6539 54.6951C78.7752 54.5285 79.0321 54.2638 79.2319 54.1069C79.4317 53.9501 79.7242 53.6069 79.8812 53.3422C80.0453 53.0873 80.3164 52.7638 80.4948 52.6364C80.8944 52.3423 80.9871 52.4207 81.1512 53.205C81.2154 53.5187 81.3439 53.9207 81.4366 54.1167C81.5294 54.3128 81.6507 54.6755 81.7006 54.9108C81.8291 55.5187 82.1929 56.0677 82.4641 56.0677C82.7209 56.0677 83.042 55.5971 83.0492 55.2049C83.0777 54.0383 82.9564 53.1952 82.5426 51.607C82.2429 50.4502 81.8219 47.9404 81.6864 46.5091C81.6435 46.0189 81.5579 45.3621 81.5008 45.0385C81.4438 44.6856 81.401 43.9209 81.401 43.1464C81.401 41.8621 81.3938 41.8131 81.0799 40.4994C80.9086 39.7642 80.6304 38.5387 80.4734 37.7838C80.1452 36.225 79.8598 35.3623 79.4531 34.7349C79.082 34.1565 78.2615 33.4016 77.7621 33.1761C77.548 33.0781 77.1912 32.882 76.9772 32.7349C76.5634 32.4506 75.6429 32.0389 75.4717 32.0585C75.4146 32.0683 75.1292 32.1075 74.8367 32.1467ZM78.7966 46.6659C79.3246 46.862 79.3532 46.9601 79.3104 48.1071C79.2676 49.1071 79.2604 49.1365 78.9893 49.6267C78.8323 49.911 78.6468 50.2835 78.5755 50.4698C78.4185 50.8521 76.6775 52.5089 76.2708 52.656C76.1281 52.705 75.9141 52.8815 75.7928 53.0383C75.3932 53.5677 74.3872 53.7736 73.6451 53.4697C73.3383 53.3422 73.2741 53.2638 73.1671 52.9403C73.0101 52.4795 73.0386 51.8129 73.2527 50.8521C73.4168 50.107 73.9947 48.8816 74.3301 48.5384C74.6583 48.2051 75.2719 47.8326 75.4788 47.8326C75.5787 47.8326 75.8855 47.6855 76.1567 47.5091C76.4349 47.3228 76.8202 47.1071 77.0129 47.0091C77.2127 46.9208 77.4481 46.7836 77.548 46.7052C77.762 46.5385 78.3971 46.5189 78.7966 46.6659Z" fill="white"/>
<path d="M153.965 34.2055C153.359 34.2447 152.766 34.3133 152.659 34.3525C152.031 34.5878 151.09 35.578 150.612 36.5192C150.362 36.9995 150.241 37.1564 150.069 37.2054C149.484 37.3623 148.792 39.0681 148.428 41.2445C147.979 43.9797 148.05 44.666 149.234 48.6659C149.713 50.2737 149.912 50.8227 150.141 51.1854C150.305 51.4305 150.576 51.8619 150.747 52.1462C150.918 52.4207 151.254 52.8325 151.496 53.0481C151.732 53.2736 152.188 53.7442 152.502 54.1069C154.122 55.9402 155.506 56.7539 157.012 56.7539C157.797 56.7539 158.517 56.4304 159.966 55.4206C160.993 54.705 161.571 54.1265 161.507 53.8815C161.457 53.6756 160.544 53.7638 160.03 54.0089C159.302 54.3618 158.339 54.6167 157.604 54.6657L156.926 54.705L155.713 53.8815L154.493 53.0579L153.701 51.8913C152.181 49.6659 151.946 49.1463 151.874 47.9502C151.839 47.3816 151.86 47.1463 151.967 46.813C152.174 46.1366 152.46 46.0483 154.108 46.1268L155.428 46.1856L156.27 45.8326C156.733 45.6366 157.311 45.3327 157.554 45.166C158.089 44.7935 158.874 44.5288 159.794 44.4111C160.594 44.3033 161.621 43.8523 162.599 43.1857C163.105 42.8327 163.248 42.6759 163.476 42.2445C163.712 41.7837 163.74 41.6563 163.74 41.1367C163.74 40.8132 163.676 40.2446 163.59 39.872C163.469 39.3034 163.376 39.0975 162.984 38.5191C162.363 37.627 161.864 37.176 159.987 35.8917C158.31 34.7349 157.611 34.4016 156.491 34.2153C155.806 34.0977 155.706 34.0977 153.965 34.2055ZM156.348 37.9309C157.026 38.0681 158.075 38.7054 158.425 39.1956C158.674 39.5583 158.688 39.6073 158.624 39.9504C158.567 40.3034 158.532 40.3426 158.153 40.4994C156.99 40.9798 155.513 41.1171 154.593 40.823C154.315 40.7347 153.737 40.6759 153.152 40.6661C152.217 40.6563 152.167 40.6465 152.117 40.4504C152.031 40.1465 152.246 39.8328 152.98 39.1465C154.215 37.9799 155.064 37.676 156.348 37.9309Z" fill="white"/>
<path d="M38.1551 34.9604C37.6771 35.6859 37.62 36.4211 37.9767 37.2348C38.2835 37.9407 38.5904 39.4014 38.5904 40.1857C38.5904 40.5093 38.7188 41.6759 38.8758 42.7641C39.0327 43.8523 39.1826 45.1464 39.2111 45.6366L39.2539 46.5189L38.8615 47.2542C38.6403 47.6561 38.4191 48.0287 38.3692 48.0973C38.3121 48.1561 37.9339 48.2247 37.5201 48.2443C36.9493 48.2738 36.7067 48.3228 36.5069 48.4698C36.3642 48.5777 36.0574 48.8032 35.8291 48.9796C35.6007 49.1463 35.2511 49.3129 35.0585 49.3522C34.8587 49.3914 34.5804 49.509 34.4377 49.6071C34.0738 49.8619 34.0096 49.8521 33.3318 49.4012C32.5897 48.9012 32.2687 48.5287 32.2116 48.0777C32.183 47.8914 32.0831 47.5091 31.9904 47.2248C31.8976 46.9405 31.7977 46.5385 31.7692 46.3228C31.7407 46.0777 31.6764 45.9307 31.5908 45.9013C31.4196 45.8326 31.3839 45.4699 31.3554 43.47C31.334 42.0092 31.3054 41.7053 31.1484 41.019C30.9415 40.1171 30.1638 37.8329 29.8998 37.3623C29.3575 36.3917 28.1517 35.8329 27.3882 36.2152C26.6533 36.578 26.2609 37.176 26.0897 38.225C25.9898 38.8426 25.9898 38.8916 26.1824 39.823C26.3108 40.4406 26.475 40.9602 26.6248 41.2445C26.7532 41.4994 26.9031 41.8916 26.953 42.1269C27.0814 42.7445 27.2527 44.215 27.3169 45.2346C27.3454 45.7444 27.4382 46.3424 27.5238 46.6365C27.6237 46.9895 27.6736 47.362 27.6736 47.8228C27.6736 49.1561 28.0161 50.8031 28.5869 52.1756C28.9223 52.9795 29.0365 53.1756 29.3433 53.4305C29.543 53.6069 29.8356 53.8913 29.9997 54.0677C30.1638 54.254 30.3279 54.401 30.3707 54.401C30.4135 54.401 30.542 54.5383 30.6633 54.7148C30.7846 54.8912 31.0057 55.0775 31.1841 55.1461C31.3554 55.2049 31.8405 55.4696 32.2687 55.7147C33.2105 56.2637 33.5102 56.2932 34.3806 55.8716C34.716 55.7147 35.0442 55.5775 35.1084 55.5775C35.1726 55.5775 35.3225 55.4696 35.4366 55.3324C35.5579 55.1951 35.7292 55.0873 35.8219 55.0873C36.0289 55.0873 36.564 54.7148 36.935 54.3128C37.0777 54.156 37.3274 53.9795 37.4844 53.9109C37.6628 53.8324 37.9625 53.5383 38.2907 53.1168C38.5689 52.7442 38.8472 52.4403 38.9043 52.4403C39.0969 52.4403 39.418 53.1168 39.6035 53.9305C39.9103 55.2147 39.9746 55.9892 39.8818 57.0774C39.839 57.5872 39.8033 58.3911 39.8033 58.8519C39.8033 59.4401 39.7605 59.8421 39.6678 60.1852C39.5679 60.5479 39.5465 60.7636 39.5893 61.0381C39.6606 61.4695 39.3681 63.5479 39.1398 64.1557C38.9328 64.7145 38.7331 65.5674 38.7331 65.8713C38.7331 66.2145 38.2907 67.4007 38.0124 67.783C37.8697 67.9987 37.8055 68.185 37.8055 68.4105C37.8055 68.6654 37.7199 68.8811 37.4059 69.381C37.1847 69.7438 36.8494 70.3418 36.6639 70.7242C36.3071 71.4398 36.1145 71.6849 35.6007 72.0476C35.4295 72.1653 35.1298 72.479 34.9372 72.7437C34.5947 73.2143 34.5804 73.2241 34.3236 73.1261C33.9525 72.9888 33.5672 73.0084 33.1249 73.1849C32.7895 73.3123 32.6111 73.3221 31.862 73.2339C30.1852 73.028 29.8713 72.9496 29.6715 72.6947C29.5716 72.5672 29.3361 72.332 29.1363 72.1751C28.7011 71.832 28.4157 71.1555 28.4514 70.5281C28.4656 70.3124 28.4728 69.8516 28.4728 69.4987C28.4656 69.1458 28.4585 68.4987 28.4585 68.0576C28.4514 67.5086 28.4228 67.2242 28.3515 67.1458C28.2088 66.9791 28.009 67.1948 27.8092 67.7242C27.6594 68.1262 27.638 68.3419 27.6166 69.6458C27.5952 70.7928 27.6166 71.2634 27.7093 71.7535C27.8449 72.4692 28.0661 73.028 28.2088 73.028C28.2659 73.028 28.4728 73.2241 28.6726 73.4692C28.8723 73.7143 29.1221 73.9299 29.2291 73.9594C29.3361 73.9888 29.6929 74.126 30.0282 74.2535C30.8202 74.5574 32.6468 74.9789 33.2747 74.9986C34.0239 75.028 35.0157 74.6064 35.4152 74.0966C35.5365 73.9496 35.8077 73.7241 36.0217 73.5868C36.2358 73.4594 36.5925 73.1359 36.8066 72.8712C37.4202 72.1163 38.2336 70.9006 38.2336 70.7242C38.2336 70.6359 38.3692 70.3614 38.5404 70.1065C39.0827 69.2928 39.8033 67.8223 39.8033 67.5184C39.8033 67.4497 39.9175 67.038 40.0602 66.6066C40.5097 65.2439 40.6667 64.4302 40.7095 63.3714C40.738 62.6753 40.788 62.3224 40.8736 62.1459C41.0662 61.7734 41.1019 61.4989 41.1233 60.4891C41.1447 59.3421 41.2517 58.0088 41.4087 56.7049C41.5443 55.6363 41.5229 54.5383 41.3445 53.6364C41.2517 53.1756 41.2517 53.0579 41.3516 52.5776C41.4515 52.0972 41.4587 51.9501 41.373 51.3815C41.3231 51.0188 41.2731 50.0188 41.2589 49.1561C41.2517 48.2934 41.2089 47.2738 41.1661 46.8914C41.0805 46.0973 41.0377 43.2445 41.0876 41.5092C41.109 40.6955 40.8022 38.7838 40.5525 38.176C40.4669 37.9603 40.3527 37.6172 40.3028 37.4015C40.2528 37.1956 40.0816 36.7544 39.9175 36.4211C39.7462 36.0976 39.575 35.6859 39.5251 35.529C39.418 35.1565 39.0684 34.8427 38.6617 34.7545C38.3692 34.6957 38.3192 34.7153 38.1551 34.9604Z" fill="white"/>
<path d="M168.606 35.578C168.164 35.8525 167.721 36.1368 167.621 36.2348C167.336 36.4897 167.151 37.0878 167.115 37.9309C167.065 38.8818 167.179 39.4112 167.736 40.7249C168.107 41.5974 168.157 41.7935 168.228 42.5386C168.349 43.7935 168.356 46.4699 168.242 48.6659C168.157 50.3815 168.149 51.8423 168.192 55.3324C168.207 56.0971 168.235 56.3029 168.428 56.8519C168.663 57.5578 168.949 57.9696 169.255 58.0676C169.569 58.1656 170.561 57.7637 170.854 57.4108C171.246 56.9402 171.517 56.0971 171.517 55.3618C171.517 54.5775 171.703 52.4991 171.81 52.0482C171.853 51.8619 171.91 50.6462 171.938 49.3521L171.995 46.9993L172.302 45.8718C172.53 45.0287 172.616 44.5385 172.652 43.9111C172.723 42.6758 172.98 41.9994 173.751 40.9602C174.2 40.3524 174.457 40.0877 174.735 39.9406C175.013 39.7936 175.163 39.6367 175.327 39.323C175.463 39.0583 175.713 38.774 176.012 38.5485C176.469 38.1956 176.498 38.1858 177.475 38.1171C178.024 38.0779 178.481 38.0485 178.495 38.0387C178.56 37.9995 178.488 37.4407 178.374 37.1858C178.167 36.7152 177.361 36.4995 176.726 36.7544C176.59 36.8133 176.255 36.9015 175.977 36.9505C175.591 37.0289 175.27 37.1956 174.535 37.7152C174.015 38.0681 173.358 38.5975 173.08 38.8818C172.63 39.3328 172.523 39.4014 172.231 39.4014C171.717 39.4014 171.589 39.1563 171.589 38.1662C171.581 37.4995 171.553 37.3132 171.375 36.8525C171.253 36.5584 171.16 36.225 171.16 36.1172C171.16 36.0094 171.132 35.8721 171.103 35.8231C171.004 35.6172 170.183 35.1957 169.798 35.1466C169.448 35.0976 169.334 35.1368 168.606 35.578Z" fill="white"/>
</svg>
