<svg width="20" height="20" viewBox="0 0 20 20" fill="none" xmlns="http://www.w3.org/2000/svg">
<g clip-path="url(#clip0_10_316)">
<path d="M9.27361 0.0390167C6.43767 0.31636 3.96501 2.28121 3.05485 4.98433C2.76969 5.83199 2.62126 6.84371 2.67204 7.63668C2.81657 9.92184 4.68376 13.4218 8.0197 17.6523C8.71501 18.539 9.16423 19.0742 9.94157 19.9531C9.98845 20.0078 10.3088 19.664 11.0978 18.7109C14.0744 15.1211 16.215 11.6875 16.9728 9.29684C17.2189 8.51168 17.2814 8.12496 17.2814 7.32418C17.2853 6.54293 17.2463 6.18746 17.0861 5.54683C16.5627 3.42965 15.047 1.60152 13.0666 0.695267C12.3556 0.371049 11.8674 0.218704 11.133 0.0976107C10.6681 0.0233923 9.74236 -0.00785849 9.27361 0.0390167ZM10.6447 1.21089C12.0627 1.37496 13.2424 1.92964 14.2736 2.92574C15.2541 3.87496 15.8517 5.04293 16.0783 6.44527C16.1681 7.0273 16.1369 7.88277 16.0002 8.41793C15.4299 10.6718 13.6486 13.6679 10.6994 17.3437C10.3635 17.7656 10.0588 18.1289 10.0275 18.1562C9.97282 18.2031 9.93376 18.164 8.98064 16.9922C8.42985 16.3125 7.2697 14.7265 6.67985 13.8476C5.8361 12.5898 4.92595 10.9648 4.49235 9.94137C4.26188 9.4023 4.04313 8.73434 3.94548 8.28512C3.62907 6.84371 4.02751 5.10543 4.97282 3.76168C5.28141 3.32418 5.98063 2.62496 6.41813 2.31636C7.6447 1.45308 9.19548 1.04683 10.6447 1.21089Z" fill="#78DD7E"/>
<path d="M9.55864 2.7381C8.13286 2.87872 6.85942 3.72638 6.17974 4.99982C5.26567 6.69904 5.5938 8.78498 6.98052 10.117C7.7188 10.8319 8.53521 11.2186 9.53911 11.3279C11.2618 11.5233 12.9454 10.6248 13.8047 9.05842C14.336 8.08966 14.4493 6.7381 14.086 5.67951C13.7696 4.74201 13.1641 3.96076 12.3438 3.41779C11.5352 2.88654 10.543 2.64435 9.55864 2.7381ZM10.7813 3.9881C11.7657 4.24201 12.6172 5.01154 12.9454 5.95685C13.1016 6.40216 13.1368 6.6756 13.1133 7.19904C13.0782 8.08185 12.7696 8.7342 12.0938 9.3631C11.5626 9.8592 10.7305 10.1912 10.0157 10.1951C8.5938 10.199 7.3438 9.24592 6.94536 7.8631C6.87114 7.6131 6.85552 7.46466 6.85552 7.03107C6.85942 6.41388 6.91021 6.17169 7.16802 5.64435C7.82036 4.3006 9.31255 3.61701 10.7813 3.9881Z" fill="#78DD7E"/>
</g>
<defs>
<clipPath id="clip0_10_316">
<rect width="19.3684" height="19.3684" fill="white" transform="scale(1.03261)"/>
</clipPath>
</defs>
</svg>
