<svg width="145" height="147" viewBox="0 0 145 147" fill="none" xmlns="http://www.w3.org/2000/svg">
<g clip-path="url(#clip0_79_27)">
<path d="M14.0118 71.8452C21.7411 79.4401 31.4875 84.6573 42.0938 86.8775C43.8803 87.2432 45.9577 87.7298 46.6932 89.3968C46.9623 90.2185 47.0595 91.087 46.979 91.9476C46.9555 101.252 52.6231 109.543 58.5312 116.712C62.097 121.484 66.4874 125.579 71.4957 128.805C74.6931 130.485 78.0188 131.908 81.4421 133.061C90.0833 136.331 98.4567 140.271 106.486 144.844L106.038 144.876C106.651 135.355 103.923 125.919 98.3267 118.192C93.3492 111.157 87.2001 106.316 81.4876 100.691C77.2684 96.5475 73.3513 92.1079 69.7658 87.4054L63.5486 86.3247C72.8907 88.2102 82.4754 88.584 91.9359 87.4313C100.611 86.3856 109.575 83.7141 115.203 77.0883C117.932 73.8709 119.749 69.9234 122.982 67.295C119.396 68.358 115.693 68.9749 111.956 69.1317L95.7149 70.4197C91.2902 70.8985 86.8317 70.9772 82.3929 70.6551L83.8275 70.7751C89.6172 64.7657 97.2498 57.2084 103.04 51.1994C107.579 46.5266 117.625 35.6431 119.12 29.0695L95.1983 32.6809C87.8094 33.7951 80.3022 34.9517 73.5835 38.1051C65.9415 42.0799 59.3228 47.7689 54.2451 54.7271C53.1668 56.32 51.7795 57.6802 50.1656 58.727C47.2973 60.296 43.754 59.7201 40.4531 59.7685C30.532 59.9069 21.9006 66.0187 14.0676 71.8644" fill="#F5FCDE"/>
<path d="M14.0118 71.8452C21.7411 79.4401 31.4875 84.6573 42.0938 86.8775C43.8803 87.2432 45.9577 87.7298 46.6932 89.3968C46.9623 90.2185 47.0595 91.087 46.979 91.9476C46.9555 101.252 52.6231 109.543 58.5312 116.712C62.0968 121.484 66.4874 125.579 71.4957 128.805C74.6931 130.485 78.0188 131.908 81.4421 133.061C90.0833 136.331 98.4567 140.271 106.486 144.844L106.038 144.876C106.651 135.355 103.923 125.919 98.3267 118.192C93.3492 111.157 87.2001 106.316 81.4876 100.691C77.2684 96.5475 73.3513 92.1079 69.7658 87.4054L63.5486 86.3247C72.8907 88.2102 82.4754 88.584 91.9359 87.4313C100.611 86.3856 109.574 83.7146 115.203 77.0883C117.932 73.8709 119.749 69.9234 122.982 67.295C119.396 68.358 115.693 68.9749 111.956 69.1317L95.7149 70.4197C91.2902 70.8985 86.8317 70.9772 82.3929 70.6551L83.8275 70.7751C89.6172 64.7657 97.2498 57.2084 103.04 51.1994C107.579 46.5266 117.625 35.6431 119.12 29.0695L95.1983 32.6809C87.8094 33.7951 80.3022 34.9517 73.5835 38.1051C65.9415 42.0799 59.3228 47.7689 54.2451 54.7271C53.1668 56.32 51.7795 57.6802 50.1656 58.727C47.2973 60.296 43.754 59.7201 40.4531 59.7685C30.532 59.9069 21.9006 66.0187 14.0676 71.8644" stroke="#282828" stroke-width="1.5" stroke-linecap="round" stroke-linejoin="round"/>
<path d="M20.0898 67.9512C20.8397 69.3337 21.263 70.8698 21.3273 72.441C21.3914 74.0127 21.0949 75.5779 20.4604 77.0168" stroke="#282828" stroke-width="1.5" stroke-linecap="round" stroke-linejoin="round"/>
<path d="M29.3931 69.43C30.4091 69.7799 31.5163 69.2401 31.8663 68.2238C32.2161 67.208 31.6761 66.1005 30.66 65.7506C29.644 65.4008 28.5366 65.9411 28.1869 66.9569C27.8369 67.9732 28.377 69.0802 29.3931 69.43Z" fill="#282828"/>
</g>
<defs>
<clipPath id="clip0_79_27">
<rect width="113.27" height="115.827" fill="white" transform="translate(37.7109) rotate(19)"/>
</clipPath>
</defs>
</svg>
