<svg width="325" height="54" viewBox="0 0 325 54" fill="none" xmlns="http://www.w3.org/2000/svg">
<path d="M0.24469 11.9195C0.243186 6.39852 4.74312 1.92396 10.2639 1.89885C60.4122 1.67075 45.8725 0.044834 104.502 0L313.005 1.63387C316.681 1.66268 320.071 3.69526 321.577 7.04929C322.524 9.15669 323.494 11.5377 324.041 13.5097C326.577 22.6452 323.479 35.4207 321.142 42.8947C319.965 46.6615 316.469 49.1021 312.525 49.2419L180.114 53.9342C179.961 53.9397 179.916 53.9427 179.762 53.9411C174.911 53.8887 27.2596 52.2693 7.35293 48.8822C-0.882938 47.4809 -0.143697 34.8307 0.169268 31.6938C0.215951 31.2258 0.249823 30.7564 0.249695 30.2861L0.24469 11.9195Z" fill="#F5FCDE"/>
</svg>
