<svg width="134" height="33" viewBox="0 0 134 33" fill="none" xmlns="http://www.w3.org/2000/svg">
<g clip-path="url(#clip0_66_16)">
<path d="M133.009 7.90033C133.05 8.089 133.087 8.27275 133.12 8.45025C133.922 12.7431 133.321 18.425 132.553 22.8992C131.866 26.8989 128.379 29.7131 124.275 29.924L74.4769 32.4832C74.2591 32.4943 74.0791 32.4985 73.8652 32.4948C71.503 32.4534 55.7996 32.1684 39.6874 31.6405C31.6309 31.3765 23.4753 31.0518 16.8353 30.6666C13.515 30.474 10.5772 30.2665 8.22182 30.0442C5.85549 29.8208 4.10835 29.5851 3.15014 29.3424C2.49816 29.1772 1.97847 28.6773 1.56938 27.8828C1.15954 27.0868 0.893139 26.0532 0.729276 24.9477C0.402128 22.7408 0.501768 20.3808 0.566833 19.3969C0.588171 19.0742 0.604397 18.7474 0.604508 18.4134L0.606929 11.1241C0.608669 5.88239 4.86773 1.64618 10.1233 1.54951C15.7409 1.44618 18.6941 1.25404 21.6379 1.06251C22.3321 1.01735 23.0257 0.972219 23.7536 0.928298C27.5612 0.698546 32.3317 0.500039 43.0948 0.5H43.098L124.563 1.53856C128.558 1.5895 132.188 4.08323 133.009 7.90033Z" stroke="#304439"/>
</g>
<defs>
<clipPath id="clip0_66_16">
<rect width="134" height="33" fill="white"/>
</clipPath>
</defs>
</svg>
