<svg width="398" height="209" viewBox="0 0 398 209" fill="none" xmlns="http://www.w3.org/2000/svg">
<path d="M122.597 4.42788C141.515 -0.3386 173.668 -1.29194 190.112 9.19432C206.167 19.5465 218.518 34.7182 225.39 52.5261C247.084 38.8765 276.417 44.553 298.677 57.4659C320.935 70.3786 329.786 90.5711 328.745 116.267C350.441 110.027 382.074 119.69 392.4 139.926C402.727 160.162 395.091 188.112 375.261 199.204C362.808 206.137 347.881 206.396 333.649 206.483L85.1509 208C69.4868 208 53.389 208 38.8097 202.324C12.7753 192.01 -1.80395 162.372 1.45036 134.683C7.30808 85.0248 64.3234 80.1283 64.3234 80.1283C64.3234 80.1283 60.7654 20.0274 122.597 4.42788Z" fill="#F5FCDE" stroke="#231F20" stroke-width="1.5" stroke-linecap="round" stroke-linejoin="round"/>
<path d="M122.597 4.42788C141.515 -0.3386 173.668 -1.29194 190.112 9.19432C206.167 19.5465 218.518 34.7182 225.39 52.5261C247.084 38.8765 276.417 44.553 298.677 57.4659C320.935 70.3786 329.786 90.5711 328.745 116.267C350.441 110.027 382.074 119.69 392.4 139.926C402.727 160.162 395.091 188.112 375.261 199.204C362.808 206.137 347.881 206.396 333.649 206.483L85.1509 208C69.4868 208 53.389 208 38.8097 202.324C12.7753 192.01 -1.80395 162.372 1.45036 134.683C7.30808 85.0248 64.3234 80.1283 64.3234 80.1283C64.3234 80.1283 60.7654 20.0274 122.597 4.42788Z" fill="#F5FCDE" stroke="#231F20" stroke-width="1.5" stroke-linecap="round" stroke-linejoin="round"/>
</svg>
