<svg width="148" height="79" viewBox="0 0 148 79" fill="none" xmlns="http://www.w3.org/2000/svg">
<path d="M101.822 2.26683C94.8712 0.5053 83.0576 0.152979 77.0153 4.02834C71.1167 7.85412 66.5785 13.4611 64.0539 20.0422C56.0826 14.9979 45.3052 17.0956 37.1266 21.8678C28.9479 26.6399 25.6956 34.1024 26.0782 43.5986C18.1069 41.2927 6.48457 44.8637 2.69019 52.3421C-1.10419 59.8207 1.70173 70.1497 8.98758 74.2492C13.5631 76.8114 19.0474 76.9075 24.2767 76.9395L115.581 77.5C121.336 77.5 127.251 77.5 132.608 75.4023C142.173 71.5909 147.53 60.6375 146.335 50.4046C144.182 32.0527 123.233 30.2431 123.233 30.2431C123.233 30.2431 124.541 8.03182 101.822 2.26683Z" fill="#F5FCDE" stroke="#231F20" stroke-width="1.5" stroke-linecap="round" stroke-linejoin="round"/>
</svg>
