<svg width="269" height="142" viewBox="0 0 269 142" fill="none" xmlns="http://www.w3.org/2000/svg">
<path d="M83.0626 3.31818C95.8301 0.0947408 117.529 -0.549973 128.628 6.54159C139.462 13.5424 147.798 23.8026 152.435 35.8456C167.076 26.6148 186.872 30.4537 201.894 39.1862C216.916 47.9188 222.89 61.5744 222.188 78.9516C236.829 74.7321 258.176 81.2666 265.146 94.9517C272.115 108.637 266.962 127.538 253.579 135.04C245.175 139.728 235.101 139.904 225.496 139.963L57.7911 140.988C47.22 140.988 36.356 140.988 26.5168 137.149C8.94686 130.175 -0.892312 110.131 1.30393 91.4058C5.25718 57.8237 43.7354 54.5121 43.7354 54.5121C43.7354 54.5121 41.3341 13.8676 83.0626 3.31818Z" fill="#F5FCDE" stroke="#231F20" stroke-width="1.5" stroke-linecap="round" stroke-linejoin="round"/>
</svg>
