<svg width="233" height="124" viewBox="0 0 233 124" fill="none" xmlns="http://www.w3.org/2000/svg">
<path d="M161.068 3.01201C150.032 0.214301 131.277 -0.345267 121.684 5.80971C112.319 11.886 105.114 20.7912 101.106 31.2435C88.4506 23.2318 71.3402 26.5638 58.3555 34.143C45.3709 41.7223 40.2074 53.5744 40.8149 68.6566C28.1593 64.9942 9.70747 70.6659 3.68339 82.5435C-2.34067 94.4211 2.11408 110.826 13.6813 117.337C20.9456 121.406 29.6527 121.559 37.9547 121.61L182.913 122.5C192.049 122.5 201.441 122.5 209.944 119.168C225.132 113.115 233.635 95.7182 231.737 79.466C228.32 50.3189 195.061 47.4448 195.061 47.4448C195.061 47.4448 197.137 12.1682 161.068 3.01201Z" fill="#F5FCDE" stroke="#231F20" stroke-width="1.5" stroke-linecap="round" stroke-linejoin="round"/>
</svg>
