<svg width="320" height="228" viewBox="0 0 320 228" fill="none" xmlns="http://www.w3.org/2000/svg">
<g clip-path="url(#clip0_116_161)">
<path d="M112.636 104.689C124.135 107.609 136.442 106.956 147.581 111.027C147.616 111.042 147.645 111.065 147.666 111.096C147.687 111.126 147.7 111.162 147.701 111.199L147.538 111.482C143.244 118.259 138.847 125.086 133.316 130.926C130.594 133.804 127.605 136.423 124.943 139.36C122.374 142.195 120.128 145.306 118.243 148.635C106.512 146.452 93.1984 146.868 81.9648 142.707" fill="#282828"/>
<path d="M112.636 104.689C124.135 107.609 136.442 106.956 147.581 111.027C147.616 111.042 147.645 111.065 147.666 111.096C147.687 111.126 147.7 111.162 147.701 111.199L147.538 111.482C143.244 118.259 138.847 125.086 133.316 130.926C130.594 133.804 127.605 136.423 124.943 139.36C122.374 142.195 120.128 145.306 118.243 148.635C106.512 146.452 93.1984 146.868 81.9648 142.707" stroke="#282828" stroke-linecap="round" stroke-linejoin="round"/>
<path d="M163.758 122.03C181.682 121.36 200.627 120.724 220.269 122.536C242.058 124.538 263.983 124.434 285.874 124.323C293.492 124.323 301.239 124.228 308.539 122.046" stroke="#282828" stroke-linecap="round" stroke-linejoin="round"/>
<path d="M140.142 188.073C134.37 193.063 126.229 194.609 118.67 193.776C111.113 192.943 103.925 189.971 96.9855 186.802C91.7223 184.524 86.6631 181.804 81.8614 178.669C77.2237 175.5 73.0498 171.687 68.541 168.363C63.2536 164.438 57.516 161.161 51.4503 158.599C49.4149 157.74 47.2507 156.958 45.0521 157.207C41.0843 157.662 38.3446 161.278 36.0859 164.584" stroke="#282828" stroke-linecap="round" stroke-linejoin="round"/>
<path d="M37.4023 166.326C42.05 170.128 46.9477 173.615 52.0625 176.761C55.4978 178.916 59.1478 180.977 61.9906 183.924C64.567 186.577 66.4221 189.867 69.0243 192.512C73.6706 197.227 80.2405 199.434 85.6686 203.221C89.8591 206.141 93.3981 210.023 97.9665 212.325C103.746 215.227 110.557 215.305 116.569 217.701C120.614 219.325 124.178 221.952 128.112 223.825C134.295 226.735 141.211 227.716 147.959 226.641C157.286 225.147 163.083 218.259 170.666 212.634C174.532 209.875 178.581 207.381 182.784 205.171C198.699 196.48 215.39 189.292 232.64 183.7C236.83 182.343 241.141 181.064 245.522 181.184C252.057 181.364 258.077 184.576 264.416 186.216C268.472 187.141 272.587 187.786 276.732 188.148C290.867 189.787 304.886 192.317 318.702 195.724" stroke="#282828" stroke-linecap="round" stroke-linejoin="round"/>
<path d="M148.707 184.002C154.746 177.51 161.913 172.171 169.86 168.242" stroke="#282828" stroke-linecap="round" stroke-linejoin="round"/>
<path d="M171.73 161.465C177.589 158.139 183.919 155.724 190.505 154.303" stroke="#282828" stroke-linecap="round" stroke-linejoin="round"/>
<path d="M56.2773 160.848C58.4006 159.26 60.7555 158.009 63.2596 157.137C72.827 153.255 82.42 149.448 92.039 145.715" stroke="#282828" stroke-linecap="round" stroke-linejoin="round"/>
<path d="M147.578 110.984C157.601 117.125 167.263 124.854 177.199 131.596C175.267 131.596 172.046 131.673 170.079 131.717" stroke="#282828" stroke-linecap="round" stroke-linejoin="round"/>
<path d="M123.059 141.516C123.738 157.662 123.995 173.018 123.849 189.181" stroke="#282828" stroke-linecap="round" stroke-linejoin="round"/>
<path d="M123.852 189.181C139.903 181.091 155.379 172.76 171.43 164.671C171.48 151.809 170.85 138.955 169.541 126.16" stroke="#282828" stroke-linecap="round" stroke-linejoin="round"/>
<path d="M92.6824 145.982C92.5876 157.199 93.5412 180.215 93.344 180.018C103.521 182.439 123.806 189.173 123.849 189.181" stroke="#282828" stroke-linecap="round" stroke-linejoin="round"/>
<path d="M82.3516 142.599C87.728 135.259 93.319 128.082 99.1247 121.068" stroke="#282828" stroke-linecap="round" stroke-linejoin="round"/>
<path d="M108.992 108.573C110.057 107.379 111.449 105.996 112.514 104.828" stroke="#231F20" stroke-linecap="round" stroke-linejoin="round"/>
<path d="M41.3927 165.181L41.4002 165.184L41.4077 165.188C42.8294 165.818 44.1545 166.647 45.3437 167.65C45.905 168.129 46.3593 168.721 46.6773 169.386C46.9954 170.053 47.1699 170.779 47.1894 171.518L47.1897 171.527L47.1904 171.536C47.2067 171.765 47.1652 171.996 47.0695 172.206C46.977 172.409 46.8366 172.586 46.6605 172.723C46.4237 172.857 46.1418 172.856 45.7934 172.732C45.4309 172.601 45.0536 172.354 44.6965 172.085L36.8482 166.075L36.8264 166.058L36.8027 166.044C36.5743 165.912 36.3744 165.737 36.2148 165.527C36.0614 165.326 35.948 165.097 35.8809 164.853C35.8434 164.453 35.8868 164.182 35.9619 164.003C36.0347 163.83 36.1448 163.721 36.2895 163.652C36.6149 163.493 37.1572 163.506 37.8612 163.683C39.0368 163.979 40.3475 164.648 41.0726 165.019C41.1981 165.083 41.306 165.138 41.3927 165.181Z" fill="#282828" stroke="#282828"/>
<path d="M15.5938 159.285L29.4638 172.958C31.9137 175.472 34.5121 177.839 37.2448 180.043C42.0026 183.727 47.5078 186.424 51.9822 190.452C55.4175 193.518 58.1228 197.28 61.5753 200.294C64.275 202.548 67.2124 204.5 70.3353 206.117C89.0491 216.337 110.107 221.49 131.123 225.097" stroke="#282828" stroke-linecap="round" stroke-linejoin="round"/>
<path d="M15.4584 159.129C14.8486 156.707 14.2732 153.976 15.57 151.855C16.8669 149.733 19.4175 148.978 21.8137 148.6C23.9915 148.13 26.2547 148.242 28.3751 148.926C29.547 149.448 30.6538 150.105 31.673 150.884C35.2936 153.394 39.0589 155.689 42.9494 157.755" stroke="#282828" stroke-linecap="round" stroke-linejoin="round"/>
<path d="M19.6184 161.449L19.6303 161.458L19.6429 161.467C21.4434 162.709 23.1138 164.129 24.6289 165.707L24.6302 165.708C25.8039 166.919 26.6731 168.384 27.1759 169.98C26.3678 169.238 25.5257 168.459 24.662 167.66C22.2574 165.435 19.6861 163.057 17.22 160.892C17.141 160.82 17.0572 160.744 16.9706 160.666C16.5609 160.296 16.0882 159.871 15.755 159.417C15.5551 159.145 15.4341 158.898 15.3981 158.684C15.3849 158.605 15.3825 158.529 15.3944 158.453C16.8615 159.365 18.2721 160.365 19.6184 161.449Z" fill="#282828" stroke="#282828"/>
<path d="M77.5781 175.559C80.4797 175.4 83.3472 174.856 86.1065 173.944L93.2344 171.926" stroke="#282828" stroke-linecap="round" stroke-linejoin="round"/>
<path d="M60.1684 199.804L29.7916 178.883C27.6851 177.503 25.6764 175.979 23.7799 174.322C20.6709 171.505 18.2233 168.027 15.1916 165.167C11.6619 161.878 7.37629 159.482 3.9238 156.115C2.66802 155.008 1.70114 153.61 1.10685 152.045C0.823549 151.259 0.757778 150.412 0.916524 149.593C1.07527 148.773 1.45262 148.012 2.00861 147.39C2.84967 146.661 3.87985 146.184 4.98016 146.015C7.5099 145.481 10.1243 145.49 12.6503 146.042C15.1761 146.595 17.5558 147.678 19.6317 149.219" stroke="#282828" stroke-linecap="round" stroke-linejoin="round"/>
<path d="M3.45808 155.738C3.00211 156.701 2.79762 157.764 2.8637 158.827C2.92978 159.891 3.26428 160.92 3.83597 161.819C4.99587 163.606 6.49931 165.145 8.25892 166.345C14.0276 170.739 20.3886 174.295 27.1531 176.908" stroke="#282828" stroke-linecap="round" stroke-linejoin="round"/>
<path d="M1.47038 150.799C5.56852 153.219 9.42905 157.648 12.2074 161.844L4.57795 156.059L4.5716 156.054L4.56506 156.05C3.81765 155.527 3.13631 154.916 2.53591 154.229C2.13767 153.709 1.75548 153.001 1.5549 152.285C1.40159 151.738 1.36454 151.227 1.47038 150.799Z" fill="#282828" stroke="#282828"/>
<path d="M104.991 108.262C104.991 108.262 111.003 108.648 112.282 108.974C110.565 110.399 106.537 113.474 106.391 113.448L103.058 112.951L101.487 112.719C100.582 112.581 99.6808 112.452 98.7812 112.332C100.744 110.819 102.82 109.457 104.991 108.262Z" fill="#282828" stroke="#282828" stroke-linecap="round" stroke-linejoin="round"/>
<path d="M106.27 113.389C106.588 117.923 106.373 122.681 106.357 127.01C104.025 126.022 101.603 125.263 99.1249 124.742C99.2622 120.602 98.9452 117.871 98.7812 112.332" fill="#F5FCDE"/>
<path d="M106.27 113.389C106.588 117.923 106.373 122.681 106.357 127.01C104.025 126.022 101.603 125.263 99.1249 124.742C99.2622 120.602 98.9452 117.871 98.7812 112.332" stroke="#282828" stroke-linecap="round" stroke-linejoin="round"/>
<path d="M145.396 178.095C145.001 172.212 144.95 165.856 144.898 159.2C144.898 158.049 144.949 156.452 144.855 154.047C144.855 153.541 152.404 151.762 154.585 151.316C155.006 158.238 155.444 165.478 155.839 172.401" fill="#282828"/>
<path d="M145.396 178.095C145.001 172.212 144.95 165.856 144.898 159.2C144.898 158.049 144.949 156.452 144.855 154.047C144.855 153.541 152.404 151.762 154.585 151.316C155.006 158.238 155.444 165.478 155.839 172.401" stroke="#282828" stroke-linecap="round" stroke-linejoin="round"/>
<path d="M152.912 163.089C152.931 163.059 152.941 163.024 152.941 162.988C152.94 162.953 152.929 162.918 152.909 162.889C152.888 162.859 152.86 162.836 152.827 162.824C152.793 162.81 152.758 162.807 152.723 162.814C152.468 163.734 152.582 164.717 153.041 165.554C153.277 165.136 153.401 164.664 153.401 164.184C153.401 163.704 153.277 163.232 153.041 162.814C152.858 163.025 152.721 163.27 152.636 163.536" stroke="#F5FCDE" stroke-linecap="round" stroke-linejoin="round"/>
<path d="M111.92 109.008L106.512 113.584V126.482L111.92 120.241V109.008Z" fill="#F5FCDE" stroke="#282828"/>
<path d="M105.16 110.623C102.584 98.9431 96.4523 87.4341 91.8998 77.1285C90.7232 74.6495 89.7496 72.0788 88.9891 69.4421C86.8073 61.017 88.9891 51.7331 85.7771 43.6343C85.0124 41.8588 84.1287 40.1372 83.1316 38.4814L71.3828 17.8867" stroke="#282828" stroke-linecap="round" stroke-linejoin="round"/>
<path d="M62.219 15.8271C60.8461 15.0494 59.6314 14.0211 58.6377 12.7955C57.7904 11.5818 57.125 10.2509 56.6624 8.8449C55.6655 6.22031 54.8056 3.54576 54.0859 0.832031L60.0977 3.5631C63.4472 5.08322 66.9684 6.72358 69.1326 9.67793C71.0761 12.4932 72.1347 15.8245 72.1728 19.2453C68.6591 18.7853 65.274 17.6228 62.219 15.8271Z" fill="#282828" stroke="#282828" stroke-linecap="round" stroke-linejoin="round"/>
<path d="M79.3531 21.3329C80.5864 16.1482 79.7352 10.6866 76.9827 6.12305C77.541 9.55834 76.3644 12.9078 75.6 16.2658C74.9559 19.0655 74.2087 23.9952 76.7595 26.0822C78.2366 25.043 78.9323 23.0333 79.3531 21.3329Z" fill="#282828" stroke="#282828" stroke-linecap="round" stroke-linejoin="round"/>
<path d="M74.7861 24.2778L74.8462 25.0593C72.183 22.6432 68.6999 21.3316 65.1045 21.3906C61.5091 21.4496 58.0709 22.8749 55.4883 25.3771C56.7895 26.5435 58.3788 27.341 60.0916 27.6873C62.6912 28.3167 65.3929 28.4012 68.0268 27.9357C70.6606 27.4701 73.1696 26.4644 75.3959 24.982" fill="#282828"/>
<path d="M74.7861 24.2778L74.8462 25.0593C72.183 22.6432 68.6999 21.3316 65.1045 21.3906C61.5091 21.4496 58.0709 22.8749 55.4883 25.3771C56.7895 26.5435 58.3788 27.341 60.0916 27.6873C62.6912 28.3167 65.3929 28.4012 68.0268 27.9357C70.6606 27.4701 73.1696 26.4644 75.3959 24.982" stroke="#282828" stroke-linecap="round" stroke-linejoin="round"/>
<path d="M85.8026 40.836L85.27 41.5919C87.2455 38.7503 89.4082 36.0446 91.7456 33.4931C92.5652 32.7171 93.2168 31.7819 93.6611 30.7449C93.8658 30.0252 93.9474 29.2759 93.9016 28.529C93.835 25.2574 93.0736 22.0373 91.669 19.082L91.7289 18.9531C90.3401 20.0625 89.0479 21.2863 87.8637 22.6118C86.8835 23.6759 86.0198 24.842 85.2875 26.09C82.8742 30.3154 83.2438 37.1431 85.2875 41.5489" fill="#282828"/>
<path d="M85.8026 40.836L85.27 41.5919C87.2455 38.7503 89.4082 36.0446 91.7456 33.4931C92.5652 32.7171 93.2168 31.7819 93.6611 30.7449C93.8658 30.0252 93.9474 29.2759 93.9016 28.529C93.835 25.2574 93.0736 22.0373 91.669 19.082L91.7289 18.9531C90.3401 20.0625 89.0479 21.2863 87.8637 22.6118C86.8835 23.6759 86.0198 24.842 85.2875 26.09C82.8742 30.3154 83.2438 37.1431 85.2875 41.5489" stroke="#282828" stroke-linecap="round" stroke-linejoin="round"/>
<path d="M78.3497 30.6087C77.7729 29.9403 77.0339 29.4313 76.2038 29.1305C75.3737 28.8297 74.4802 28.7473 73.609 28.8911C71.8646 29.197 70.1979 29.8449 68.7051 30.7977C66.8758 31.8369 65.0808 32.9448 63.3374 34.1214H63.1914C64.9814 34.7476 66.8908 34.9561 68.7738 34.7311C70.381 34.2687 71.9074 33.5619 73.2998 32.6356C74.7684 31.7768 76.7351 30.6775 78.3497 30.9695" fill="#282828"/>
<path d="M78.3497 30.6087C77.7729 29.9403 77.0339 29.4313 76.2038 29.1305C75.3737 28.8297 74.4802 28.7473 73.609 28.8911C71.8646 29.197 70.1979 29.8449 68.7051 30.7977C66.8758 31.8369 65.0808 32.9448 63.3374 34.1214H63.1914C64.9814 34.7476 66.8908 34.9561 68.7738 34.7311C70.381 34.2687 71.9074 33.5619 73.2998 32.6356C74.7684 31.7768 76.7351 30.6775 78.3497 30.9695" stroke="#282828" stroke-linecap="round" stroke-linejoin="round"/>
<path d="M88.3459 51.7598C88.5522 48.7625 90.7424 46.3148 92.9924 44.3224C95.2424 42.3299 97.733 40.4319 98.9354 37.6836C99.0078 37.4893 99.1093 37.3069 99.2358 37.1426C100.598 39.6488 101.368 42.4341 101.486 45.2843C101.521 46.0005 101.409 46.7163 101.16 47.3883C100.706 48.2518 100.03 48.9782 99.2017 49.4925C95.8491 51.8642 91.8674 53.1855 87.7617 53.2886C87.8566 53.2198 88.2602 51.8285 88.3459 51.7598Z" fill="#282828" stroke="#282828" stroke-linecap="round" stroke-linejoin="round"/>
<path d="M87.2205 51.3038C86.638 50.4923 85.8974 49.8074 85.0428 49.2907C84.1882 48.774 83.2371 48.4363 82.2479 48.298C80.2682 48.0332 78.2542 48.3495 76.4509 49.2083C75.0424 49.8438 73.7542 50.737 72.3371 51.3296C70.9637 51.904 69.4887 52.196 68 52.1885H68.1375C69.1331 53.3778 70.4082 54.3016 71.8486 54.8771C73.289 55.4527 74.8496 55.6621 76.3907 55.4863C77.4855 55.2694 78.5537 54.9354 79.577 54.4901L87.0233 51.5615" fill="#282828"/>
<path d="M87.2205 51.3038C86.638 50.4923 85.8974 49.8074 85.0428 49.2907C84.1882 48.774 83.2371 48.4363 82.2479 48.298C80.2682 48.0332 78.2542 48.3495 76.4509 49.2083C75.0424 49.8438 73.7542 50.737 72.3371 51.3296C70.9637 51.904 69.4887 52.196 68 52.1885H68.1375C69.1331 53.3778 70.4082 54.3016 71.8486 54.8771C73.289 55.4527 74.8496 55.6621 76.3907 55.4863C77.4855 55.2694 78.5537 54.9354 79.577 54.4901L87.0233 51.5615" stroke="#282828" stroke-linecap="round" stroke-linejoin="round"/>
<path d="M70.612 43.2839C72.9018 43.5133 75.2117 43.4411 77.4827 43.0692C78.8946 42.7515 80.3312 42.5562 81.7768 42.4853C82.5024 42.4568 83.2258 42.5796 83.9014 42.8457C84.5771 43.1118 85.1904 43.5155 85.7013 44.0312C83.9838 40.0805 79.2776 37.5899 75.1552 38.7923C74.1296 39.1249 73.1399 39.5594 72.2009 40.0891C71.0672 40.6817 68.0012 42.7515 67.4258 42.0472C68.3334 42.781 69.4472 43.2133 70.612 43.2839Z" fill="#282828" stroke="#282828" stroke-linecap="round" stroke-linejoin="round"/>
<path d="M92.5391 76.8726C92.9261 75.7818 93.982 75.112 94.9356 74.4678C96.827 73.3088 98.4189 71.7199 99.5813 69.8302C100.547 67.8444 101.094 65.6811 101.187 63.4749C101.376 61.4996 101.479 59.5243 101.489 57.5318C101.489 57.4546 101.489 57.3429 101.402 57.3171C101.316 57.2914 101.274 57.4631 101.36 57.4459C99.1611 59.1636 97.0134 60.6665 95.6479 63.1313C95.1112 64.1731 94.6577 65.2558 94.2916 66.3691C93.1749 69.5124 92.8054 73.9097 92.4102 77.2161C92.5133 76.864 92.4102 77.2075 92.5391 76.8726Z" fill="#282828" stroke="#282828" stroke-linecap="round" stroke-linejoin="round"/>
<path d="M81.7001 80.9267C85.3419 80.9267 88.9142 80.0678 92.5297 79.6298C92.6154 79.2691 92.315 78.9427 92.0321 78.7022C89.7787 76.7973 86.972 75.668 84.028 75.4817C80.5922 75.2756 75.2675 75.6535 72.0898 76.727C73.7989 79.8703 78.4109 80.9009 81.7001 80.9267Z" fill="#282828" stroke="#282828" stroke-linecap="round" stroke-linejoin="round"/>
<path d="M82.2562 64.2474C79.4982 63.4392 76.599 63.2314 73.7539 63.6376C74.6642 64.6167 75.0335 65.9736 75.755 67.0729C76.453 68.0664 77.3595 68.8954 78.4113 69.5021C79.4631 70.1089 80.6345 70.4786 81.844 70.5855C83.8452 70.8346 88.6548 71.1351 87.95 68.4728C87.4174 66.4975 84.0082 64.8314 82.2562 64.2474Z" fill="#282828" stroke="#282828" stroke-linecap="round" stroke-linejoin="round"/>
<path d="M104.613 80.1022C105.809 79.1532 106.881 78.0599 107.808 76.8473C110.453 73.2231 110.831 68.259 109.663 63.9648C107.447 69.7104 101.272 72.9482 98.129 78.2471C96.6994 80.6618 95.9547 83.4197 95.973 86.2255C96.9957 83.993 102.518 81.8542 104.613 80.1022Z" fill="#282828" stroke="#282828" stroke-linecap="round" stroke-linejoin="round"/>
<path d="M98.0091 91.9096C98.0857 91.4727 98.0374 91.0226 97.8701 90.6107C97.7037 90.1996 97.4241 89.8426 97.0647 89.5822C96.3349 89.0721 95.5028 88.7292 94.6257 88.5778C92.0487 87.9679 89.1887 87.7191 86.793 88.8782C86.0799 89.2302 85.4275 89.6945 84.7318 90.0889C81.9921 91.6267 78.2906 91.4719 75.7656 93.1295C77.5692 95.7057 83.6068 93.9283 86.1148 93.4557C87.1026 93.2668 98.0524 91.7465 98.0091 91.9096Z" fill="#282828" stroke="#282828" stroke-linecap="round" stroke-linejoin="round"/>
<path d="M101.357 99.7605C98.4112 101.195 95.2067 102.023 91.9349 102.196C88.663 102.368 85.3894 101.882 82.3086 100.766C86.0676 98.0222 90.5436 96.432 95.1909 96.1882C96.524 96.0501 97.8712 96.2265 99.1243 96.7033C99.7443 96.9546 100.281 97.374 100.675 97.9149C101.07 98.4549 101.306 99.094 101.357 99.7605Z" fill="#282828" stroke="#282828" stroke-linecap="round" stroke-linejoin="round"/>
</g>
<defs>
<clipPath id="clip0_116_161">
<rect width="319.533" height="228" fill="white"/>
</clipPath>
</defs>
</svg>
