<svg width="58" height="49" viewBox="0 0 58 49" fill="none" xmlns="http://www.w3.org/2000/svg">
<g clip-path="url(#clip0_2_16026)">
<g clip-path="url(#clip1_2_16026)">
<path d="M49.4414 27.6935C50.2301 27.2752 51.0723 26.8849 51.9667 26.8848C53.5724 26.8872 55.0079 28.4021 54.9174 29.99C54.4769 29.9935 54.0298 29.9902 53.5894 29.9937C54.7872 30.0541 55.5414 31.4396 55.3856 32.6236C55.3688 32.7641 55.3316 32.9108 55.2345 33.0093C55.082 33.1602 54.8385 33.1413 54.6226 33.1029C53.9884 32.9881 53.3844 32.7331 52.8506 32.3721C53.7103 32.7068 53.7534 34.0764 53.0095 34.6097C52.2654 35.1499 51.1267 34.8762 50.5329 34.1785C50.6346 34.1741 50.7362 34.1763 50.8447 34.1721" fill="#F5FCDE"/>
<path d="M49.4414 27.6935C50.2301 27.2752 51.0723 26.8849 51.9667 26.8848C53.5724 26.8872 55.0079 28.4021 54.9174 29.99C54.4769 29.9935 54.0298 29.9902 53.5894 29.9937C54.7872 30.0541 55.5414 31.4396 55.3856 32.6236C55.3688 32.7641 55.3316 32.9108 55.2345 33.0093C55.082 33.1602 54.8385 33.1413 54.6226 33.1029C53.9884 32.9881 53.3844 32.7331 52.8506 32.3721C53.7103 32.7068 53.7534 34.0764 53.0095 34.6097C52.2654 35.1499 51.1267 34.8762 50.5329 34.1785C50.6346 34.1741 50.7362 34.1763 50.8447 34.1721" stroke="#231F20" stroke-miterlimit="10" stroke-linecap="round" stroke-linejoin="round"/>
<path d="M21.323 2.88449C20.808 3.18154 20.2991 3.51227 19.9227 3.97344C19.5949 4.38203 19.3873 4.86711 19.2068 5.35279C18.6225 6.90952 18.233 8.53101 17.837 10.1457C17.3584 12.114 16.8796 14.089 16.4078 16.0575C16.2431 16.7381 19.8726 14.7533 20.2241 14.1976C21.1792 12.723 21.365 10.8219 22.1327 9.2491C23.2275 6.9994 26.0564 3.87621 25.195 1.25391C23.8615 1.49905 22.504 2.19986 21.323 2.88449Z" fill="#F5FCDE" stroke="#231F20" stroke-miterlimit="10" stroke-linecap="round" stroke-linejoin="round"/>
<path d="M11.0563 27.25C10.9443 27.7036 10.2704 28.138 9.8138 28.2553C7.27169 28.9093 4.73637 29.5637 2.19427 30.2177C1.78462 30.6513 1.92319 31.4058 2.35415 31.818C2.7851 32.2302 3.41194 32.3717 4.01416 32.4053C6.59172 32.5705 8.98017 31.2287 11.3476 30.2151C11.8471 29.9982 13.0732 29.7104 13.5483 29.9693" fill="#F5FCDE"/>
<path d="M11.0563 27.25C10.9443 27.7036 10.2704 28.138 9.8138 28.2553C7.27169 28.9093 4.73637 29.5637 2.19427 30.2177C1.78462 30.6513 1.92319 31.4058 2.35415 31.818C2.7851 32.2302 3.41194 32.3717 4.01416 32.4053C6.59172 32.5705 8.98017 31.2287 11.3476 30.2151C11.8471 29.9982 13.0732 29.7104 13.5483 29.9693" stroke="#231F20" stroke-miterlimit="10" stroke-linecap="round" stroke-linejoin="round"/>
<path d="M50.3564 42.749C50.1378 41.9391 49.5221 41.3081 48.8774 40.7636C47.887 39.9296 46.7851 39.2273 45.6121 38.6778C45.3372 38.5509 45.0038 38.3153 45.0985 38.0289C45.1347 37.9224 45.2247 37.8439 45.3142 37.7788C46.1891 37.1477 47.4031 37.0945 48.4245 37.4595C49.4458 37.8312 50.2893 38.5747 50.9611 39.415C52.2785 41.0613 54.0605 44.61 52.3837 46.5313C49.6002 49.7427 50.6248 43.748 50.3564 42.749Z" fill="#F5FCDE" stroke="#282828" stroke-miterlimit="10" stroke-linecap="round" stroke-linejoin="round"/>
<path d="M10.7805 26.8672C11.922 28.5029 13.3457 29.9436 14.972 31.1139L35.195 36.1898C39.9654 39.1212 46.5501 37.9673 51.138 41.1764C51.4514 41.3981 51.7643 41.6399 51.9668 41.9666C52.3332 42.5383 52.3303 43.256 52.3419 43.9339C52.3623 45.115 52.5292 46.4069 53.3843 47.2311C54.2395 48.0553 55.9967 47.9471 56.3411 46.8145L53.0146 46.8069C53.8214 47.3751 55.3513 46.8392 56.3411 46.8145C55.9544 43.5788 55.4019 41.3727 54.4981 38.2329C52.6026 38.1635 51.3192 36.2161 50.948 34.3762C50.5769 32.5364 50.7569 30.5882 50.1336 28.8099C49.345 26.5582 47.397 24.938 45.5277 23.4268C42.4078 20.9081 38.8576 18.2456 34.84 18.5379C32.0101 18.7428 29.424 20.4291 26.5833 20.5129C24.7189 20.5651 22.9111 19.9207 21.1574 19.2843C20.8618 19.1771 20.5262 19.0353 20.4314 18.738C20.3556 18.4948 20.463 18.2423 20.5767 18.0167C21.3639 16.478 22.5863 15.1636 24.0704 14.2644C25.1284 13.624 26.3174 13.181 27.2571 12.3837C28.6322 11.2069 29.2828 9.42358 29.8773 7.71949C30.1385 6.96725 30.407 6.18836 30.3165 5.40141C30.2261 4.61447 29.6685 3.81704 28.8712 3.72535C28.3305 3.66627 27.8165 3.92308 27.3495 4.19438C25.5299 5.25379 23.8996 6.62605 22.5484 8.23267C20.3546 10.8401 18.6162 14.2695 15.3287 15.229C13.2894 15.8205 10.854 15.3634 9.19783 16.6814C8.37681 17.3271 7.90733 18.3028 7.46585 19.2389C6.93175 20.3741 6.39101 21.5024 5.85691 22.6376C5.51515 23.3612 5.17094 24.1921 5.47941 24.9235C5.78158 25.6347 6.58666 25.9815 7.31941 26.2328C10.0485 27.1795 12.872 27.8466 15.736 28.2261L17.8232 29.0914C14.6409 31.67 10.9376 33.6264 7.00132 34.806C6.46889 35.5723 7.04579 36.7123 7.9189 37.0472C8.79201 37.3821 9.78756 37.1026 10.6106 36.6648C11.4337 36.2271 12.1723 35.6264 13.0345 35.2567C14.8135 34.4915 16.8458 34.7988 18.7793 34.6878C20.7127 34.5769 22.9199 33.7543 23.4297 31.9007L20.7018 34.4626C25.0031 36.5717 30.0151 37.2409 34.7313 36.3203C36.3986 35.9954 38.0432 35.4822 39.7376 35.4531" fill="#F5FCDE"/>
<path d="M56.3336 46.8082C55.9892 47.941 54.232 48.0492 53.3769 47.2249C52.515 46.4005 52.3548 45.1089 52.3345 43.9277C52.3229 43.2499 52.3257 42.532 51.9593 41.9603C51.7499 41.6403 51.4439 41.3919 51.1306 41.1703C46.5357 37.9678 39.9578 39.1217 35.1875 36.1836" stroke="#231F20" stroke-miterlimit="10" stroke-linecap="round" stroke-linejoin="round"/>
<path d="M39.735 35.4535C38.0406 35.4826 36.396 35.996 34.7286 36.321C30.0194 37.2354 25.0073 36.5727 20.6992 34.4629" stroke="#231F20" stroke-miterlimit="10" stroke-linecap="round" stroke-linejoin="round"/>
<path d="M23.4349 31.9011C22.9251 33.7547 20.7178 34.5773 18.7844 34.6882C16.851 34.7991 14.8187 34.492 13.0397 35.257C12.1775 35.6268 11.4457 36.221 10.6158 36.6652C9.79274 37.1029 8.79718 37.3825 7.92406 37.0476C7.05096 36.7127 6.48082 35.5729 7.00649 34.8065C10.9428 33.6268 14.6461 31.6704 17.8284 29.0918" stroke="#231F20" stroke-miterlimit="10" stroke-linecap="round" stroke-linejoin="round"/>
<path d="M14.9725 31.1144C13.3462 29.944 12.0752 28.9358 10.9336 27.3066L14.9725 31.1144Z" fill="#F5FCDE"/>
<path d="M14.9725 31.1144C13.3462 29.944 12.0752 28.9358 10.9336 27.3066" stroke="#231F20" stroke-miterlimit="10" stroke-linecap="round" stroke-linejoin="round"/>
<path d="M15.7437 28.2203C12.8797 27.8407 10.0562 27.1736 7.32713 26.2268C6.59453 25.9689 5.78929 25.6288 5.48714 24.9176C5.17881 24.1794 5.52302 23.3486 5.86463 22.6317C6.39874 21.4965 6.93946 20.3681 7.47356 19.2329C7.91504 18.2969 8.39129 17.3214 9.20554 16.6755C10.8685 15.3577 13.297 15.8213 15.3364 15.223C18.624 14.2636 20.3621 10.8409 22.5562 8.22679C23.9073 6.62017 25.5377 5.2479 27.3573 4.18848C27.8242 3.91719 28.345 3.66052 28.8789 3.71945C29.6762 3.81114 30.2339 4.60856 30.3243 5.39552C30.4147 6.18246 30.1529 6.96152 29.885 7.71359C29.2905 9.41768 28.64 11.201 27.2648 12.3777C26.325 13.1819 25.1361 13.6181 24.0781 14.2585C22.5941 15.1577 21.3716 16.472 20.5844 18.0109C20.4708 18.2364 20.3632 18.4956 20.4391 18.7321C20.534 19.0294 20.8694 19.1711 21.1651 19.2783C22.9189 19.9148 24.7198 20.5589 26.591 20.507C29.4318 20.4231 32.011 18.7368 34.8477 18.532C38.8653 18.2398 42.4155 20.9022 45.5354 23.4209C47.3981 24.9251 49.3527 26.5523 50.1413 28.804C50.7648 30.5757 50.5779 32.5237 50.9558 34.3703C51.3269 36.2102 52.6103 38.1577 54.5058 38.227C55.4028 41.3667 56.0767 43.3005 56.4702 46.5362" stroke="#231F20" stroke-miterlimit="10" stroke-linecap="round" stroke-linejoin="round"/>
<path d="M13.2773 20.1819C12.1628 20.036 11.0147 20.1715 9.96875 20.5781" stroke="#231F20" stroke-miterlimit="10" stroke-linecap="round" stroke-linejoin="round"/>
<path d="M5.67188 24.2725C5.82558 23.4769 6.686 22.8852 7.49584 23.0242" stroke="#231F20" stroke-miterlimit="10" stroke-linecap="round" stroke-linejoin="round"/>
</g>
</g>
<defs>
<clipPath id="clip0_2_16026">
<rect width="57" height="48" fill="white" transform="translate(0.6875 0.720703)"/>
</clipPath>
<clipPath id="clip1_2_16026">
<rect width="57" height="47.9524" fill="white" transform="translate(0.6875 0.744141)"/>
</clipPath>
</defs>
</svg>
