<svg width="1304" height="67" viewBox="0 0 1304 67" fill="none" xmlns="http://www.w3.org/2000/svg">
<path d="M1281.58 4.77395C1283.77 6.05272 1287.25 8.14875 1290.68 10.4521C1294.13 12.7625 1297.48 15.2565 1299.43 17.3311C1302.52 20.624 1303.42 24.1007 1302.94 27.5554C1302.46 31.0386 1300.59 34.5414 1298.04 37.8248C1292.95 44.3911 1285.33 49.9143 1281.58 52.4198C1280.22 53.33 1278.61 53.7907 1276.95 53.8216L725.557 64.102C725.532 64.1025 725.519 64.1029 725.511 64.1031L725.507 64.1033C725.505 64.1033 725.502 64.1034 725.474 64.1035C723.665 64.1068 393.684 64.7167 187.695 65.4946C100.919 65.8223 39.7263 63.0156 13.9128 61.5445C7.48247 61.1781 3.3969 54.6144 5.8189 48.6391L9.5124 39.527C10.0213 38.2715 10.2819 36.9286 10.2797 35.5724L10.2436 13.2609C10.2352 8.03515 14.6879 3.77607 19.9434 3.77382C136.052 3.72397 176.739 3.18851 217.427 2.65305L219.183 2.62995C260.467 2.08693 302.868 1.5511 425.11 1.5293L1276.99 3.54433C1278.61 3.54815 1280.19 3.95997 1281.58 4.77395Z" fill="#F5FCDE" stroke="#282828"/>
</svg>
