<svg width="352" height="436" viewBox="0 0 352 436" fill="none" xmlns="http://www.w3.org/2000/svg">
<g clip-path="url(#clip0_113_156)">
<path d="M11 13.5566H343V135.557L177 13.5566L11 135.557V13.5566Z" fill="#F5FCDE"/>
<path fill-rule="evenodd" clip-rule="evenodd" d="M7 434.557H345C348.314 434.557 351 431.871 351 428.557V131.016C351 129.116 350.1 127.328 348.573 126.196L181.254 2.17971C179.148 0.619111 176.273 0.605662 174.153 2.1465L3.47245 126.198C1.91911 127.327 1 129.131 1 131.052V428.557C1 431.871 3.68629 434.557 7 434.557ZM23 367.468H329C331.209 367.468 333 365.678 333 363.468V140.565C333 139.302 332.404 138.114 331.392 137.359L179.908 24.3249C178.5 23.2744 176.572 23.2654 175.154 24.3027L20.638 137.36C19.6085 138.114 19 139.313 19 140.588V363.468C19 365.678 20.7909 367.468 23 367.468Z" fill="#F5FCDE"/>
<path d="M345 434.057H7V435.057H345V434.057ZM350.5 428.557C350.5 431.595 348.038 434.057 345 434.057V435.057C348.59 435.057 351.5 432.147 351.5 428.557H350.5ZM350.5 131.016V428.557H351.5V131.016H350.5ZM348.275 126.598C349.675 127.635 350.5 129.274 350.5 131.016H351.5C351.5 128.957 350.525 127.02 348.87 125.794L348.275 126.598ZM180.956 2.5814L348.275 126.598L348.87 125.794L181.551 1.77802L180.956 2.5814ZM174.447 2.55096C176.391 1.13852 179.026 1.15085 180.956 2.5814L181.551 1.77802C179.27 0.0873698 176.156 0.0728003 173.859 1.74204L174.447 2.55096ZM3.76641 126.603L174.447 2.55096L173.859 1.74204L3.17849 125.794L3.76641 126.603ZM1.5 131.052C1.5 129.291 2.34252 127.637 3.76641 126.603L3.17849 125.794C1.49571 127.017 0.5 128.971 0.5 131.052H1.5ZM1.5 428.557V131.052H0.5V428.557H1.5ZM7 434.057C3.96243 434.057 1.5 431.595 1.5 428.557H0.5C0.5 432.147 3.41015 435.057 7 435.057V434.057ZM329 366.968H23V367.968H329V366.968ZM332.5 363.468C332.5 365.401 330.933 366.968 329 366.968V367.968C331.485 367.968 333.5 365.954 333.5 363.468H332.5ZM332.5 140.565V363.468H333.5V140.565H332.5ZM331.093 137.76C331.978 138.42 332.5 139.46 332.5 140.565H333.5C333.5 139.145 332.829 137.808 331.691 136.958L331.093 137.76ZM179.609 24.7257L331.093 137.76L331.691 136.958L180.207 23.9242L179.609 24.7257ZM175.449 24.7062C176.69 23.7985 178.377 23.8065 179.609 24.7257L180.207 23.9242C178.623 22.7423 176.454 22.7322 174.859 23.8992L175.449 24.7062ZM20.9333 137.764L175.449 24.7062L174.859 23.8992L20.3428 136.957L20.9333 137.764ZM19.5 140.588C19.5 139.472 20.0324 138.423 20.9333 137.764L20.3428 136.957C19.1845 137.804 18.5 139.153 18.5 140.588H19.5ZM19.5 363.468V140.588H18.5V363.468H19.5ZM23 366.968C21.067 366.968 19.5 365.401 19.5 363.468H18.5C18.5 365.954 20.5147 367.968 23 367.968V366.968Z" fill="#282828"/>
</g>
<defs>
<clipPath id="clip0_113_156">
<rect width="352" height="436" fill="white"/>
</clipPath>
</defs>
</svg>
