<svg width="39" height="39" viewBox="0 0 39 39" fill="none" xmlns="http://www.w3.org/2000/svg">
<g filter="url(#filter0_d_10_278)">
<ellipse cx="19.1088" cy="19.1088" rx="19.1088" ry="19.1088" transform="matrix(-1.02047 0 0 1.02047 39 0)" fill="white"/>
</g>
<path fill-rule="evenodd" clip-rule="evenodd" d="M19.1097 25.4538C18.7984 25.7588 18.3018 25.7638 17.9843 25.4651L16.8694 24.416C16.532 24.0985 16.5279 23.5635 16.8606 23.241L20.1172 20.0831C20.4463 19.7639 20.4463 19.2357 20.1172 18.9165L16.8606 15.7586C16.5279 15.436 16.532 14.9011 16.8694 14.5836L17.9843 13.5344C18.3018 13.2357 18.7984 13.2407 19.1097 13.5457L24.595 18.9194C24.9202 19.238 24.9202 19.7616 24.595 20.0802L19.1097 25.4538Z" fill="#78DD7E"/>
<defs>
<filter id="filter0_d_10_278" x="-6.50008" y="-3.24999" width="52.0001" height="51.9998" filterUnits="userSpaceOnUse" color-interpolation-filters="sRGB">
<feFlood flood-opacity="0" result="BackgroundImageFix"/>
<feColorMatrix in="SourceAlpha" type="matrix" values="0 0 0 0 0 0 0 0 0 0 0 0 0 0 0 0 0 0 127 0" result="hardAlpha"/>
<feOffset dy="3.18479"/>
<feGaussianBlur stdDeviation="3.18479"/>
<feColorMatrix type="matrix" values="0 0 0 0 0 0 0 0 0 0.0943116 0 0 0 0 0.203949 0 0 0 0.0756624 0"/>
<feBlend mode="normal" in2="BackgroundImageFix" result="effect1_dropShadow_10_278"/>
<feBlend mode="normal" in="SourceGraphic" in2="effect1_dropShadow_10_278" result="shape"/>
</filter>
</defs>
</svg>
