<svg width="16" height="16" viewBox="0 0 16 16" fill="none" xmlns="http://www.w3.org/2000/svg">
<path d="M7.60064 9.01165C12.5013 9.0118 15.2003 11.2868 15.2003 15.4162C15.2003 15.7387 14.9335 16 14.6047 16H0.595609C0.266827 16 4.22159e-05 15.7387 0 15.4162C0 11.2865 2.69967 9.01165 7.60064 9.01165ZM7.59966 10.1803C3.59237 10.1804 1.44695 11.7447 1.21281 14.8323H13.9885C13.7541 11.7446 11.6073 10.1803 7.59966 10.1803ZM7.59966 0C9.85091 0 11.5491 1.69875 11.5491 3.95143C11.549 6.26962 9.77701 8.15503 7.59966 8.15503C5.42258 8.15475 3.65135 6.26955 3.65117 3.95143C3.65117 1.6991 5.34864 0.000245581 7.59966 0ZM7.60064 1.16767C6.00244 1.16767 4.84239 2.33857 4.84239 3.95143C4.84245 5.62573 6.07967 6.98737 7.60064 6.98737C9.12143 6.98713 10.3588 5.62559 10.3589 3.95143C10.3589 2.36458 9.17306 1.16787 7.60064 1.16767Z" fill="#76E07B"/>
</svg>
