<svg width="164" height="154" viewBox="0 0 164 154" fill="none" xmlns="http://www.w3.org/2000/svg">
<g clip-path="url(#clip0_3_24808)">
<path d="M47.788 75.9699C51.4956 76.1896 55.1674 76.8221 58.735 77.8555C63.0556 79.323 67.1723 81.3332 70.9864 83.8379C77.0104 87.5649 82.7916 91.6711 88.2949 96.1313C80.2076 98.1706 71.7578 98.3092 63.6078 96.5363C55.4579 94.7634 47.8293 91.1272 41.3198 85.9127C37.7035 82.9578 34.1811 79.8124 30.6465 76.8243C35.1466 74.4039 42.73 75.5854 47.788 75.9699Z" fill="#F5FCDE" stroke="#282828" stroke-linecap="round" stroke-linejoin="round"/>
<path d="M89.8781 124.844C95.1668 123.783 99.8366 120.806 104.352 117.88C104.628 117.745 104.873 117.553 105.071 117.318C105.269 117.082 105.416 116.809 105.503 116.514C105.645 115.488 104.381 114.955 103.313 114.746C91.8258 112.661 80.125 112.004 68.4762 112.787C62.8488 113.323 57.3333 114.698 52.1133 116.867C64.8667 118.212 76.632 127.504 89.8781 124.844Z" fill="#F5FCDE" stroke="#282828" stroke-linecap="round" stroke-linejoin="round"/>
<path d="M87.8115 86.8694C88.4406 77.6368 93.882 69.5054 96.9188 60.7523C99.2467 53.9889 100.137 46.8139 99.5338 39.6864C103.91 43.3288 107.056 48.2329 108.541 53.7294C110.026 59.2258 109.779 65.0468 107.834 70.3976C106.783 72.9153 105.563 75.3583 104.181 77.7102C101.921 81.8474 97.7009 96.5774 93.9572 98.835C88.192 102.368 87.5336 91.0652 87.8115 86.8694Z" fill="#F5FCDE" stroke="#282828" stroke-linecap="round" stroke-linejoin="round"/>
<path d="M71.0683 65.9025C76.2766 86.7918 92.8658 102.748 108.609 117.27C113.392 121.708 118.372 126.264 124.569 128.383" stroke="#231F20" stroke-linecap="round" stroke-linejoin="round"/>
<path d="M52.7276 44.7369C49.7565 30.9128 51.2903 16.544 53.7767 2.64466L61.2128 12.0517C68.2408 20.905 75.3504 30.1364 77.4459 41.1707C79.7556 53.2186 76.7306 67.2264 75.5311 79.1208C71.9253 73.8879 65.7014 70.7862 61.7265 65.5168C57.3243 59.2858 54.2603 52.2106 52.7276 44.7369Z" fill="#F5FCDE" stroke="#282828" stroke-linecap="round" stroke-linejoin="round"/>
</g>
<defs>
<clipPath id="clip0_3_24808">
<rect width="102.239" height="128.159" fill="white" transform="translate(0.933594 87.7949) rotate(-59)"/>
</clipPath>
</defs>
</svg>
