<svg width="63" height="153" viewBox="0 0 63 153" fill="none" xmlns="http://www.w3.org/2000/svg">
<path d="M30.7311 19.1303C30.5175 22.4837 31.624 25.8243 34.8686 28.8156C36.4239 30.2397 38.9762 31.2343 41.1781 30.6923C42.1111 30.4555 42.9031 29.9731 43.5682 29.4501C49.6524 24.6581 46.671 17.9156 44.1571 12.0994C42.9893 9.35764 42.455 6.81818 42.1601 4.01255C41.7853 0.362539 39.2145 3.66523 37.883 5.13684C34.3933 9.02349 31.0536 14.0902 30.7311 19.1303Z" fill="#282828" stroke="#F5FCDE" stroke-width="0.86788" stroke-miterlimit="10" stroke-linecap="round" stroke-linejoin="round"/>
<path d="M19.3369 29.1091C16.5258 22.838 20.582 15.6558 17.4688 9.48438C17.7811 11.0744 19.2251 12.4015 20.8474 13.335C22.466 14.2889 24.2934 14.9598 25.8792 15.9508C30.6402 18.9032 32.499 23.9675 34.0421 28.6652C34.4844 29.9806 34.9228 31.3164 34.871 32.6585C34.8156 34.8229 33.5694 36.7555 32.0627 38.4358C31.5373 39.0272 30.6916 40.3485 29.7136 40.2139C28.9853 40.1191 27.8501 38.5247 27.3714 38.0687C24.4322 35.2797 20.9214 32.6529 19.3369 29.1091Z" fill="#282828" stroke="#F5FCDE" stroke-width="0.86788" stroke-miterlimit="10" stroke-linecap="round" stroke-linejoin="round"/>
<path d="M32.3303 35.5917C32.4482 35.3738 32.5622 35.1767 32.7046 34.9627C33.6697 33.5021 35.0867 32.3288 36.5409 31.226C39.5023 29.0073 42.7436 27.0481 46.1788 25.3998C49.6425 23.7345 53.5277 22.9111 57.008 21.2916C58.8197 20.4393 60.441 19.1263 60.8763 17.3877C60.9665 18.3706 60.3527 19.5858 60.0739 20.5099C58.9577 24.077 57.8382 27.7943 56.0738 31.1723C54.4968 34.2355 52.2859 36.6384 49.4022 38.848C46.4858 41.0955 43.4963 43.4604 39.6945 44.6414C36.9198 45.491 34.4824 45.6411 33.0383 43.2588C31.6189 40.8807 31.1029 38.0221 32.3303 35.5917Z" fill="#282828" stroke="#F5FCDE" stroke-width="0.86788" stroke-miterlimit="10" stroke-linecap="round" stroke-linejoin="round"/>
<path d="M33.027 47.5164C32.9719 43.4516 30.92 39.5436 28.382 36.1192C27.6206 35.0918 26.8034 34.0988 25.7791 33.2884C22.3489 30.5417 16.9574 30.0715 14.1406 26.8184C14.0562 29.1781 13.9479 31.534 13.8675 33.8729C13.783 36.2326 13.6906 38.6342 14.3817 40.9232C14.8993 42.5806 15.8067 44.1274 16.7182 45.6532C18.4104 48.4899 20.0985 51.3477 22.1212 53.9997C22.9065 55.0309 24.4686 57.2644 25.9992 57.4865C27.3389 57.6783 28.857 56.3019 29.7017 55.4872C31.949 53.3855 33.0647 50.3918 33.027 47.5164Z" fill="#282828" stroke="#F5FCDE" stroke-width="0.86788" stroke-miterlimit="10" stroke-linecap="round" stroke-linejoin="round"/>
<path d="M29.4366 50.5247C31.4335 45.6063 37.11 42.81 42.3415 40.419C45.2131 39.1019 48.1085 37.7886 51.2082 36.9407C54.2048 36.1194 57.4653 35.7082 60.0685 34.1321C57.6817 34.9637 56.3157 37.2346 55.7179 39.4546C55.0966 41.6709 54.9894 44.0124 54.0437 46.1337C53.1816 48.0736 51.6632 49.736 50.1806 51.3391C48.5112 53.1506 46.8377 54.983 45.1682 56.7944C42.4135 59.7962 37.3546 63.8376 32.4371 62.4271C27.4918 61.0338 28.0988 53.7953 29.4366 50.5247Z" fill="#282828" stroke="#F5FCDE" stroke-width="0.86788" stroke-miterlimit="10" stroke-linecap="round" stroke-linejoin="round"/>
<path d="M13.4867 65.1833C11.4227 58.8894 10.0178 52.4153 9.32031 45.9004C10.4552 48.1864 13.6466 48.8701 16.1824 49.9756C19.663 51.4947 22.2966 54.173 24.8412 56.7933C25.9865 57.9844 27.1561 59.1794 28.099 60.5138C31.0444 64.6892 31.2275 69.8502 28.1875 73.9717C25.4474 77.7024 20.0564 75.5939 17.3911 72.6913C15.3587 70.5255 14.3339 67.7964 13.4867 65.1833Z" fill="#282828" stroke="#F5FCDE" stroke-width="0.86788" stroke-miterlimit="10" stroke-linecap="round" stroke-linejoin="round"/>
<path d="M25.7623 75.7756C24.2929 73.7067 24.1225 71.1405 24.5559 68.7557C24.8104 67.4308 25.2357 66.1115 26.1495 65.0622C26.7217 64.3852 27.4885 63.8459 28.2712 63.3517C31.9024 61.0706 36.2206 59.8165 40.3404 58.3175C45.195 56.5726 49.871 54.4794 54.3127 52.0713C53.1882 53.1938 52.0797 54.3616 51.3763 55.7218C49.7511 58.813 50.247 62.498 48.8958 65.6966C48.3077 67.0966 47.3778 68.3568 46.4321 69.5718C45.1209 71.2834 43.7185 72.959 42.2722 74.6064C40.0113 77.1696 37.3574 79.4781 33.3412 79.4148C30.6002 79.3625 27.2318 77.8446 25.7623 75.7756Z" fill="#282828" stroke="#F5FCDE" stroke-width="0.86788" stroke-miterlimit="10" stroke-linecap="round" stroke-linejoin="round"/>
<path d="M30.4516 94.6134C34.8259 93.0062 38.8086 90.6244 41.443 87.3578C45.3618 82.4945 45.928 76.197 49.4958 71.1523C44.8468 72.7159 39.2889 72.3126 34.9154 74.3179C30.4013 76.3847 28.1102 80.5438 26.0983 84.454C24.9543 86.6593 21.7628 90.5492 22.5624 93.085C23.4556 95.8033 28.2068 95.4498 30.4516 94.6134Z" fill="#282828" stroke="#F5FCDE" stroke-width="0.86788" stroke-miterlimit="10" stroke-linecap="round" stroke-linejoin="round"/>
<path d="M21.1164 70.9952C16.9338 68.3402 11.1022 67.3482 8.33284 63.6064C5.82153 67.7982 4.90742 72.6887 5.78445 77.3987C6.66148 82.1088 9.33759 86.5975 13.2892 90.0621C14.5155 91.1249 15.9035 92.1287 17.5244 92.7042C19.1452 93.2797 21.0233 93.4306 22.5971 92.8136C27.2055 91.0294 27.2205 84.8109 27.3709 81.1531C27.5568 77.3105 24.7374 73.3068 21.1164 70.9952Z" fill="#282828" stroke="#F5FCDE" stroke-width="0.86788" stroke-miterlimit="10" stroke-linecap="round" stroke-linejoin="round"/>
<path d="M22.6484 95.0841C19.9417 113.726 14.3601 131.959 6.01708 149.474" stroke="#282828" stroke-miterlimit="10" stroke-linecap="round" stroke-linejoin="round"/>
</svg>
