<svg width="111" height="99" viewBox="0 0 111 99" fill="none" xmlns="http://www.w3.org/2000/svg">
<g clip-path="url(#clip0_82_46)">
<path d="M49.7324 43.249C65.7875 53.9235 80.8258 64.8334 93.0485 82.9383" stroke="#282828" stroke-width="1.5" stroke-miterlimit="10" stroke-linecap="round" stroke-linejoin="round"/>
<path d="M51.1797 32.5104L51.1781 32.5084C49.648 30.3238 47.4889 28.6582 45.2437 26.9301C42.349 24.7147 39.4892 22.545 36.1871 21.4531L36.1833 21.4516C31.0976 19.7383 25.4669 20.7143 20.0279 22.2716C20.6402 23.1669 21.0909 24.1448 21.4637 25.1325C21.7807 25.9732 22.0566 26.8683 22.323 27.7324C22.4683 28.2039 22.6107 28.6662 22.7555 29.1054C25.3281 36.8909 30.8254 43.6428 37.88 47.6856C39.5853 48.6583 41.3185 49.4291 43.1059 49.5106C49.0313 49.7771 52.4401 47.5747 53.726 44.4733C55.0371 41.3104 54.2809 36.9036 51.1797 32.5104Z" fill="#282828" stroke="#282828" stroke-width="1.5"/>
<path d="M76.3773 34.0357L76.3767 34.0321C75.9336 31.9367 75.0444 29.3568 73.7777 27.0287C72.5043 24.6873 70.8937 22.6828 69.0497 21.6309C68.3925 21.2581 67.6695 21.324 66.8204 21.8368C65.9507 22.3618 65.0505 23.3068 64.2053 24.4753C62.5135 26.8149 61.226 29.7894 60.9234 31.2364C60.4656 33.4363 60.7173 35.7391 61.176 38.063C62.5131 44.8203 65.6934 51.1706 70.2459 56.2522C70.6095 55.4425 71.0499 54.6823 71.509 53.9549C71.8086 53.4802 72.1211 53.0123 72.4271 52.5538C72.4611 52.5033 72.4948 52.4525 72.5286 52.4022C72.8687 51.8922 73.1998 51.3928 73.5097 50.888C76.5536 45.8963 77.6056 39.7068 76.3773 34.0357Z" fill="#282828" stroke="#282828" stroke-width="1.5"/>
<path d="M49.2623 59.6519C43.3419 62.86 38.4257 67.6906 33.8522 72.8035C36.0417 74.5264 38.2213 76.1258 40.7481 76.858C42.7621 77.4358 44.9369 77.4127 47.2037 77.3885L47.2455 77.3881C47.2451 77.3881 47.2459 77.3881 47.2455 77.3881C51.765 77.3229 56.2605 77.1804 60.0373 75.0861C61.7634 74.122 63.2987 72.7624 64.7094 71.2718C66.6361 69.191 68.3191 66.8436 69.1954 64.2384C69.4897 63.3562 69.8265 61.9843 69.9308 60.6438C69.983 59.9742 69.9754 59.3347 69.886 58.7791C69.7958 58.2201 69.6305 57.7924 69.404 57.4995C68.9927 56.9809 68.1099 56.6236 66.9165 56.4097C65.9257 56.232 64.8794 56.1771 64.0139 56.1316C63.8707 56.1241 63.7324 56.1168 63.6004 56.1094C58.6777 55.843 53.6934 57.2592 49.2623 59.6519Z" fill="#282828"/>
<path d="M47.2455 77.3881L47.2037 77.3885C44.9369 77.4127 42.7621 77.4358 40.7481 76.858C38.2213 76.1258 36.0417 74.5264 33.8522 72.8035C38.4257 67.6906 43.3419 62.86 49.2623 59.6519C53.6934 57.2592 58.6777 55.843 63.6004 56.1094C63.7324 56.1168 63.8707 56.1241 64.0139 56.1316C64.8794 56.1771 65.9257 56.232 66.9165 56.4097C68.1099 56.6236 68.9927 56.9809 69.404 57.4995C69.6305 57.7924 69.7958 58.2201 69.886 58.7791C69.9754 59.3347 69.983 59.9742 69.9308 60.6438C69.8265 61.9843 69.4897 63.3562 69.1954 64.2384C68.3191 66.8436 66.6361 69.191 64.7094 71.2718C63.2987 72.7624 61.7634 74.122 60.0373 75.0861C56.2605 77.1804 51.765 77.3229 47.2455 77.3881ZM47.2455 77.3881C47.2459 77.3881 47.2451 77.3881 47.2455 77.3881Z" stroke="#282828" stroke-width="1.5"/>
</g>
<defs>
<clipPath id="clip0_82_46">
<rect width="63.8159" height="91.1197" fill="white" transform="translate(0.640625 57.4883) rotate(-63)"/>
</clipPath>
</defs>
</svg>
