<svg width="88" height="43" viewBox="0 0 88 43" fill="none" xmlns="http://www.w3.org/2000/svg">
<g clip-path="url(#clip0_2_15925)">
<g clip-path="url(#clip1_2_15925)">
<path d="M24.3889 5.44522C24.3784 5.54529 24.3438 5.80736 24.3126 6.03131C24.2814 6.25526 24.2467 6.82228 24.2328 7.29877C24.212 8.06592 24.2016 8.17552 24.1323 8.33752C24.042 8.54718 24.0351 8.63771 24.108 8.66154C24.1496 8.67107 24.1218 8.79019 23.9727 9.20474C23.8271 9.61452 23.7265 9.81465 23.5357 10.0958C23.4005 10.2959 23.2341 10.5055 23.1682 10.5627C23.0156 10.6914 23.0156 10.8582 23.1647 10.882C23.2202 10.8915 23.2583 10.9249 23.2583 10.9725C23.2583 11.0297 23.2791 11.0392 23.3554 11.0154C23.4074 10.9963 23.4872 10.9725 23.5357 10.9678C23.5843 10.9582 23.6814 10.901 23.7542 10.8439C23.8236 10.7867 23.8825 10.7581 23.8825 10.7819C23.8791 10.9392 23.4525 11.8445 23.1162 12.4068C22.9774 12.6355 22.9497 12.7832 23.0225 12.8833C23.0884 12.9738 23.1266 12.9547 23.2861 12.7451C23.4213 12.564 23.4421 12.5497 23.5219 12.6021C23.6121 12.6545 23.6745 12.6402 23.6745 12.5545C23.6745 12.4783 23.8929 12.2257 23.9623 12.2257C23.9692 12.2257 23.9623 12.3162 23.9415 12.4258C23.8063 13.2358 23.6329 13.7743 23.2618 14.5509C23.1439 14.794 23.0502 15.0084 23.0502 15.0322C23.0502 15.0847 23.2098 15.2276 23.2687 15.2276C23.293 15.2276 23.3381 15.1752 23.3624 15.1085C23.404 14.9989 23.4109 14.9989 23.456 15.0751C23.4976 15.1513 23.5045 15.1513 23.5531 15.0656C23.5808 15.0132 23.6051 14.9465 23.6051 14.9226C23.6051 14.8797 23.6988 14.8131 23.9658 14.6605C23.9831 14.651 23.9554 14.7177 23.9068 14.8082C23.8548 14.8988 23.7577 15.1418 23.6884 15.3515C23.4352 16.0995 22.9046 17.043 22.322 17.7768C22.1798 17.9531 22.0619 18.1342 22.0619 18.177C22.0619 18.2819 22.1937 18.2962 22.322 18.2057C22.3948 18.1532 22.4676 18.1389 22.5508 18.1628C22.6445 18.1866 22.6896 18.1723 22.7485 18.0961C22.7902 18.0436 22.8977 17.9865 22.9843 17.9722C23.0745 17.9531 23.1716 17.9007 23.2028 17.8531C23.2375 17.8007 23.2895 17.772 23.3207 17.7863C23.3554 17.7958 23.4317 17.7435 23.4976 17.6624C23.6051 17.5338 23.7785 17.4623 23.7785 17.5481C23.7785 17.5957 23.5253 18.0389 23.3311 18.3248C23.0502 18.7441 23.0329 18.7679 22.9323 18.9537C22.8803 19.0538 22.8179 19.1348 22.7971 19.1348C22.7728 19.1348 22.6376 19.2968 22.4954 19.4922C22.3463 19.7018 22.2006 19.8591 22.1417 19.8734C22.0861 19.8925 22.0445 19.9353 22.0445 19.9782C22.0445 20.0926 21.84 20.4214 21.7879 20.3927C21.7221 20.3594 21.5938 20.5595 21.5938 20.6882C21.5938 20.8502 21.7567 21.0026 21.885 20.9645C21.944 20.9503 22.0133 20.9121 22.0376 20.8835C22.0688 20.8502 22.107 20.8549 22.1625 20.8978C22.2665 20.9693 22.4295 20.9073 22.6272 20.7072L22.7624 20.5738L22.8387 20.6739C22.9358 20.8121 22.9982 20.7549 23.1508 20.4071C23.2791 20.1116 23.3277 20.0783 23.3797 20.2403C23.404 20.3213 23.4456 20.3499 23.5357 20.3546C23.6953 20.3641 23.7438 20.3356 23.7438 20.2307C23.7438 20.1307 23.8097 20.0878 23.9588 20.0878C24.0663 20.0878 24.264 20.2212 24.264 20.2927C24.264 20.3165 24.2328 20.6024 24.1981 20.936C24.1392 21.4696 24.1288 21.8889 24.1149 24.4477L24.0976 27.3543L24.0108 27.8308C23.8964 28.455 23.7854 29.1935 23.7577 29.5461C23.7369 29.7606 23.678 29.975 23.5115 30.4181C23.2479 31.1376 23.1543 31.5426 23.1543 31.9858C23.1543 32.2907 23.1647 32.3384 23.2861 32.5766C23.397 32.8006 23.4629 32.8673 23.7612 33.0817C24.1045 33.3295 24.1114 33.3295 24.4305 33.3342C24.8813 33.3342 25.0165 33.2294 25.6026 32.4432C26.043 31.8524 26.0604 31.819 26.1714 31.4283C26.2789 31.0471 26.2823 31.009 26.2442 30.7564C26.2234 30.6135 26.206 30.2466 26.206 29.9464C26.206 29.6128 26.1852 29.3031 26.154 29.1411C26.1263 28.9982 26.0708 28.6313 26.0361 28.3263C25.9737 27.8165 25.9737 27.745 26.0222 27.4258C26.0708 27.1113 26.0708 27.0398 26.0187 26.7158C25.9875 26.5157 25.9321 25.7723 25.8939 25.0671C25.8558 24.3572 25.7968 23.6186 25.7656 23.4232C25.724 23.1707 25.7067 22.8276 25.7032 22.2558C25.6997 21.4601 25.6963 21.441 25.5922 21.1122C25.5263 20.9026 25.4778 20.6548 25.4639 20.4452C25.45 20.2593 25.4084 19.8686 25.3703 19.5684C25.3079 19.0776 25.3079 19.0157 25.3564 18.949C25.4015 18.8823 25.4188 18.8823 25.5124 18.9585C25.6165 19.0443 25.7309 19.0157 25.7621 18.8918C25.7726 18.8537 25.8072 18.8585 25.8835 18.9156C26.0292 19.0157 26.1263 19.0109 26.1506 18.9061C26.1679 18.8442 26.0742 18.6821 25.8038 18.2962C25.6026 18.0103 25.398 17.6958 25.3495 17.5957C25.3009 17.5004 25.2489 17.4195 25.2385 17.4195C25.2038 17.4195 25.0859 17.1335 25.1067 17.1002C25.1171 17.0907 25.1587 17.1002 25.2004 17.1335C25.2385 17.1622 25.3044 17.1812 25.3425 17.1717C25.3876 17.1622 25.4257 17.1955 25.4535 17.2717C25.5228 17.4576 25.5992 17.5004 25.7101 17.4147C25.8003 17.3432 25.8142 17.3432 25.9113 17.4242C25.9702 17.4766 26.0604 17.5147 26.1124 17.5147C26.1748 17.5147 26.2373 17.5576 26.2754 17.6196C26.3309 17.7149 26.3447 17.7196 26.4245 17.6624C26.4939 17.61 26.5355 17.61 26.6361 17.6577C26.9031 17.7768 26.8996 17.5529 26.6326 17.2717C26.1332 16.7619 25.6165 15.9518 25.2974 15.1942C25.2038 14.9608 25.0859 14.7035 25.0408 14.6177C24.9298 14.4223 24.9923 14.4175 25.2004 14.6129C25.3009 14.7082 25.3807 14.7463 25.4292 14.732C25.4708 14.7177 25.5124 14.7273 25.5194 14.7559C25.5367 14.8321 25.7448 14.7606 25.7691 14.6701C25.783 14.6224 25.7413 14.5128 25.6616 14.3842C25.2073 13.6361 24.9541 13.0977 24.8189 12.5688C24.7738 12.4068 24.7253 12.2733 24.7044 12.2733C24.6836 12.2733 24.6767 12.2638 24.6871 12.2495C24.7253 12.1923 24.8848 12.2876 24.9056 12.3734C24.9194 12.421 24.968 12.4783 25.0165 12.4925C25.0616 12.5116 25.1414 12.5783 25.1865 12.6402C25.2558 12.7356 25.2836 12.7451 25.3217 12.7022C25.3495 12.6688 25.3737 12.6117 25.3737 12.5783C25.3737 12.5306 25.4084 12.5164 25.4847 12.5211C25.6651 12.5402 25.6547 12.3829 25.4708 12.178C25.2662 11.9493 24.7495 11.2679 24.7495 11.2203C24.7495 11.2012 24.7842 11.1774 24.8293 11.1679C24.9472 11.144 24.9437 10.9773 24.8154 10.7724C24.7391 10.6533 24.7149 10.5866 24.7391 10.5532C24.7669 10.5151 24.7981 10.5198 24.8466 10.5532C24.9472 10.6294 25.0269 10.6199 25.0269 10.5294C25.0269 10.4722 25.0547 10.4627 25.183 10.4913C25.3356 10.5198 25.3425 10.5151 25.3772 10.3769C25.398 10.2959 25.4362 10.2197 25.4639 10.2054C25.5644 10.153 25.5055 10.0338 25.3009 9.88612C25.0581 9.70505 24.8258 9.37151 24.6975 9.01414C24.5241 8.52335 24.3819 6.93664 24.4201 5.89789C24.4443 5.27369 24.4305 5.10691 24.3889 5.44522Z" fill="#282828"/>
<path d="M9.95595 7.02268C9.83458 7.14657 9.68892 7.2371 9.49125 7.31334C9.33173 7.37052 9.05081 7.52776 8.86354 7.65165C8.33298 8.01855 7.89949 8.14244 6.89724 8.21868C6.26608 8.26632 6.24877 8.27109 5.62454 8.66657C5.3263 8.8524 5.16331 9.00012 4.87894 9.32413C3.99116 10.3343 3.55767 11.1634 3.11031 12.7024L2.97159 13.1789V14.9276L3.2629 15.7568C3.51259 16.4667 3.59235 16.6478 3.81429 16.9909C3.95301 17.2148 4.1923 17.5484 4.34488 17.7342C4.59804 18.0439 4.63966 18.0773 4.91362 18.1773C5.14597 18.2631 5.24654 18.3298 5.38179 18.4871C5.47889 18.5967 5.66615 18.792 5.79793 18.9207C5.93319 19.0493 6.16552 19.2971 6.31813 19.4686C6.56435 19.7498 6.61981 19.7926 6.82098 19.845C7.02905 19.9022 7.06371 19.9261 7.27178 20.2072C7.45904 20.455 7.55961 20.5503 7.86133 20.7313C8.16652 20.9124 8.26362 21.0029 8.4682 21.2745C8.60346 21.4508 8.79073 21.6748 8.88784 21.7701C8.98495 21.8654 9.13406 22.0464 9.22422 22.1751C9.31093 22.3085 9.46695 22.4801 9.56756 22.5563C9.73397 22.6897 9.75828 22.7326 9.83458 23.0042C9.87964 23.171 9.9941 23.5093 10.0843 23.7618C10.1744 24.0143 10.2819 24.3955 10.3235 24.61C10.3651 24.8435 10.438 25.0817 10.4969 25.196C10.5698 25.3343 10.601 25.4486 10.601 25.5772C10.601 25.7917 10.6773 26.0728 10.7813 26.2205C10.8333 26.2967 10.8472 26.3587 10.8298 26.4587C10.7501 26.9067 10.7362 27.1115 10.7536 27.6309C10.764 27.9502 10.7813 28.3314 10.7917 28.4743C10.8125 28.7269 10.8056 28.765 10.6426 29.1938C10.549 29.4463 10.4345 29.7275 10.3859 29.8132C10.3374 29.9038 10.2091 30.1992 10.1016 30.4756C9.81028 31.2141 9.61956 31.4476 9.22077 31.5667C8.9988 31.6287 8.92944 31.6763 8.73522 31.8907C8.56881 32.0766 8.30868 32.2147 8.04515 32.2672C7.89254 32.291 7.85788 32.2815 7.79543 32.1957C7.70182 32.067 7.52495 32.067 7.42784 32.1909C7.36889 32.2672 7.33423 32.2815 7.26487 32.2434C7.21977 32.2195 7.01865 32.21 6.81748 32.2243C6.28693 32.2624 5.71123 32.1242 5.71123 31.9574C5.71123 31.8145 5.57599 31.6239 5.38872 31.4953C4.8512 31.1236 4.33101 30.5089 4.03277 29.8799C3.88365 29.5702 3.56114 28.5743 3.56114 28.4219C3.56114 28.3075 3.48138 28.0836 3.41202 28.0073C3.38428 27.974 3.30105 27.8072 3.22822 27.6309C3.00974 27.1211 2.66295 26.7875 2.28842 26.7256C2.1497 26.7065 2.10809 26.6779 2.06301 26.5636C1.88961 26.149 1.40064 26.1205 1.16135 26.5112C1.02264 26.7399 0.984491 26.9591 1.0053 27.4213C1.01917 27.7215 1.05732 27.9597 1.14748 28.317C1.21684 28.5839 1.27233 28.865 1.27233 28.9365C1.27233 29.089 1.37636 29.4273 1.4804 29.6036C1.51855 29.6703 1.54976 29.7751 1.54976 29.8371C1.54976 29.899 1.59137 30.0182 1.64686 30.1039C1.69888 30.1897 1.76823 30.3421 1.80291 30.4422C1.86187 30.6185 2.03527 30.8091 2.14277 30.8091C2.17398 30.8091 2.24334 30.8853 2.29189 30.9759C2.40633 31.1808 2.54851 31.2856 2.71497 31.2856C2.82247 31.2856 2.91264 31.3618 3.29758 31.7573C4.27899 32.7723 4.85813 33.1916 5.66962 33.4727C6.33543 33.7062 7.19897 33.7014 7.53535 33.4584C7.64981 33.3774 7.87519 33.3012 8.24282 33.2106C8.81848 33.0772 9.34903 32.839 9.56061 32.6293C9.85188 32.3386 10.3305 31.6382 10.4345 31.3571C10.4934 31.1999 10.6287 30.933 10.7397 30.7614C10.9027 30.5089 10.9547 30.3803 11.0345 30.0467C11.09 29.8228 11.2148 29.3987 11.3154 29.1081C11.5581 28.3981 11.6205 27.974 11.6101 27.1449C11.6032 26.5445 11.5928 26.4826 11.4645 25.9584C11.3882 25.6535 11.2876 25.2818 11.2425 25.1341C11.1975 24.9816 11.135 24.6815 11.1004 24.4623C11.0206 23.9334 10.8368 23.3711 10.5386 22.723C10.3929 22.4086 10.2715 22.075 10.2368 21.913C10.1883 21.67 10.1606 21.6176 10.0288 21.5032C9.94554 21.427 9.78253 21.2269 9.66117 21.0506C9.26928 20.4693 8.92944 20.0928 8.41619 19.6735C7.83703 19.2018 7.5388 18.9111 7.15041 18.4442C6.99785 18.2583 6.75507 18.0058 6.61291 17.8867C6.4707 17.7628 6.24182 17.5389 6.11006 17.3816C5.9748 17.2291 5.68002 16.9194 5.44767 16.6954C4.97604 16.2285 4.87201 16.0522 4.66046 15.3565C4.55642 15.0134 4.52522 14.8324 4.494 14.4035L4.45585 13.8698L4.71248 13.0979L4.96563 12.3308L5.41646 11.759C5.94359 11.0967 6.28343 10.806 6.88339 10.5106C7.27528 10.32 7.28218 10.32 7.77808 10.32C8.07286 10.32 8.43354 10.2867 8.64856 10.2437C9.00575 10.1628 9.0196 10.1675 9.22767 10.2628C9.34213 10.3152 9.53285 10.3867 9.64731 10.4201C9.93164 10.501 9.9594 10.5249 10.0045 10.7393C10.0773 11.0633 10.601 11.5303 11.2356 11.84C11.5304 11.983 11.8217 12.0306 11.9049 11.9496C11.9257 11.9305 12.0055 11.7971 12.0818 11.6542L12.2239 11.3921L12.1927 11.0348C12.0818 9.68627 12.002 9.33366 11.7142 8.91435C11.4159 8.48074 11.3015 8.25203 11.2079 7.86607C11.1316 7.56588 11.0761 7.43246 10.9373 7.2371C10.7744 7.00362 10.7501 6.98933 10.5178 6.93691C10.3825 6.90832 10.2403 6.87497 10.1987 6.86544C10.1536 6.85114 10.0635 6.90832 9.95595 7.02268Z" fill="#282828"/>
<path d="M53.9777 8.62911C53.6589 8.69106 53.6312 8.70535 53.3677 8.95789C53.1908 9.12943 53.0557 9.22473 52.993 9.22473C52.9376 9.22473 52.8127 9.23902 52.7155 9.25331C52.5493 9.2819 52.5352 9.2962 52.4418 9.52491C52.3898 9.65833 52.3237 9.89658 52.2994 10.0538C52.2542 10.335 52.2576 10.354 52.3582 10.7066L52.4623 11.0688L52.4103 11.388C52.3621 11.6691 52.3621 11.7358 52.4103 12.017C52.4696 12.3696 52.473 12.3457 52.2474 13.1701L52.1123 13.6561V14.4327C52.1123 15.1618 52.1016 15.2809 51.9354 16.4912C51.7551 17.8206 51.7274 18.1875 51.6613 20.0887C51.6336 20.8273 51.6059 21.1942 51.5607 21.4229C51.5228 21.5945 51.4844 21.9565 51.4708 22.2281C51.4601 22.4998 51.4221 22.9191 51.3876 23.1573C51.3492 23.3955 51.3113 23.772 51.3006 23.9959C51.287 24.2199 51.2452 24.5772 51.2073 24.7964C51.1723 25.0156 51.1412 25.2872 51.1412 25.4016C51.1412 25.5112 51.1067 25.8161 51.0683 26.0734C51.027 26.3355 50.9818 26.8549 50.9677 27.2361C50.9468 27.7507 50.9157 28.0509 50.8462 28.4035C50.7495 28.88 50.7495 28.88 50.7461 30.6239L50.7422 32.3631L50.9643 32.8634C51.0824 33.135 51.2311 33.4305 51.2904 33.5115C51.6336 34.007 52.2022 33.4876 52.0326 32.8349C52.0049 32.7253 51.9009 32.4965 51.8037 32.3202C51.7065 32.1392 51.6268 31.9486 51.6268 31.8914C51.6268 31.8342 51.6443 31.5293 51.6613 31.2148C51.6822 30.9003 51.7133 30.1617 51.7308 29.5709C51.7653 28.3797 51.8936 26.9169 52.0292 26.1926C52.0739 25.9496 52.1123 25.6112 52.1123 25.4445C52.1123 25.0442 52.2615 23.834 52.3689 23.3336C52.4209 23.1097 52.4589 22.8285 52.4589 22.6999V22.4712H52.7505C53.0382 22.4712 53.0484 22.4759 53.3468 22.7142C53.5131 22.8428 53.7736 23.0954 53.9223 23.2717C54.2309 23.629 55.0081 24.9108 55.3964 25.7161C55.5316 25.9924 55.7571 26.3974 55.8956 26.6214C56.0346 26.8406 56.2912 27.2694 56.4643 27.5697C56.6621 27.9079 56.9984 28.3892 57.3454 28.8323C57.6541 29.223 58.0356 29.7615 58.1916 30.0235C58.3442 30.2856 58.5727 30.6525 58.6976 30.8336C58.8225 31.0194 59.0028 31.3482 59.0932 31.5674C59.4018 32.2964 60.0293 33.4019 60.3797 33.826C60.9484 34.5169 61.6522 35.1458 61.8568 35.1458C61.9263 35.1458 61.9992 35.122 62.0201 35.0934C62.1275 34.9457 61.8189 34.3358 61.2259 33.5353C60.7093 32.8349 60.4629 32.4251 60.1056 31.6436C59.7727 30.9146 59.6308 30.5239 59.4816 29.9092C59.4261 29.6757 59.3046 29.3326 59.1938 29.0991C58.9649 28.6084 58.493 27.3981 58.3369 26.9025C58.2781 26.7072 58.0458 26.1258 57.8237 25.6112C57.4183 24.6678 57.1617 23.9006 57.0193 23.2097C56.9775 23.0001 56.8842 22.6189 56.8147 22.3616C56.7175 21.9947 56.6898 21.8279 56.6898 21.5658C56.6898 21.2514 56.6932 21.2323 56.8045 21.1179C56.8633 21.056 57.0261 20.9226 57.1578 20.8225C57.2934 20.7272 57.5015 20.5318 57.6264 20.3984C57.7508 20.265 57.9311 20.0792 58.0317 19.9886C58.4098 19.636 58.7846 18.7974 58.8886 18.0541C58.9163 17.8492 58.9576 17.4013 58.9785 17.0535C58.9994 16.7104 59.0412 16.2816 59.0689 16.1005C59.1554 15.543 59.2142 14.7901 59.1797 14.6329C59.1622 14.5566 59.152 14.285 59.1554 14.0373C59.1588 13.6227 59.152 13.556 59.0514 13.2558C58.9717 13.0081 58.944 12.8603 58.944 12.6459C58.944 12.2552 58.7603 11.5595 58.4551 10.7781C58.0769 9.82034 57.6988 9.33432 57.0125 8.93883C56.5129 8.64817 56.3014 8.61005 55.1291 8.58146C54.5469 8.56717 54.2173 8.58146 53.9777 8.62911ZM55.6808 10.7971C55.8261 10.8734 56.0346 10.9735 56.1454 11.0163C56.3257 11.0831 56.3568 11.1116 56.4818 11.3689L56.6203 11.6501V12.3314C56.6203 12.908 56.631 13.0367 56.683 13.1558C56.7452 13.2987 56.7452 13.313 56.683 13.6799L56.6203 14.0564L56.8006 14.8092L56.6446 15.2238L56.4852 15.6335L56.4609 16.3244C56.4472 16.7056 56.4229 17.0678 56.4089 17.1249C56.388 17.1964 56.3918 17.306 56.4157 17.4203C56.4506 17.5824 56.4472 17.6396 56.3811 17.8635C56.298 18.1446 56.0623 18.4448 55.5977 18.8594C55.3892 19.0452 55.306 19.0881 55.0251 19.1548C54.4531 19.293 53.9573 19.474 53.7736 19.6122C53.6001 19.7409 53.5928 19.7409 53.4022 19.6742C53.2807 19.6313 53.1558 19.5455 53.0795 19.455L52.9512 19.3025L52.9794 19.0071C52.993 18.8451 52.993 18.6259 52.9794 18.5115C52.941 18.2257 52.9964 17.4537 53.0868 17.063C53.1247 16.8772 53.2219 16.5103 53.2948 16.2434C53.482 15.562 53.7109 14.1135 53.742 13.394C53.7736 12.6983 53.9155 11.8311 54.0613 11.4309L54.1687 11.1354L54.5989 10.9353C54.8414 10.8257 55.0601 10.7495 55.1048 10.7638C55.1466 10.7781 55.2195 10.759 55.2681 10.7257C55.3858 10.6351 55.3823 10.6351 55.6808 10.7971Z" fill="#282828"/>
<path d="M63.2551 14.3468C63.1336 14.3801 63.0228 14.423 63.0053 14.4421C62.9844 14.4564 62.773 14.504 62.5271 14.5421C61.8646 14.6565 61.6148 14.8566 61.4208 15.4427C61.3027 15.7905 61.2993 16.0478 61.3999 16.4671C61.5006 16.8769 61.9132 17.5631 62.2495 17.8823C62.4712 18.0968 62.5028 18.111 62.7453 18.1253C63.1477 18.1539 63.2206 18.1206 63.4632 17.787C63.6192 17.5726 63.7023 17.4154 63.7582 17.2152C63.8724 16.8007 63.8583 16.6148 63.6955 16.2432C63.4943 15.7858 63.505 15.6619 63.7616 15.214C64.0075 14.7899 64.0391 14.6374 63.9312 14.4516C63.8656 14.342 63.817 14.3134 63.661 14.2991C63.557 14.2848 63.3732 14.3087 63.2551 14.3468Z" fill="#282828"/>
<path d="M27.7134 20.1081C27.5851 20.1891 27.5019 20.2892 27.4187 20.4512C27.3112 20.6704 27.3008 20.7133 27.3008 21.0659C27.3008 21.4804 27.3389 21.5996 27.6198 22.076C27.6857 22.1856 27.7655 22.3905 27.8001 22.5335C27.8903 22.8861 27.9978 23.1672 28.1504 23.4483C28.3723 23.8581 28.4174 24.0249 28.4729 24.6634C28.5111 25.0923 28.5562 25.3543 28.629 25.6021C28.7295 25.9261 29.1665 27.7511 29.3295 28.523C29.3711 28.7184 29.4543 29.0042 29.5098 29.1567C29.5653 29.3139 29.6416 29.5712 29.6797 29.738C29.7144 29.9001 29.7872 30.1621 29.8358 30.3146C30.0647 31.0198 30.1965 31.5058 30.2138 31.7345C30.2762 32.4874 30.3456 32.7876 30.5329 33.1307C30.6404 33.3212 30.897 33.4404 31.0912 33.3832C31.2472 33.3355 31.5628 32.8829 31.5975 32.6589C31.6287 32.435 31.6218 32.0776 31.5802 31.9156C31.5386 31.7488 31.594 31.2199 31.7293 30.5242C31.7639 30.3289 31.8056 30.0287 31.816 29.8571C31.8298 29.6666 31.8957 29.333 31.9859 28.99C32.0691 28.6802 32.1385 28.4134 32.1385 28.3896C32.1385 28.3324 32.4194 27.2984 32.6344 26.5694C32.7384 26.2167 32.8459 25.8308 32.8702 25.7117C32.8945 25.5926 32.943 25.4305 32.9777 25.3543C33.0124 25.2733 33.0402 25.1494 33.0402 25.078C33.0402 24.9969 33.0991 24.8254 33.1927 24.6491C33.2759 24.4871 33.4147 24.1774 33.5049 23.963C33.595 23.7485 33.7649 23.4293 33.8828 23.2482C34.2366 22.7193 34.3128 22.3477 34.1152 22.1475C33.9244 21.9522 33.8794 21.9903 33.5603 22.5954C33.3973 22.9004 33.1789 23.2625 33.0748 23.396C32.9604 23.5341 32.8529 23.7295 32.8147 23.8534C32.7766 23.9725 32.6968 24.1535 32.6344 24.2631C32.572 24.368 32.4957 24.5395 32.4644 24.6443C32.4332 24.7444 32.3569 24.9493 32.2911 25.097C32.2044 25.2971 32.1732 25.421 32.1732 25.583C32.1732 25.745 32.142 25.8737 32.0553 26.0786C31.9894 26.231 31.8853 26.5265 31.8229 26.7361C31.7605 26.9458 31.6842 27.1698 31.653 27.2364C31.6218 27.3032 31.542 27.5366 31.4796 27.7606C31.3201 28.3181 31.1848 28.7041 31.112 28.8136C31.0565 28.8994 31.0496 28.8994 31.008 28.8184C30.9351 28.6897 30.949 28.3419 31.0322 28.1561C31.1016 28.0084 31.1051 27.9464 31.0843 27.5843C31.0739 27.3603 31.0322 26.9696 30.9976 26.7171C30.9594 26.4645 30.9212 26.1501 30.9074 26.0119C30.897 25.8737 30.8657 25.6736 30.838 25.564C30.8103 25.4543 30.786 25.2447 30.786 25.097C30.786 24.9493 30.7721 24.7111 30.7548 24.5681C30.7132 24.2346 30.7513 23.9534 30.8658 23.7199C30.9872 23.4722 31.0045 23.3197 30.9455 23.029C30.9178 22.8956 30.8831 22.6621 30.8692 22.5192C30.8345 22.1332 30.727 21.9331 30.4427 21.7377C30.2589 21.6091 30.134 21.4662 29.8809 21.0992C29.3954 20.3988 29.0555 20.151 28.4105 20.0462C27.977 19.9747 27.9146 19.9795 27.7134 20.1081Z" fill="#282828"/>
<path d="M65.7017 20.1018C65.5909 20.1733 65.5005 20.2876 65.414 20.4544C65.2959 20.6831 65.2891 20.7212 65.2891 21.0595C65.2891 21.455 65.3202 21.5551 65.605 22.0697C65.6808 22.2031 65.7678 22.427 65.8057 22.57C65.8927 22.9226 66.0001 23.2037 66.1561 23.4944C66.3744 23.8899 66.4196 24.071 66.4682 24.6618C66.4993 25.0907 66.5377 25.3098 66.6417 25.6624C66.7632 26.096 67.1758 27.8162 67.3353 28.569C67.3771 28.7644 67.4461 29.0026 67.4845 29.0932C67.5258 29.1837 67.6162 29.4839 67.6857 29.7603C67.7547 30.0366 67.8971 30.537 68.0011 30.88C68.1397 31.3279 68.1989 31.59 68.216 31.8282C68.2646 32.481 68.3929 32.9813 68.5766 33.2053C68.6738 33.3292 68.9202 33.4292 69.0451 33.3959C69.2045 33.3577 69.2911 33.272 69.4471 33.0004C69.5652 32.8003 69.5861 32.724 69.6065 32.4429C69.6206 32.2142 69.6138 32.0617 69.5788 31.9283C69.5477 31.7996 69.5409 31.69 69.5618 31.5948C69.5754 31.5137 69.6065 31.2993 69.6274 31.1183C69.6483 30.9324 69.6935 30.6465 69.728 30.475C69.7625 30.3035 69.8009 30.0271 69.8111 29.8555C69.8252 29.684 69.8947 29.3076 69.9671 29.0217C70.0434 28.7311 70.1684 28.2403 70.252 27.9258C70.3317 27.6113 70.4736 27.1062 70.564 26.806C70.6539 26.5058 70.772 26.0865 70.8206 25.8769C70.8726 25.6672 70.9455 25.4146 70.98 25.3193C71.0145 25.2193 71.0456 25.0954 71.0456 25.0382C71.0456 24.9763 71.1292 24.7571 71.2298 24.5475C71.3339 24.333 71.4899 23.9947 71.5798 23.7898C71.6702 23.5849 71.8228 23.3181 71.9161 23.1894C72.0828 22.9655 72.2248 22.6034 72.2248 22.408C72.2248 22.2603 72.0585 22.0411 71.9438 22.0411C71.8641 22.0411 71.8053 22.1221 71.5628 22.5748C71.4068 22.8702 71.188 23.2275 71.0772 23.3753C70.9659 23.5182 70.8483 23.7231 70.8172 23.8279C70.7856 23.9328 70.6991 24.1281 70.6262 24.2615C70.5533 24.395 70.4911 24.5236 70.4911 24.5475C70.4911 24.5713 70.4216 24.7619 70.3351 24.9668C70.2136 25.2669 70.179 25.3908 70.179 25.5671C70.179 25.7339 70.1513 25.8435 70.0716 26.0246C70.0089 26.1532 69.9015 26.4534 69.8286 26.6917C69.7557 26.9299 69.6658 27.1967 69.6274 27.2873C69.5895 27.3778 69.4957 27.6732 69.416 27.9448C69.1593 28.8359 69.083 28.9884 68.9858 28.7882C68.9061 28.6167 68.9168 28.4261 69.0208 28.1735C69.1073 27.9591 69.1073 27.9496 69.0689 27.4636C69.0485 27.192 69.0101 26.8441 68.9824 26.6869C68.9581 26.5297 68.927 26.2628 68.9129 26.096C68.8993 25.9245 68.8575 25.672 68.823 25.529C68.7744 25.3289 68.7535 25.1049 68.7501 24.5856L68.7399 23.9042L68.8332 23.7708C68.9581 23.5897 69.0033 23.3086 68.9406 23.0656C68.9168 22.9655 68.8852 22.7606 68.875 22.6177C68.8439 22.1602 68.7467 21.9696 68.4206 21.7266C68.1537 21.5265 67.9141 21.2311 67.7027 20.8356C67.6162 20.6736 67.2833 20.3781 67.0232 20.2399C66.7836 20.1065 66.5586 20.0494 66.1663 20.0208C65.8995 19.997 65.8407 20.0065 65.7017 20.1018Z" fill="#282828"/>
<path d="M62.2206 20.7646C62.033 20.8456 61.9985 20.879 61.9187 21.0791C61.7836 21.4222 61.7418 21.6366 61.787 21.7557C61.8079 21.8129 61.8565 22.1512 61.8944 22.5038C61.9499 23.0565 61.9533 23.2185 61.9222 23.6045C61.8599 24.3193 61.8978 25.2675 62.0126 25.7821C62.1093 26.2252 62.1963 26.4015 62.3975 26.573C62.5914 26.735 62.6191 26.9066 62.6298 27.9978C62.64 28.9936 62.6852 29.8275 62.7751 30.5946C62.8028 30.8281 62.8344 31.1616 62.8446 31.3332C62.8587 31.5047 62.8792 31.8144 62.8932 32.0241C62.9069 32.2719 62.9453 32.4767 62.9939 32.6054C63.0352 32.715 63.0702 32.8913 63.0702 32.9961C63.0702 33.101 63.1013 33.2821 63.1397 33.3916C63.1776 33.506 63.2398 33.768 63.2782 33.9825C63.3613 34.4256 63.4585 34.6686 63.5484 34.6686C63.6388 34.6686 63.7496 34.5447 63.7948 34.3875C63.8294 34.2731 63.8293 34.2255 63.7846 34.1064C63.753 34.0253 63.7287 33.8729 63.7287 33.7728C63.7287 33.668 63.7049 33.506 63.6767 33.4155C63.649 33.3202 63.6247 33.1486 63.6247 33.039C63.6247 32.9247 63.5936 32.6817 63.5557 32.5006C63.5071 32.2576 63.4862 32.0241 63.4862 31.6524C63.4862 31.2331 63.4721 31.095 63.4133 30.8996C63.3404 30.6757 63.3404 30.6518 63.3924 30.3992C63.4483 30.1419 63.4444 30.1181 63.3681 29.7417C63.2884 29.3701 63.285 29.2795 63.2816 27.9024C63.2782 26.3491 63.32 25.4342 63.4031 25.1626C63.4444 25.0197 63.4483 24.9434 63.4133 24.7195C63.3754 24.4765 63.3788 24.4098 63.4444 24.1382C63.4828 23.9666 63.5246 23.6998 63.5382 23.5426C63.5868 22.9469 63.6111 22.8707 63.8468 22.6611C64.1278 22.4085 64.1419 22.3942 64.1662 22.256C64.2041 22.0511 64.1521 21.9272 63.9441 21.7224C63.8332 21.6128 63.7083 21.4651 63.6597 21.3983C63.597 21.3078 63.545 21.2792 63.4308 21.2792C63.3025 21.2792 63.2539 21.2459 63.0634 21.0219C62.8587 20.7789 62.6609 20.655 62.4981 20.6646C62.4597 20.6646 62.3348 20.7122 62.2206 20.7646Z" fill="#282828"/>
<path d="M37.3732 20.8987C36.9536 20.9559 36.3987 21.1226 36.1907 21.2465C36.0832 21.3132 35.9028 21.4752 35.7884 21.6039C35.674 21.7373 35.5006 21.8993 35.4034 21.966C35.2093 22.0994 34.8555 22.4758 34.7723 22.6331C34.7446 22.6903 34.6232 22.9 34.5018 23.1096C34.259 23.5194 34.1897 23.7624 34.2105 24.0912C34.2278 24.3437 34.3527 24.5533 34.6163 24.763C34.8208 24.925 35.0289 24.9441 35.3272 24.8249C35.4312 24.7821 35.6982 24.7344 35.9237 24.7106C36.3051 24.6772 36.3398 24.6629 36.534 24.501C36.8877 24.2055 36.964 24.1769 37.4079 24.1769C37.994 24.1769 38.2437 24.2913 38.5835 24.7011C38.8505 25.0299 39.024 25.3253 39.2043 25.7589L39.3118 26.021L39.2493 26.2163C39.1973 26.3735 39.1627 26.4165 39.0725 26.445C38.9199 26.4831 38.3512 26.8596 38.0495 27.1121C37.7859 27.3361 37.5848 27.4123 36.9224 27.5457C36.5271 27.6267 36.5201 27.6315 36.2808 27.8793C35.9341 28.2414 35.8473 28.3844 35.5942 28.999C35.3168 29.6661 35.2717 29.952 35.3098 30.8001C35.3376 31.4244 35.4 31.6531 35.6428 32.0533C35.882 32.4488 36.3779 32.7729 36.9571 32.9253L37.2518 32.9968L37.9211 32.6918C38.6598 32.3487 39.0725 32.0867 39.2285 31.8579C39.2875 31.777 39.4124 31.6483 39.5095 31.5721C39.6066 31.4958 39.7487 31.329 39.825 31.2004C39.9048 31.0765 40.0366 30.9193 40.1233 30.8573C40.3175 30.7144 40.3625 30.7525 40.4423 31.1337C40.4735 31.2862 40.536 31.4816 40.581 31.5768C40.6261 31.6721 40.6851 31.8484 40.7093 31.9628C40.7718 32.2582 40.9486 32.5251 41.0804 32.5251C41.2052 32.5251 41.3613 32.2963 41.3648 32.1057C41.3786 31.5387 41.3197 31.1289 41.1186 30.357C40.9729 29.7948 40.7683 28.5749 40.7024 27.8793C40.6816 27.641 40.64 27.3218 40.6122 27.1645C40.5845 26.993 40.5637 26.6213 40.5637 26.2449C40.5637 25.6207 40.5602 25.5969 40.4077 24.9584C40.3244 24.601 40.1892 24.0054 40.1129 23.6385C39.9534 22.8809 39.8146 22.4616 39.617 22.1566C39.4366 21.8755 39.0378 21.5086 38.7951 21.399C38.691 21.3514 38.5176 21.256 38.4136 21.1846C38.2125 21.0464 37.7651 20.8463 37.6819 20.8558C37.6541 20.8606 37.5154 20.8796 37.3732 20.8987ZM39.2979 27.9555C39.5545 28.0508 39.5684 28.0985 39.5476 28.656C39.5268 29.142 39.5233 29.1563 39.3915 29.3945C39.3152 29.5327 39.2251 29.7138 39.1904 29.8043C39.1141 29.9901 38.2679 30.7954 38.0703 30.8669C38.0009 30.8907 37.8969 30.9765 37.8379 31.0527C37.6437 31.31 37.1548 31.4101 36.7941 31.2624C36.645 31.2004 36.6138 31.1623 36.5618 31.0051C36.4855 30.7811 36.4993 30.4571 36.6034 29.9901C36.6831 29.628 36.964 29.0324 37.127 28.8656C37.2865 28.7036 37.5848 28.5225 37.6853 28.5225C37.7339 28.5225 37.883 28.451 38.0148 28.3653C38.15 28.2748 38.3373 28.1699 38.431 28.1223C38.5281 28.0794 38.6425 28.0127 38.691 27.9746C38.795 27.8936 39.1037 27.884 39.2979 27.9555Z" fill="#282828"/>
<path d="M75.8308 21.8981C75.5362 21.9171 75.248 21.9505 75.196 21.9695C74.8908 22.0839 74.4334 22.5652 74.2011 23.0226C74.0796 23.2561 74.0208 23.3323 73.9372 23.3561C73.6529 23.4324 73.3165 24.2615 73.1396 25.3193C72.9214 26.6487 72.9559 26.9822 73.5313 28.9263C73.7642 29.7078 73.8609 29.9746 73.9722 30.1509C74.0519 30.27 74.1836 30.4797 74.2667 30.6179C74.3498 30.7513 74.5131 30.9514 74.6308 31.0562C74.7455 31.1658 74.9671 31.3946 75.1197 31.5708C75.9071 32.4619 76.5797 32.8574 77.3117 32.8574C77.6933 32.8574 78.0432 32.7001 78.7475 32.2093C79.2466 31.8615 79.5275 31.5804 79.4964 31.4613C79.4721 31.3612 79.0284 31.4041 78.7786 31.5232C78.4247 31.6947 77.9567 31.8186 77.5995 31.8424L77.2699 31.8615L76.6804 31.4613L76.0874 31.061L75.7025 30.494C74.9637 29.4124 74.8495 29.1598 74.8145 28.5785C74.7975 28.3021 74.8077 28.1878 74.8597 28.0258C74.9603 27.697 75.0993 27.6541 75.9003 27.6922L76.5418 27.7208L76.9511 27.5493C77.1761 27.454 77.457 27.3063 77.5751 27.2253C77.8352 27.0442 78.2167 26.9156 78.6639 26.8584C79.0527 26.806 79.5518 26.5868 80.0272 26.2628C80.2731 26.0912 80.3426 26.015 80.4534 25.8053C80.5681 25.5814 80.5818 25.5194 80.5818 25.2669C80.5818 25.1097 80.5506 24.8333 80.5088 24.6522C80.45 24.3758 80.4048 24.2758 80.2143 23.9946C79.9125 23.5611 79.67 23.3419 78.7577 22.7176C77.9426 22.1554 77.6029 21.9934 77.0585 21.9029C76.7256 21.8457 76.677 21.8457 75.8308 21.8981ZM76.989 23.7088C77.3185 23.7754 77.8284 24.0852 77.9985 24.3234C78.1195 24.4997 78.1263 24.5236 78.0952 24.6903C78.0675 24.8619 78.0505 24.8809 77.8663 24.9571C77.301 25.1906 76.5832 25.2574 76.136 25.1144C76.0009 25.0715 75.72 25.0429 75.4356 25.0382C74.9812 25.0334 74.9569 25.0286 74.9326 24.9333C74.8908 24.7856 74.9953 24.6332 75.352 24.2996C75.9523 23.7326 76.3649 23.5849 76.989 23.7088Z" fill="#282828"/>
<path d="M19.5448 22.2659C19.3124 22.6185 19.2847 22.9759 19.4581 23.3714C19.6072 23.7145 19.7563 24.4244 19.7563 24.8056C19.7563 24.9629 19.8187 25.5299 19.8951 26.0588C19.9713 26.5877 20.0442 27.2167 20.058 27.4549L20.0788 27.8837L19.8881 28.2411C19.7806 28.4365 19.6731 28.6176 19.6488 28.6509C19.6211 28.6795 19.4373 28.7128 19.2361 28.7223C18.9587 28.7367 18.8408 28.7605 18.7437 28.8319C18.6743 28.8844 18.5252 28.994 18.4143 29.0797C18.3032 29.1607 18.1333 29.2417 18.0397 29.2608C17.9426 29.2799 17.8073 29.337 17.738 29.3847C17.5611 29.5086 17.5299 29.5038 17.2005 29.2846C16.8398 29.0416 16.6838 28.8606 16.656 28.6414C16.6421 28.5508 16.5936 28.365 16.5485 28.2268C16.5034 28.0887 16.4549 27.8933 16.441 27.7884C16.4272 27.6693 16.3959 27.5979 16.3543 27.5836C16.2711 27.5502 16.2537 27.3739 16.2399 26.4019C16.2295 25.6919 16.2156 25.5442 16.1393 25.2106C16.0387 24.7723 15.6607 23.6621 15.5324 23.4333C15.2688 22.9616 14.6828 22.69 14.3117 22.8758C13.9545 23.0521 13.7638 23.3428 13.6806 23.8526C13.632 24.1528 13.632 24.1766 13.7256 24.6293C13.788 24.9295 13.8679 25.182 13.9407 25.3202C14.0031 25.4441 14.0759 25.6347 14.1002 25.7491C14.1626 26.0493 14.2458 26.764 14.277 27.2595C14.2909 27.5073 14.336 27.798 14.3776 27.9409C14.4262 28.1125 14.4504 28.2935 14.4504 28.5175C14.4504 29.1655 14.6169 29.966 14.8943 30.6331C15.0573 31.0238 15.1128 31.1191 15.2619 31.243C15.359 31.3287 15.5012 31.467 15.581 31.5527C15.6607 31.6433 15.7405 31.7147 15.7613 31.7147C15.7821 31.7147 15.8446 31.7814 15.9035 31.8672C15.9625 31.953 16.0699 32.0435 16.1566 32.0769C16.2399 32.1054 16.4757 32.2341 16.6838 32.3532C17.1415 32.62 17.2872 32.6344 17.7102 32.4295C17.8733 32.3532 18.0328 32.2865 18.064 32.2865C18.0952 32.2865 18.168 32.2341 18.2235 32.1674C18.2824 32.1007 18.3657 32.0483 18.4108 32.0483C18.5114 32.0483 18.7714 31.8672 18.9518 31.6718C19.0211 31.5956 19.1425 31.5098 19.2188 31.4765C19.3055 31.4384 19.4512 31.2954 19.6107 31.0905C19.7459 30.9094 19.8812 30.7617 19.9089 30.7617C20.0025 30.7617 20.1586 31.0905 20.2487 31.486C20.3979 32.1102 20.4291 32.4866 20.384 33.0155C20.3632 33.2633 20.3459 33.654 20.3459 33.878C20.3459 34.1639 20.3251 34.3593 20.28 34.526C20.2314 34.7023 20.221 34.8071 20.2418 34.9406C20.2765 35.1502 20.1343 36.1604 20.0234 36.4558C19.9228 36.7274 19.8257 37.142 19.8257 37.2897C19.8257 37.4565 19.6107 38.033 19.4754 38.2188C19.4061 38.3236 19.3749 38.4142 19.3749 38.5238C19.3749 38.6477 19.3333 38.7525 19.1806 38.9955C19.0731 39.1718 18.9102 39.4625 18.82 39.6483C18.6466 39.9961 18.553 40.1153 18.3032 40.2915C18.22 40.3488 18.0744 40.5012 17.9808 40.6299C17.8143 40.8586 17.8073 40.8634 17.6825 40.8157C17.5022 40.749 17.3149 40.7585 17.0999 40.8443C16.9369 40.9062 16.8502 40.911 16.4861 40.8681C15.6711 40.7681 15.5186 40.73 15.4215 40.6061C15.3729 40.5441 15.2584 40.4298 15.1613 40.3535C14.9498 40.1868 14.8111 39.858 14.8284 39.553C14.8354 39.4482 14.8388 39.2242 14.8388 39.0527C14.8354 38.8812 14.8319 38.5667 14.8319 38.3523C14.8284 38.0854 14.8145 37.9472 14.7799 37.9091C14.7105 37.8281 14.6134 37.9329 14.5163 38.1902C14.4435 38.3856 14.4331 38.4905 14.4227 39.1242C14.4123 39.6817 14.4227 39.9104 14.4678 40.1486C14.5337 40.4965 14.6412 40.7681 14.7105 40.7681C14.7383 40.7681 14.8388 40.8634 14.936 40.9825C15.033 41.1016 15.1544 41.2064 15.2064 41.2207C15.2584 41.235 15.4319 41.3017 15.5948 41.3637C15.9798 41.5114 16.8676 41.7163 17.1727 41.7258C17.5369 41.7401 18.0189 41.5352 18.2131 41.2874C18.272 41.216 18.4039 41.1064 18.5079 41.0396C18.6119 40.9777 18.7853 40.8205 18.8894 40.6918C19.1876 40.3249 19.5829 39.7341 19.5829 39.6483C19.5829 39.6054 19.6488 39.472 19.732 39.3481C19.9956 38.9526 20.3459 38.2379 20.3459 38.0902C20.3459 38.0568 20.4014 37.8567 20.4707 37.647C20.6892 36.9847 20.7655 36.5892 20.7863 36.0746C20.8001 35.7363 20.8245 35.5648 20.8661 35.479C20.9597 35.2979 20.977 35.1645 20.9874 34.6737C20.9978 34.1163 21.0498 33.4682 21.1261 32.8345C21.192 32.3151 21.1816 31.7814 21.0949 31.3431C21.0498 31.1191 21.0498 31.0619 21.0984 30.8285C21.1469 30.595 21.1504 30.5235 21.1088 30.2471C21.0845 30.0708 21.0602 29.5848 21.0533 29.1655C21.0498 28.7462 21.029 28.2507 21.0082 28.0648C20.9666 27.6788 20.9458 26.2923 20.9701 25.4489C20.9805 25.0534 20.8314 24.1242 20.71 23.8288C20.6684 23.724 20.6129 23.5572 20.5886 23.4524C20.5643 23.3523 20.4811 23.1379 20.4014 22.9759C20.3181 22.8186 20.2349 22.6185 20.2106 22.5423C20.1586 22.3612 19.9887 22.2087 19.791 22.1659C19.6488 22.1373 19.6245 22.1468 19.5448 22.2659Z" fill="#282828"/>
<path d="M82.9486 22.5653C82.7337 22.6987 82.5184 22.8369 82.4698 22.8845C82.3313 23.0084 82.2414 23.2991 82.2239 23.7088C82.1996 24.171 82.255 24.4283 82.5257 25.0668C82.706 25.4909 82.7303 25.5862 82.7649 25.9483C82.8237 26.5583 82.8271 27.8591 82.7717 28.9264C82.7303 29.7603 82.7265 30.4703 82.7474 32.1666C82.7546 32.5382 82.7683 32.6383 82.8621 32.9051C82.9763 33.2482 83.1153 33.4483 83.264 33.496C83.4166 33.5436 83.8988 33.3483 84.0412 33.1767C84.2317 32.948 84.3634 32.5382 84.3634 32.1809C84.3634 31.7997 84.4538 30.7895 84.5058 30.5703C84.5267 30.4798 84.5544 29.8889 84.568 29.2599L84.5957 28.1164L84.745 27.5684C84.8558 27.1586 84.8976 26.9204 84.9151 26.6154C84.9496 26.015 85.0745 25.6863 85.4492 25.1812C85.6674 24.8858 85.7924 24.7571 85.9275 24.6856C86.0626 24.6142 86.1355 24.5379 86.2152 24.3855C86.2813 24.2568 86.4028 24.1186 86.5481 24.009C86.7703 23.8375 86.7844 23.8327 87.2592 23.7993C87.526 23.7803 87.7482 23.766 87.755 23.7612C87.7866 23.7422 87.7516 23.4706 87.6961 23.3467C87.5955 23.118 87.2038 23.0131 86.8952 23.137C86.8291 23.1657 86.6662 23.2085 86.5311 23.2323C86.3435 23.2704 86.1875 23.3515 85.8303 23.604C85.5775 23.7755 85.2582 24.0328 85.1231 24.171C84.9044 24.3902 84.8524 24.4236 84.7104 24.4236C84.4606 24.4236 84.3984 24.3044 84.3984 23.8232C84.3945 23.4992 84.3809 23.4086 84.2944 23.1847C84.2351 23.0418 84.1899 22.8797 84.1899 22.8273C84.1899 22.7749 84.1763 22.7082 84.1622 22.6844C84.1141 22.5843 83.7151 22.3794 83.5279 22.3556C83.3578 22.3318 83.3024 22.3508 82.9486 22.5653Z" fill="#282828"/>
</g>
</g>
<defs>
<clipPath id="clip0_2_15925">
<rect width="87" height="42" fill="white" transform="translate(0.75 0.189453)"/>
</clipPath>
<clipPath id="clip1_2_15925">
<rect width="87" height="37" fill="white" transform="translate(1 5)"/>
</clipPath>
</defs>
</svg>
