<svg width="22" height="22" viewBox="0 0 22 22" fill="none" xmlns="http://www.w3.org/2000/svg">
<g clip-path="url(#clip0_3_24838)">
<g clip-path="url(#clip1_3_24838)">
<path d="M14.8093 12.2861C14.8614 10.5658 14.4273 8.48667 13.5879 7.62035C13.0235 7.0707 12.328 6.69836 11.5783 6.5444C10.8285 6.39044 10.0535 6.46085 9.33878 6.74784C8.78036 6.98569 8.32591 7.16228 7.90436 7.62035C7.4828 8.07841 7.10336 8.80795 6.89004 9.40868C6.40645 10.8424 6.40645 12.4117 6.89004 13.8455C7.26867 14.7328 7.9231 15.4525 8.74206 15.8823C9.56103 16.3121 10.494 16.4255 11.3823 16.2031C13.8831 15.5843 14.9541 13.0658 15.0119 10.5596L15.0872 7.25526" stroke="#231F20" stroke-linecap="round" stroke-linejoin="round"/>
<path d="M14.9885 9.50161C15.0927 11.4013 14.7106 11.8716 15.5211 13.4434C16.3836 15.1141 18.7513 15.9866 19.4402 13.6599C20.8295 8.98182 18.0508 3.61681 13.7381 2.1255C8.85793 0.436182 5.05016 1.82407 3.22664 6.66309L2.29096 9.16308C1.76671 10.5966 1.69988 11.5133 1.91695 13.035C2.23452 15.2606 3.25611 17.3026 4.81144 18.8207C9.30729 23.209 14.2185 21.1784 15.7121 19.5385" stroke="#231F20" stroke-linecap="round" stroke-linejoin="round"/>
</g>
</g>
<defs>
<clipPath id="clip0_3_24838">
<rect width="22" height="22" fill="white"/>
</clipPath>
<clipPath id="clip1_3_24838">
<rect width="20" height="22" fill="white" transform="translate(0.800781 0.220703)"/>
</clipPath>
</defs>
</svg>
