<svg width="375" height="171" viewBox="0 0 375 171" fill="none" xmlns="http://www.w3.org/2000/svg">
<g clip-path="url(#clip0_97_2)">
<path d="M219.844 122.133C235.843 121.979 257.289 114.473 269.628 109.989C270.955 82.152 267.144 64.4935 268.037 37.3037H267.611C251.698 37.8739 235.766 37.2016 219.844 37.2441" fill="#F5FCDE"/>
<path d="M219.844 122.133C235.843 121.979 257.289 114.473 269.628 109.989C270.955 82.152 267.144 64.4935 268.037 37.3037H267.611C251.698 37.8739 235.766 37.2016 219.844 37.2441" stroke="#282828" stroke-linejoin="round"/>
<path d="M118.704 114.49C152.898 117.315 185.934 120.022 219.847 122.149C218.349 88.194 219.847 65.523 219.847 37.0481C202.308 25.3212 170.931 0.148316 168.88 0.897207C166.488 1.74821 143.817 18.1557 132.244 25.0999C127.053 28.312 122.41 32.3342 118.492 37.0141C118.492 37.0141 117.879 49.3112 117.436 55.7363C117.053 61.2934 116.151 114.277 118.704 114.49Z" fill="#F5FCDE" stroke="#282828" stroke-linejoin="round"/>
<path d="M146.711 123.035C146.575 100.619 144.694 78.2971 146.456 55.9411C155.816 55.5326 170.088 54.5029 186.453 54.656C186.831 54.6204 187.211 54.7005 187.542 54.8858C187.69 55.0297 187.804 55.2039 187.878 55.3964C187.951 55.5889 187.982 55.7951 187.968 56.0006C188.708 67.8041 188.036 78.8503 189.015 90.645C189.363 94.8149 188.887 102.747 189.176 106.933C189.61 113.24 188.998 116.516 188.376 122.822" stroke="#282828" stroke-linejoin="round"/>
<path d="M168.879 0.854219L219.948 37.0477L268.039 37.303L220.629 0.845703L168.879 0.854219Z" fill="#282828" stroke="#282828" stroke-linejoin="round"/>
<path d="M166.691 77.252C167.22 90.6556 167.228 109.505 167.134 122.917" stroke="#282828" stroke-linecap="round" stroke-linejoin="round"/>
<path d="M167.014 76.8594C164.827 79.3188 162.002 82.1952 159.508 84.5184" stroke="#282828" stroke-linecap="round" stroke-linejoin="round"/>
<path d="M166.429 85.418C163.721 87.4267 161.161 89.6285 158.77 92.0046" stroke="#282828" stroke-linecap="round" stroke-linejoin="round"/>
<path d="M166.995 93.3184C163.362 96.5012 160.681 99.4199 157.047 102.603" stroke="#282828" stroke-linecap="round" stroke-linejoin="round"/>
<path d="M167.016 76.8594C169.857 79.3613 172.173 82.425 174.675 84.9097L174.087 84.2801" stroke="#282828" stroke-linecap="round" stroke-linejoin="round"/>
<path d="M167.457 85.5488C170.25 88.1434 173.263 90.4924 176.46 92.5689" stroke="#282828" stroke-linecap="round" stroke-linejoin="round"/>
<path d="M166.996 93.3184C168.876 95.2247 173.54 98.1612 178.544 103.675" stroke="#282828" stroke-linecap="round" stroke-linejoin="round"/>
<path d="M167.161 101.682C163.315 104.864 159.987 108.064 156.141 111.247" stroke="#282828" stroke-linecap="round" stroke-linejoin="round"/>
<path d="M167.148 101.25C170.698 104.655 175.565 108.909 178.91 112.356" stroke="#282828" stroke-linecap="round" stroke-linejoin="round"/>
<path d="M23.3076 62.4004C26.7113 67.7448 30.8016 73.9467 34.1502 79.3096L30.4785 79.487C32.8917 85.0639 35.7799 90.4189 39.1107 95.4945L34.3192 95.0764C38.5965 99.9048 42.2145 105.285 45.0773 111.077L39.9075 110.441C41.7434 115.915 47.3098 120.579 48.7491 126.108C48.7983 126.234 48.8209 126.369 48.8152 126.504C48.8095 126.639 48.7757 126.771 48.716 126.892C48.1028 127.856 20.1609 127.48 7.22545 127.084C5.57684 127.036 2.26494 127.342 0.847656 126.763C2.71289 121.3 4.15221 116.488 6.88398 111.202C7.03819 110.903 8.35268 109.243 8.08097 108.985C7.59629 108.526 2.81203 109.724 2.73125 109.073C2.65048 108.423 3.97964 106.949 4.41657 106.353C7.42739 102.236 12.5898 98.222 12.9533 93.628C12.219 93.3842 8.06628 94.2933 7.90839 93.7465C7.82027 93.4358 8.60231 92.6968 8.82629 92.4234C11.1197 89.6554 13.261 86.7629 15.2408 83.7596C16.3424 82.1001 17.3851 80.3186 17.0583 78.5113L12.3291 78.8365L20.7228 65.3129C21.189 64.5995 23.3076 62.4004 23.3076 62.4004Z" fill="#F5FCDE" stroke="#231F20" stroke-linecap="round" stroke-linejoin="round"/>
<path d="M341.116 50.752C345.644 57.9949 351.077 66.4088 355.529 73.6852L350.641 73.9277C353.838 81.4898 357.677 88.7649 362.119 95.6731L355.746 95.1043C361.449 101.696 366.258 109.007 370.05 116.85L363.174 116.014C365.606 123.432 373.018 129.763 374.912 137.258C374.977 137.43 375.007 137.614 374.998 137.798C374.989 137.982 374.943 138.162 374.862 138.328C374.024 139.633 336.916 139.122 319.746 138.587C317.558 138.52 313.148 138.939 311.27 138.144C313.785 130.742 315.646 124.21 319.294 117.042C319.494 116.633 321.238 114.383 320.878 114.031C320.241 113.412 313.878 115.061 313.768 114.157C313.659 113.254 315.445 111.272 316.015 110.461C319.998 104.798 326.889 99.3952 327.375 93.1226C326.395 92.7959 320.878 94.0259 320.668 93.2809C320.551 92.8628 321.59 91.8597 321.892 91.4914C324.944 87.7304 327.791 83.8075 330.419 79.7405C331.869 77.4823 333.269 75.0735 332.825 72.623L326.546 73.0579L337.704 54.7163C338.766 53.3316 339.905 52.008 341.116 50.752Z" fill="#282828"/>
<path d="M268.098 39.1035C274.548 48.2561 298.105 63.6677 340.736 52.0942" stroke="#282828"/>
<path d="M323.418 61.1684C322.057 60.6435 320.724 60.0506 319.422 59.3967C319.982 60.4935 321.315 61.059 321.783 62.198C321.206 63.298 320.566 64.3643 319.864 65.3895C320.272 64.9888 320.839 64.8095 321.387 64.6449C321.928 64.4807 322.473 64.3188 323.014 64.1546C323.07 64.1364 323.134 64.1197 323.189 64.1415C323.24 64.1612 323.273 64.2104 323.303 64.2525C323.733 64.9068 324.123 65.5879 324.465 66.2939C324.608 65.5824 324.787 64.8773 324.999 64.1812C325.05 64.0181 325.105 63.8445 325.228 63.7264C325.348 63.6061 325.518 63.5534 325.682 63.5039C326.841 63.1503 328.002 62.7989 329.161 62.4452C327.85 62.2709 326.549 62.0178 325.27 61.6873C325.191 61.668 325.81 58.7621 325.448 58.4766C324.757 59.3653 324.171 60.3158 323.418 61.1684Z" fill="#F5FCDE" stroke="#282828" stroke-miterlimit="10" stroke-linecap="round" stroke-linejoin="round"/>
<path d="M306.767 63.5934C305.33 63.8458 303.882 64.0254 302.43 64.1367C303.475 64.7873 304.909 64.5843 305.897 65.3193C305.97 66.5589 305.971 67.8027 305.899 69.0431C306.042 68.4896 306.435 68.043 306.819 67.6199C307.199 67.1998 307.581 66.7802 307.962 66.3601C308 66.3157 308.045 66.2687 308.104 66.2592C308.159 66.2491 308.212 66.2744 308.259 66.2953C308.965 66.6341 309.65 67.0163 310.308 67.4445C310.063 66.7613 309.853 66.0652 309.675 65.3595C309.634 65.1934 309.592 65.0163 309.637 64.8516C309.678 64.6864 309.797 64.5536 309.91 64.4272C310.721 63.5265 311.535 62.6264 312.346 61.7257C311.133 62.2522 309.887 62.7064 308.621 63.0829C308.543 63.1074 307.576 60.298 307.118 60.2402C306.985 61.358 306.972 62.475 306.767 63.5934Z" fill="#F5FCDE" stroke="#282828" stroke-miterlimit="10" stroke-linecap="round" stroke-linejoin="round"/>
<path d="M291.065 65.1516C290.739 66.5737 290.484 68.0105 290.298 69.4554C289.703 68.3773 289.98 66.9561 289.297 65.9318C288.063 65.7944 286.821 65.7285 285.578 65.7368C286.139 65.6232 286.604 65.2528 287.047 64.8917C287.486 64.5343 287.925 64.1734 288.364 63.816C288.411 63.78 288.46 63.7368 288.472 63.6791C288.485 63.6249 288.463 63.5704 288.444 63.5225C288.142 62.8 287.796 62.0955 287.402 61.4165C288.072 61.6961 288.757 61.9426 289.452 62.1563C289.616 62.2053 289.79 62.2569 289.957 62.2208C290.125 62.1882 290.263 62.0769 290.396 61.9696C291.337 61.2069 292.278 60.4405 293.219 59.6777C292.63 60.8616 292.112 62.0815 291.671 63.3264C291.642 63.4032 294.398 64.5148 294.433 64.975C293.309 65.0504 292.193 65.0051 291.065 65.1516Z" fill="#F5FCDE" stroke="#282828" stroke-miterlimit="10" stroke-linecap="round" stroke-linejoin="round"/>
<path d="M277.083 54.7288C278.362 54.0269 279.604 53.2612 280.807 52.4394C280.398 53.6012 279.152 54.3396 278.842 55.5309C279.56 56.5439 280.336 57.5152 281.169 58.4376C280.712 58.0948 280.125 57.9929 279.561 57.9028C279.002 57.8125 278.441 57.7247 277.882 57.6344C277.824 57.6237 277.759 57.6156 277.708 57.6447C277.659 57.6711 277.633 57.7242 277.609 57.7698C277.27 58.4757 276.975 59.2027 276.73 59.9483C276.493 59.2623 276.222 58.5873 275.919 57.9256C275.847 57.7708 275.769 57.6061 275.631 57.5055C275.495 57.4024 275.32 57.3728 275.153 57.3454C273.956 57.1497 272.759 56.9565 271.562 56.7608C272.838 56.4131 274.094 55.9887 275.317 55.4903C275.393 55.4606 274.391 52.6634 274.711 52.332C275.515 53.1206 276.223 53.9843 277.083 54.7288Z" fill="#F5FCDE" stroke="#282828" stroke-miterlimit="10" stroke-linecap="round" stroke-linejoin="round"/>
<path d="M278.378 48.0117C277.921 49.6948 277.008 53.4217 277.008 54.8643" stroke="#282828" stroke-linecap="round" stroke-linejoin="round"/>
<path d="M322.234 55.5488C322.463 56.8953 322.919 59.8768 322.919 61.0309" stroke="#282828" stroke-linecap="round" stroke-linejoin="round"/>
<path d="M291.398 53.4941C290.942 55.6822 290.027 60.527 290.027 62.4025" stroke="#282828" stroke-linecap="round" stroke-linejoin="round"/>
<path d="M87.5832 3.46875C79.015 17.1686 68.7336 33.0832 60.3086 46.8463L69.5587 47.3051C63.509 61.6085 56.2421 75.3691 47.8376 88.4366L59.8961 87.3607C49.1044 99.8288 40.0038 113.658 32.828 128.491L45.8385 126.91C41.2372 140.942 27.2113 152.917 23.6255 167.092C23.5024 167.418 23.4474 167.766 23.4637 168.114C23.4802 168.462 23.5675 168.803 23.7207 169.117C25.3073 171.584 95.5319 170.619 128.027 169.607C132.168 169.481 140.513 170.271 144.067 168.769C139.307 154.768 135.785 142.413 128.883 128.855C128.502 128.081 125.202 123.825 125.884 123.16C127.09 121.99 139.133 125.106 139.339 123.398C139.546 121.689 136.166 117.94 135.087 116.406C127.55 105.696 114.508 95.4761 113.588 83.6113C115.444 82.9943 125.884 85.3198 126.281 83.9119C126.503 83.1209 124.536 81.2225 123.964 80.5265C118.189 73.412 112.803 65.9924 107.828 58.2998C105.084 54.0284 102.434 49.4724 103.275 44.8372L115.159 45.6598L94.0404 10.9673C92.0316 8.34802 89.8756 5.84447 87.5832 3.46875Z" fill="#282828"/>
</g>
<defs>
<clipPath id="clip0_97_2">
<rect width="375" height="170.993" fill="white"/>
</clipPath>
</defs>
</svg>
