<svg width="22" height="22" viewBox="0 0 22 22" fill="none" xmlns="http://www.w3.org/2000/svg">
<g clip-path="url(#clip0_3_24828)">
<g clip-path="url(#clip1_3_24828)">
<path d="M12.2539 4.63508C15.0629 3.81227 17.7645 8.7152 16.4139 10.8652" stroke="#231F20" stroke-linecap="round" stroke-linejoin="round"/>
<path d="M13.1211 1.0293C14.5303 1.28003 16.0581 1.61886 17.1482 2.57898C18.1816 3.49465 18.8127 4.92212 19.4137 6.19535C20.0148 7.46858 20.3617 8.85994 20.4334 10.2852" stroke="#231F20" stroke-linecap="round" stroke-linejoin="round"/>
<path d="M8.66982 6.42521C8.87647 6.22861 9.00598 5.95846 9.03238 5.66864C9.05248 5.1462 8.64277 4.64189 8.38741 4.22833C8.06868 3.69231 7.71877 3.17764 7.33964 2.68722C6.8628 2.10388 6.23363 1.24918 5.50275 1.06936C4.60666 0.838185 3.69376 1.76592 3.15661 2.41735C0.501215 5.65522 0.843555 6.74664 2.74731 9.72719C3.10285 10.2768 5.03243 13.9309 5.39679 14.47C7.03946 16.8728 9.88657 19.4841 12.5348 20.4348C13.41 20.7324 14.354 20.7444 15.243 20.4691C16.132 20.1938 16.9244 19.6441 17.5164 18.8922C17.8049 18.548 17.9912 18.1234 18.0518 17.6716C18.1125 17.2199 18.0448 16.7611 17.8573 16.353C17.4911 15.7434 17.0694 15.1729 16.5982 14.6494C16.0917 13.9978 15.5503 13.0266 14.656 12.9065C13.7616 12.7864 13.6888 14.0975 13.1258 14.6521C12.8861 14.9197 12.1235 14.5921 11.7824 14.668C10.489 14.8736 9.32807 13.2239 8.66924 12.3011C8.1325 11.5517 7.68281 10.7372 7.32951 9.87469C7.01202 9.09683 6.61337 8.22055 7.22981 7.47474C7.60915 7.00635 8.22106 6.83176 8.63787 6.41509L8.66982 6.42521Z" stroke="#231F20" stroke-linecap="round" stroke-linejoin="round"/>
</g>
</g>
<defs>
<clipPath id="clip0_3_24828">
<rect width="22" height="22" fill="white"/>
</clipPath>
<clipPath id="clip1_3_24828">
<rect width="23" height="22" fill="white" transform="translate(-1.26953 -0.449219)"/>
</clipPath>
</defs>
</svg>
