<svg width="18" height="28" viewBox="0 0 18 28" fill="none" xmlns="http://www.w3.org/2000/svg">
<g clip-path="url(#clip0_2_16161)">
<g clip-path="url(#clip1_2_16161)">
<path d="M1.4992 11.158C1.0055 9.17367 0.635236 7.01846 1.39478 5.14808C2.46763 2.48018 5.50578 1.35036 8.24014 1.41682C11.886 1.56873 15.6932 3.86636 16.728 7.59761C17.7629 11.3289 15.902 15.1266 13.8798 18.2692C12.6106 20.0441 11.4685 21.9065 10.4618 23.8424C9.37948 26.14 9.42695 28.2288 7.43314 25.3709C4.56586 21.3074 2.69549 16.0001 1.4992 11.158Z" fill="#F5FCDE" stroke="#282828" stroke-linecap="round" stroke-linejoin="round"/>
<path d="M6.58431 5.78471C6.21507 6.70283 5.94458 7.65764 5.7773 8.63299C5.6159 9.34553 5.6159 10.0852 5.7773 10.7977C6.02552 11.5431 6.53561 12.1733 7.21299 12.5713C7.89035 12.9694 8.68909 13.1083 9.46111 12.9624C10.2268 12.7785 10.9146 12.3571 11.4263 11.7586C11.9379 11.16 12.247 10.4148 12.3094 9.6299C12.3411 8.84421 12.1592 8.06466 11.783 7.37418C11.4068 6.68369 10.8505 6.10814 10.1732 5.70877C9.82795 5.48229 9.44135 5.32624 9.03564 5.24966C8.62994 5.17308 8.21307 5.17749 7.80904 5.26252C7.40417 5.35327 7.04022 5.57413 6.77274 5.89133C6.50529 6.20852 6.34902 6.60458 6.32794 7.01896" fill="#F5FCDE"/>
<path d="M6.58431 5.78471C6.21507 6.70283 5.94458 7.65764 5.7773 8.63299C5.6159 9.34553 5.6159 10.0852 5.7773 10.7977C6.02552 11.5431 6.53561 12.1733 7.21299 12.5713C7.89035 12.9694 8.68909 13.1083 9.46111 12.9624C10.2268 12.7785 10.9146 12.3571 11.4263 11.7586C11.9379 11.16 12.247 10.4148 12.3094 9.62989C12.3411 8.84421 12.1592 8.06466 11.783 7.37418C11.4068 6.68369 10.8505 6.10814 10.1732 5.70877C9.82795 5.48229 9.44135 5.32624 9.03564 5.24966C8.62994 5.17308 8.21307 5.17749 7.80904 5.26252C7.40417 5.35327 7.04022 5.57413 6.77274 5.89133C6.50529 6.20852 6.34902 6.60458 6.32794 7.01896" stroke="#282828" stroke-linecap="round" stroke-linejoin="round"/>
</g>
</g>
<defs>
<clipPath id="clip0_2_16161">
<rect width="17.0625" height="26.3594" fill="white" transform="translate(0.480469 0.939453)"/>
</clipPath>
<clipPath id="clip1_2_16161">
<rect width="17.0549" height="26.3594" fill="white" transform="translate(0.484375 0.939453)"/>
</clipPath>
</defs>
</svg>
