<svg width="534" height="149" viewBox="0 0 534 149" fill="none" xmlns="http://www.w3.org/2000/svg">
<g clip-path="url(#clip0_3_24848)">
<path d="M1.21875 15.7734C7.19158 16.1901 13.0639 17.5296 18.6266 19.7441" stroke="#282828" stroke-linecap="round" stroke-linejoin="round"/>
<path d="M18.3086 19.5723C19.3612 21.9131 20.7259 24.1005 22.3656 26.0751" stroke="#282828" stroke-linecap="round" stroke-linejoin="round"/>
<path d="M18.082 20.1481C20.1365 20.075 22.184 20.4277 24.0956 21.184" stroke="#282828" stroke-linecap="round" stroke-linejoin="round"/>
<path d="M18.4844 18.7366C20.3483 18.0415 22.0165 16.9063 23.3471 15.4277" stroke="#282828" stroke-linecap="round" stroke-linejoin="round"/>
<path d="M18.1094 8.43555L29.3022 9.41383C30.6032 9.46976 31.8906 9.70209 33.1291 10.1044C35.3967 11.2341 37.3677 12.8799 38.8837 14.9096" stroke="#282828" stroke-linecap="round" stroke-linejoin="round"/>
<path d="M33.418 9.76096C36.0437 8.66021 38.7581 7.78427 41.532 7.14258" stroke="#282828" stroke-linecap="round" stroke-linejoin="round"/>
<path d="M36.3516 10.5938L41.5021 11.198" stroke="#282828" stroke-linecap="round" stroke-linejoin="round"/>
<path d="M495.977 23.2267C501.721 21.5477 507.692 20.7806 513.673 20.9536" stroke="#282828" stroke-linecap="round" stroke-linejoin="round"/>
<path d="M513.324 20.9531C515.111 22.7971 517.144 24.3851 519.366 25.672" stroke="#282828" stroke-linecap="round" stroke-linejoin="round"/>
<path d="M513.297 21.529C515.203 20.7498 517.252 20.3774 519.31 20.4356" stroke="#282828" stroke-linecap="round" stroke-linejoin="round"/>
<path d="M513.211 20.0616C514.708 18.7635 515.872 17.1257 516.606 15.2852" stroke="#282828" stroke-linecap="round" stroke-linejoin="round"/>
<path d="M509.184 10.5098L520.031 7.6325C521.281 7.24048 522.578 7.01789 523.887 6.9707C526.443 7.20938 528.903 8.0687 531.051 9.47399" stroke="#282828" stroke-linecap="round" stroke-linejoin="round"/>
<path d="M524.145 6.56682C526.218 4.62295 528.462 2.87025 530.849 1.33008" stroke="#282828" stroke-linecap="round" stroke-linejoin="round"/>
<path d="M527.195 6.27879L532.23 5.07031" stroke="#282828" stroke-linecap="round" stroke-linejoin="round"/>
<path d="M65.9023 28.9238L79.0229 35.6855" stroke="#282828" stroke-linecap="round" stroke-linejoin="round"/>
<path d="M79.0781 35.6855C79.855 37.4982 80.6606 39.2821 81.4663 41.0373C81.4663 41.0373 81.4663 41.2099 81.6677 41.2099C81.8691 41.2099 81.6677 41.0085 81.6677 41.0661" stroke="#282828" stroke-linecap="round" stroke-linejoin="round"/>
<path d="M79.1094 35.3398L84.1735 37.9581L83.5693 37.4402" stroke="#282828" stroke-linecap="round" stroke-linejoin="round"/>
<path d="M78.9062 34.8218C80.5487 34.247 82.2455 33.8421 83.9704 33.6133" stroke="#282828" stroke-linecap="round" stroke-linejoin="round"/>
<path d="M76.2578 21.3555L84.1705 24.8371C85.7416 25.4763 87.2698 26.2164 88.7455 27.0526C88.98 27.1942 89.1932 27.3686 89.3785 27.5705C89.584 27.8231 89.7314 28.1178 89.81 28.4337L91.9393 34.5049V33.9006" stroke="#282828" stroke-linecap="round" stroke-linejoin="round"/>
<path d="M89.7539 27.2266C91.2501 28.4063 92.6313 29.6148 94.0987 30.852" stroke="#282828" stroke-linecap="round" stroke-linejoin="round"/>
<path d="M89.2383 26.8806C89.2383 26.6504 89.6698 26.6504 89.9288 26.6504L95.1656 27.0245" stroke="#282828" stroke-linecap="round" stroke-linejoin="round"/>
<path d="M311.625 123.702C316.701 120.537 322.232 118.169 328.026 116.682" stroke="#282828" stroke-linecap="round" stroke-linejoin="round"/>
<path d="M327.68 116.738C329.903 118.024 332.296 118.993 334.787 119.616" stroke="#282828" stroke-linecap="round" stroke-linejoin="round"/>
<path d="M327.91 117.343C329.534 116.07 331.406 115.149 333.406 114.639" stroke="#282828" stroke-linecap="round" stroke-linejoin="round"/>
<path d="M327.336 115.905C328.422 114.247 329.093 112.352 329.293 110.381" stroke="#282828" stroke-linecap="round" stroke-linejoin="round"/>
<path d="M320.949 107.849L330.588 102.095C331.678 101.384 332.859 100.823 334.098 100.426C336.628 99.9545 339.234 100.103 341.695 100.858" stroke="#282828" stroke-linecap="round" stroke-linejoin="round"/>
<path d="M334.125 99.9354C335.594 97.4966 337.279 95.195 339.161 93.0586" stroke="#282828" stroke-linecap="round" stroke-linejoin="round"/>
<path d="M337.004 98.8718L341.493 96.3398" stroke="#282828" stroke-linecap="round" stroke-linejoin="round"/>
<path d="M366.668 90.6417L379.127 82.7578" stroke="#282828" stroke-linecap="round" stroke-linejoin="round"/>
<path d="M379.184 82.7305L384.939 83.3635C384.939 83.3635 385.14 83.3635 385.169 83.3635M385.169 83.3635C385.025 83.3635 385.198 83.3635 385.169 83.3635Z" stroke="#282828" stroke-linecap="round" stroke-linejoin="round"/>
<path d="M378.84 82.4992L383.674 79.4492L382.925 79.7369" stroke="#282828" stroke-linecap="round" stroke-linejoin="round"/>
<path d="M378.352 82.4138C378.672 80.712 379.184 79.0518 379.877 77.4648" stroke="#282828" stroke-linecap="round" stroke-linejoin="round"/>
<path d="M365.316 77.8667L372.337 72.8027C373.691 71.7636 375.103 70.8029 376.567 69.9253C376.81 69.7924 377.072 69.6955 377.343 69.6376C377.667 69.5818 377.998 69.5818 378.322 69.6376L384.623 70.9036L384.048 70.7022" stroke="#282828" stroke-linecap="round" stroke-linejoin="round"/>
<path d="M377.312 69.2349C379.069 68.5443 380.853 67.9113 382.637 67.3359" stroke="#282828" stroke-linecap="round" stroke-linejoin="round"/>
<path d="M376.824 69.4943C376.824 69.2641 376.824 69.0052 376.968 68.8038L379.846 64.459" stroke="#282828" stroke-linecap="round" stroke-linejoin="round"/>
<path d="M217.766 139.96L231.059 130.436" stroke="#282828" stroke-linecap="round" stroke-linejoin="round"/>
<path d="M231.117 130.291L237.591 130.636C237.591 130.636 237.821 130.636 237.85 130.636M237.85 130.636C237.677 130.492 237.879 130.636 237.85 130.636Z" stroke="#282828" stroke-linecap="round" stroke-linejoin="round"/>
<path d="M230.715 130.292L235.865 126.609L235.06 126.955" stroke="#282828" stroke-linecap="round" stroke-linejoin="round"/>
<path d="M230.082 130.09C230.341 128.185 230.804 126.314 231.463 124.508" stroke="#282828" stroke-linecap="round" stroke-linejoin="round"/>
<path d="M215.695 125.919L223.119 119.848C224.546 118.637 226.045 117.513 227.607 116.482C227.865 116.316 228.147 116.19 228.442 116.108C228.804 116.05 229.173 116.05 229.535 116.108L236.584 117.086L235.923 116.913" stroke="#282828" stroke-linecap="round" stroke-linejoin="round"/>
<path d="M228.152 115.559C230.051 114.696 231.979 113.861 233.907 113.113" stroke="#282828" stroke-linecap="round" stroke-linejoin="round"/>
<path d="M227.549 115.905C227.377 115.675 227.549 115.358 227.549 115.099L230.427 110.15" stroke="#282828" stroke-linecap="round" stroke-linejoin="round"/>
<path d="M102.703 61.2363L105.005 74.5871C105.053 74.5711 105.097 74.5455 105.135 74.5119C105.173 74.4784 105.203 74.4375 105.225 74.3918C105.246 74.3461 105.258 74.2965 105.26 74.246C105.262 74.1955 105.254 74.1451 105.235 74.098" stroke="#282828" stroke-linecap="round" stroke-linejoin="round"/>
<path d="M103.25 81.3761C103.446 79.0999 103.89 76.8519 104.574 74.6719L107.451 80.4266" stroke="#282828" stroke-linecap="round" stroke-linejoin="round"/>
<path d="M105.293 73.8105L109.839 77.6373" stroke="#282828" stroke-linecap="round" stroke-linejoin="round"/>
<path d="M111.277 63.1641C112.658 67.106 114.154 71.0192 115.765 74.8748" stroke="#282828" stroke-linecap="round" stroke-linejoin="round"/>
<path d="M113.723 81.5788C114.241 79.2194 114.874 76.86 115.622 74.5293" stroke="#282828" stroke-linecap="round" stroke-linejoin="round"/>
<path d="M115.508 74.6719L118.385 80.7143" stroke="#282828" stroke-linecap="round" stroke-linejoin="round"/>
<path d="M116.34 74.6445C117.923 75.5176 119.4 76.5699 120.742 77.7807" stroke="#282828" stroke-linecap="round" stroke-linejoin="round"/>
<path d="M408.477 58.8466L421.77 56.2858C421.757 56.2389 421.735 56.1953 421.704 56.1577C421.673 56.1201 421.635 56.0895 421.591 56.0677C421.548 56.046 421.5 56.0337 421.452 56.0316C421.403 56.0295 421.355 56.0377 421.31 56.0556" stroke="#282828" stroke-linecap="round" stroke-linejoin="round"/>
<path d="M428.616 57.8988C426.336 57.7514 424.078 57.3558 421.883 56.7191L427.638 53.8418" stroke="#282828" stroke-linecap="round" stroke-linejoin="round"/>
<path d="M421.051 56.0002L424.792 51.3965" stroke="#282828" stroke-linecap="round" stroke-linejoin="round"/>
<path d="M410.289 50.2149C414.203 48.7763 418.087 47.3376 421.799 45.4961" stroke="#282828" stroke-linecap="round" stroke-linejoin="round"/>
<path d="M428.617 47.4232C426.258 46.934 423.87 46.3585 421.539 45.668" stroke="#282828" stroke-linecap="round" stroke-linejoin="round"/>
<path d="M421.711 45.7563L427.696 42.8789" stroke="#282828" stroke-linecap="round" stroke-linejoin="round"/>
<path d="M421.652 44.95C422.487 43.347 423.511 41.8497 424.702 40.4902" stroke="#282828" stroke-linecap="round" stroke-linejoin="round"/>
<path d="M197.109 77.4922V90.8718C197.16 90.8692 197.21 90.8552 197.255 90.8308C197.3 90.8065 197.339 90.7725 197.369 90.7311C197.4 90.6898 197.42 90.6423 197.43 90.592C197.44 90.5416 197.438 90.4898 197.425 90.4402" stroke="#282828" stroke-linecap="round" stroke-linejoin="round"/>
<path d="M194.316 97.0865C194.895 94.9059 195.705 92.7935 196.733 90.7852L198.459 96.9714" stroke="#282828" stroke-linecap="round" stroke-linejoin="round"/>
<path d="M197.539 90.209L201.337 94.6688" stroke="#282828" stroke-linecap="round" stroke-linejoin="round"/>
<path d="M205.137 80.8008C205.827 84.8866 206.661 88.9436 207.582 92.9719" stroke="#282828" stroke-linecap="round" stroke-linejoin="round"/>
<path d="M204.473 99.158C205.374 96.9328 206.381 94.7461 207.494 92.5977" stroke="#282828" stroke-linecap="round" stroke-linejoin="round"/>
<path d="M207.352 92.7129L209.078 99.0718" stroke="#282828" stroke-linecap="round" stroke-linejoin="round"/>
<path d="M208.156 92.8848C209.566 93.9779 210.832 95.2443 211.925 96.6541" stroke="#282828" stroke-linecap="round" stroke-linejoin="round"/>
<path d="M222.343 41.0938L209.941 46.8484C209.974 46.8852 210.014 46.9146 210.058 46.9347C210.103 46.9549 210.151 46.9653 210.2 46.9653C210.249 46.9653 210.298 46.9549 210.342 46.9347C210.387 46.9146 210.427 46.8852 210.459 46.8484" stroke="#282828" stroke-linecap="round" stroke-linejoin="round"/>
<path d="M203.121 46.8492C205.38 46.4518 207.676 46.2974 209.969 46.3888L204.991 50.6185" stroke="#282828" stroke-linecap="round" stroke-linejoin="round"/>
<path d="M210.831 46.9922L208.328 52.3728" stroke="#282828" stroke-linecap="round" stroke-linejoin="round"/>
<path d="M222.688 50.0137C219.235 52.3731 215.849 54.8284 212.531 57.3797" stroke="#282828" stroke-linecap="round" stroke-linejoin="round"/>
<path d="M205.539 57.1504C207.956 57.1504 210.402 57.1504 212.818 57.1504" stroke="#282828" stroke-linecap="round" stroke-linejoin="round"/>
<path d="M212.817 57.0918L207.551 61.2352" stroke="#282828" stroke-linecap="round" stroke-linejoin="round"/>
<path d="M212.819 57.8691C212.412 59.6292 211.783 61.3307 210.949 62.9331" stroke="#282828" stroke-linecap="round" stroke-linejoin="round"/>
<path d="M121.664 110.15C124.816 114.628 128.874 118.393 133.576 121.199" stroke="#282828" stroke-linecap="round" stroke-linejoin="round"/>
<path d="M133.316 121.344C133.316 121.344 133.316 121.344 133.316 121.516C133.863 123.329 134.381 125.171 134.812 127.041" stroke="#282828" stroke-linecap="round" stroke-linejoin="round"/>
<path d="M133.691 121.025C135.29 121.735 136.759 122.708 138.036 123.903" stroke="#282828" stroke-linecap="round" stroke-linejoin="round"/>
<path d="M133.52 120.682H138.986C139.245 120.682 139.591 120.682 139.677 120.998" stroke="#282828" stroke-linecap="round" stroke-linejoin="round"/>
<path d="M130.152 108.395C134.26 110.814 138.202 113.506 141.949 116.452C142.162 116.611 142.355 116.795 142.525 116.999C142.716 117.345 142.833 117.727 142.87 118.121L143.503 122.264" stroke="#282828" stroke-linecap="round" stroke-linejoin="round"/>
<path d="M143.301 117.113C144.57 118.237 145.906 119.284 147.3 120.249" stroke="#282828" stroke-linecap="round" stroke-linejoin="round"/>
<path d="M143.129 116.479C144.671 116.364 146.219 116.364 147.761 116.479" stroke="#282828" stroke-linecap="round" stroke-linejoin="round"/>
<path d="M453.535 36.7216C458.998 36.3462 464.321 34.8267 469.159 32.2617" stroke="#282828" stroke-linecap="round" stroke-linejoin="round"/>
<path d="M469.215 32.6055C469.359 32.6055 469.359 32.6055 469.445 32.6055C471.287 33.0659 473.128 33.6125 474.941 34.2168" stroke="#282828" stroke-linecap="round" stroke-linejoin="round"/>
<path d="M469.129 32.088C470.556 31.1009 472.129 30.3437 473.791 29.8438" stroke="#282828" stroke-linecap="round" stroke-linejoin="round"/>
<path d="M468.727 32.0898L471.605 27.4573C471.748 27.2271 471.979 26.9682 472.238 27.0257" stroke="#282828" stroke-linecap="round" stroke-linejoin="round"/>
<path d="M456.469 28.548C460.69 26.3624 465.044 24.4405 469.503 22.7933C469.739 22.6828 469.992 22.6146 470.251 22.5919C470.653 22.5882 471.049 22.6873 471.402 22.8796L475.258 24.491" stroke="#282828" stroke-linecap="round" stroke-linejoin="round"/>
<path d="M470.77 21.8732C472.384 21.3543 473.969 20.7492 475.518 20.0605" stroke="#282828" stroke-linecap="round" stroke-linejoin="round"/>
<path d="M470.137 21.673C470.863 20.3085 471.69 19.0004 472.612 17.7598" stroke="#282828" stroke-linecap="round" stroke-linejoin="round"/>
<path d="M167.559 141.801C172.524 143.588 177.761 144.503 183.039 144.505" stroke="#282828" stroke-linecap="round" stroke-linejoin="round"/>
<path d="M182.316 144.363C183.723 142.816 185.211 141.347 186.775 139.96C186.858 139.873 186.972 139.821 187.092 139.816C187.092 139.816 187.265 139.989 187.092 140.047" stroke="#282828" stroke-linecap="round" stroke-linejoin="round"/>
<path d="M182.316 144.419C184.667 144.339 186.986 143.842 189.164 142.951" stroke="#282828" stroke-linecap="round" stroke-linejoin="round"/>
<path d="M182.488 144.678C184.333 145.959 186.434 146.823 188.646 147.21" stroke="#282828" stroke-linecap="round" stroke-linejoin="round"/>
<path d="M173.516 135.155C178.38 135.333 183.24 134.711 187.903 133.312C188.075 133.312 188.305 133.312 188.421 133.312C188.536 133.312 188.162 133.63 188.162 133.457" stroke="#282828" stroke-linecap="round" stroke-linejoin="round"/>
<path d="M187.871 133.17C189.324 131.842 190.707 130.439 192.015 128.969C192.015 129.17 191.871 129.4 191.698 129.314" stroke="#282828" stroke-linecap="round" stroke-linejoin="round"/>
<path d="M187.871 133.858C189.282 133.808 190.666 133.455 191.928 132.822" stroke="#282828" stroke-linecap="round" stroke-linejoin="round"/>
<path d="M186.922 134.203C188.679 135.306 190.633 136.058 192.676 136.419" stroke="#282828" stroke-linecap="round" stroke-linejoin="round"/>
<path d="M265.125 62.4435C264.056 57.2875 262.109 52.3533 259.371 47.8555" stroke="#282828" stroke-linecap="round" stroke-linejoin="round"/>
<path d="M259.573 48.5748C257.522 48.1723 255.495 47.6535 253.502 47.0211C253.389 46.9993 253.287 46.9381 253.215 46.8485C253.215 46.8485 253.215 46.5895 253.387 46.647" stroke="#282828" stroke-linecap="round" stroke-linejoin="round"/>
<path d="M259.633 48.546C258.347 46.576 256.72 44.8513 254.828 43.4531" stroke="#282828" stroke-linecap="round" stroke-linejoin="round"/>
<path d="M259.806 48.259C259.926 46.0143 259.573 43.7694 258.77 41.6699" stroke="#282828" stroke-linecap="round" stroke-linejoin="round"/>
<path d="M256.266 60.8901C253.944 56.6923 250.928 52.9176 247.346 49.726C247.346 49.726 247.059 49.4095 247.145 49.2369C247.231 49.0643 247.548 49.2369 247.375 49.2369" stroke="#282828" stroke-linecap="round" stroke-linejoin="round"/>
<path d="M247.028 49.7267C245.158 49.18 243.23 48.7196 241.273 48.3456C241.3 48.3098 241.335 48.2808 241.375 48.2609C241.415 48.2409 241.459 48.2305 241.503 48.2305C241.548 48.2305 241.592 48.2409 241.632 48.2609C241.672 48.2808 241.707 48.3098 241.734 48.3456" stroke="#282828" stroke-linecap="round" stroke-linejoin="round"/>
<path d="M247.717 49.2367C246.967 48.0897 245.987 47.1102 244.84 46.3594" stroke="#282828" stroke-linecap="round" stroke-linejoin="round"/>
<path d="M248.552 49.957C248.59 47.9025 248.228 45.8602 247.488 43.9434" stroke="#282828" stroke-linecap="round" stroke-linejoin="round"/>
<path d="M264.121 130.693C269.097 132.425 274.331 133.301 279.601 133.283" stroke="#282828" stroke-linecap="round" stroke-linejoin="round"/>
<path d="M278.996 133.169C280.406 131.615 281.874 130.148 283.456 128.738C283.55 128.712 283.65 128.712 283.744 128.738C283.744 128.738 283.945 128.939 283.744 128.997" stroke="#282828" stroke-linecap="round" stroke-linejoin="round"/>
<path d="M278.996 133.17C281.343 133.082 283.655 132.566 285.816 131.645" stroke="#282828" stroke-linecap="round" stroke-linejoin="round"/>
<path d="M278.996 133.398C280.853 134.671 282.964 135.525 285.183 135.902" stroke="#282828" stroke-linecap="round" stroke-linejoin="round"/>
<path d="M270.02 123.905C274.889 124.058 279.749 123.407 284.406 121.977C284.579 121.977 284.809 121.977 284.924 121.977C285.039 121.977 284.665 122.294 284.694 122.121" stroke="#282828" stroke-linecap="round" stroke-linejoin="round"/>
<path d="M284.375 121.66C285.818 120.332 287.192 118.929 288.49 117.459C288.501 117.503 288.501 117.549 288.489 117.593C288.478 117.636 288.455 117.676 288.423 117.708C288.391 117.74 288.351 117.763 288.307 117.775C288.263 117.787 288.217 117.787 288.173 117.775" stroke="#282828" stroke-linecap="round" stroke-linejoin="round"/>
<path d="M284.406 122.524C285.809 122.459 287.183 122.096 288.435 121.459" stroke="#282828" stroke-linecap="round" stroke-linejoin="round"/>
<path d="M283.371 122.867C285.125 123.97 287.081 124.714 289.126 125.054" stroke="#282828" stroke-linecap="round" stroke-linejoin="round"/>
<path d="M255.691 107.271C260.074 104.345 263.911 100.674 267.027 96.4238" stroke="#282828" stroke-linecap="round" stroke-linejoin="round"/>
<path d="M266.423 96.8851C266 94.8324 265.692 92.7574 265.502 90.67C265.473 90.5666 265.473 90.457 265.502 90.3535C265.502 90.3535 265.79 90.3535 265.761 90.3535" stroke="#282828" stroke-linecap="round" stroke-linejoin="round"/>
<path d="M266.449 96.9149C267.788 94.978 268.763 92.8135 269.326 90.5273" stroke="#282828" stroke-linecap="round" stroke-linejoin="round"/>
<path d="M266.797 96.9717C268.938 96.2266 270.899 95.0405 272.552 93.4902" stroke="#282828" stroke-linecap="round" stroke-linejoin="round"/>
<path d="M253.762 98.6408C256.781 94.8759 259.136 90.6236 260.725 86.0669C260.725 85.8943 260.898 85.6641 261.099 85.6641C261.301 85.6641 261.099 86.0669 261.099 85.9518" stroke="#282828" stroke-linecap="round" stroke-linejoin="round"/>
<path d="M260.609 85.7215C260.379 83.7649 260.062 81.8083 259.66 79.9668C259.701 79.9926 259.736 80.0286 259.759 80.0714C259.783 80.1142 259.796 80.1624 259.796 80.2114C259.796 80.2604 259.783 80.3086 259.759 80.3514C259.736 80.3942 259.701 80.4302 259.66 80.456" stroke="#282828" stroke-linecap="round" stroke-linejoin="round"/>
<path d="M261.242 86.1813C262.042 85.0176 262.573 83.6909 262.796 82.2969" stroke="#282828" stroke-linecap="round" stroke-linejoin="round"/>
<path d="M260.926 87.1317C262.829 86.3811 264.569 85.267 266.047 83.8516" stroke="#282828" stroke-linecap="round" stroke-linejoin="round"/>
</g>
<defs>
<clipPath id="clip0_3_24848">
<rect width="533" height="148" fill="white" transform="translate(0.21875 0.330078)"/>
</clipPath>
</defs>
</svg>
