<svg width="79" height="105" viewBox="0 0 79 105" fill="none" xmlns="http://www.w3.org/2000/svg">
<path d="M42.1706 0.818359C36.7093 9.31828 30.1464 19.1819 24.7735 27.7111L30.6648 27.9934C26.7929 36.8625 22.1588 45.3804 16.8144 53.452L24.5025 52.7877C17.6395 60.4659 11.8344 69.0237 7.24103 78.2346L15.536 77.2235C12.5903 85.9291 3.65911 93.3476 1.34972 102.141C1.2706 102.341 1.23444 102.555 1.24357 102.77C1.2527 102.985 1.30693 103.195 1.40274 103.387C2.38659 104.922 47.2194 104.322 67.9744 103.693C70.6197 103.617 75.9335 104.105 78.2076 103.182C75.2149 94.4938 72.9055 86.8403 68.5224 78.4344C68.275 77.9584 66.1658 75.3191 66.6017 74.9075C67.3793 74.1786 75.0557 76.0833 75.1854 75.0486C75.315 74.0141 73.1824 71.6687 72.4813 70.7222C67.6503 64.174 59.3674 57.7902 58.7839 50.4835C59.9622 50.0955 66.6253 51.5416 66.8786 50.6716C67.0202 50.1777 65.7651 49.0022 65.406 48.5672C61.726 44.1648 58.2903 39.5652 55.1137 34.7885C53.3464 32.1493 51.6731 29.316 52.1974 26.4414L59.7856 26.9589L46.3181 5.4504C45.5699 4.31591 42.1706 0.818359 42.1706 0.818359Z" fill="#F5FCDE" stroke="#231F20" stroke-linecap="round" stroke-linejoin="round"/>
</svg>
