<svg width="219" height="199" viewBox="0 0 219 199" fill="none" xmlns="http://www.w3.org/2000/svg">
<g clip-path="url(#clip0_2_16024)">
<g clip-path="url(#clip1_2_16024)">
<path d="M25.6143 81.3047C22.3919 86.3005 18.5195 92.0975 15.3493 97.1111L18.8254 97.2764C16.5408 102.49 13.8065 107.496 10.6531 112.24L15.1894 111.849C11.14 116.362 7.7147 121.392 5.0044 126.806L9.89874 126.212C8.16071 131.328 2.89092 135.688 1.52829 140.856C1.48161 140.974 1.46027 141.1 1.46566 141.226C1.47105 141.352 1.50304 141.476 1.55957 141.589C2.14009 142.491 28.5933 142.139 40.8397 141.769C42.4004 141.724 45.5359 142.011 46.8777 141.469C45.1119 136.362 43.7492 131.864 41.1629 126.923C41.017 126.643 39.7725 125.092 40.0297 124.85C40.4886 124.421 45.0179 125.541 45.0944 124.933C45.1709 124.325 43.9126 122.946 43.4989 122.391C40.6485 118.541 35.7611 114.789 35.4169 110.495C36.1121 110.267 40.0436 111.117 40.1931 110.606C40.2766 110.315 39.5362 109.624 39.3241 109.369C37.1529 106.781 35.1257 104.078 33.2513 101.271C32.2085 99.7196 31.2212 98.0539 31.5306 96.3645L36.0079 96.6688L28.0615 84.0272C27.62 83.3603 25.6143 81.3047 25.6143 81.3047Z" fill="#F5FCDE" stroke="#231F20" stroke-linecap="round" stroke-linejoin="round"/>
<path d="M156.339 0.470703C153.242 5.38228 149.525 11.0879 146.48 16.0221L149.823 16.1866C147.637 21.3146 145.01 26.2479 141.972 30.9327L146.331 30.547C142.43 35.0171 139.14 39.975 136.546 45.2931L141.249 44.726C139.586 49.7566 134.516 54.0501 133.219 59.1317C133.176 59.2487 133.156 59.3734 133.161 59.4982C133.167 59.623 133.198 59.7454 133.254 59.8577C133.828 60.7424 159.212 60.3965 170.958 60.0336C172.455 59.9881 175.472 60.2717 176.756 59.7329C175.036 54.7136 173.763 50.2841 171.268 45.4236C171.13 45.1457 169.937 43.62 170.183 43.3818C170.619 42.9621 174.973 44.0794 175.047 43.4669C175.122 42.8543 173.9 41.5102 173.51 40.9601C170.786 37.1204 166.072 33.4566 165.739 29.2029C166.41 28.9817 170.183 29.8154 170.327 29.3107C170.408 29.027 169.697 28.3465 169.489 28.0969C167.402 25.5463 165.455 22.8863 163.657 20.1284C162.665 18.5971 161.707 16.9636 162.011 15.3019L166.307 15.5968L158.673 3.15903C157.947 2.21999 157.167 1.32243 156.339 0.470703Z" fill="#282828"/>
<path d="M168.262 130.352C164.907 135.709 160.882 141.934 157.582 147.317L161.204 147.496C158.835 153.091 155.99 158.472 152.698 163.583L157.42 163.162C153.194 168.039 149.631 173.447 146.821 179.248L151.915 178.63C150.113 184.118 144.621 188.802 143.217 194.346C143.169 194.473 143.147 194.609 143.153 194.745C143.16 194.881 143.194 195.015 143.254 195.138C143.875 196.103 171.376 195.725 184.1 195.329C185.722 195.28 188.99 195.589 190.382 195.001C188.518 189.525 187.138 184.693 184.436 179.391C184.287 179.088 182.994 177.424 183.261 177.164C183.733 176.706 188.449 177.924 188.53 177.257C188.611 176.588 187.287 175.122 186.865 174.522C183.914 170.333 178.806 166.336 178.446 161.696C179.173 161.455 183.261 162.364 183.416 161.814C183.504 161.504 182.733 160.762 182.51 160.489C180.248 157.706 178.139 154.805 176.19 151.796C175.116 150.126 174.079 148.344 174.407 146.531L179.061 146.853L170.792 133.284C170.005 132.26 169.16 131.281 168.262 130.352Z" fill="#282828"/>
<path d="M64.1328 196.653C81.5672 185.687 136.311 170.334 215.812 196.653H64.1328Z" fill="#304439"/>
<path d="M63.2227 197.56C80.9702 185.908 136.698 169.595 217.626 197.56" stroke="#282828"/>
<path d="M204.126 65.8661C189.051 54.8998 141.713 39.5471 72.9688 65.8661H204.126Z" fill="#304439"/>
<path d="M204.912 66.7743C189.565 55.1227 141.378 38.8104 71.3984 66.7743" stroke="#282828"/>
<path d="M119.829 144.884C108.036 133.918 71.0025 118.564 17.2227 144.884H119.829Z" fill="#304439"/>
<path d="M120.446 145.792C108.44 134.14 70.7421 117.828 15.9961 145.792" stroke="#282828"/>
</g>
</g>
<defs>
<clipPath id="clip0_2_16024">
<rect width="218" height="198" fill="white" transform="translate(0.546875 0.470703)"/>
</clipPath>
<clipPath id="clip1_2_16024">
<rect width="217.982" height="198" fill="white" transform="translate(0.554688 0.470703)"/>
</clipPath>
</defs>
</svg>
