<svg width="151" height="108" viewBox="0 0 151 108" fill="none" xmlns="http://www.w3.org/2000/svg">
<g clip-path="url(#clip0_2_16013)">
<g clip-path="url(#clip1_2_16013)">
<path d="M81.9168 0.822266C85.3564 6.26166 89.4849 12.5804 92.8675 18.0449L89.1538 18.2271C91.5827 23.9061 94.4999 29.3696 97.8747 34.5578L93.0331 34.1307C97.3654 39.0812 101.02 44.5718 103.901 50.4614L98.6768 49.8333C100.525 55.4047 106.156 60.1594 107.595 65.7873C107.645 65.9168 107.667 66.0549 107.661 66.1931C107.654 66.3313 107.619 66.4668 107.557 66.5913C106.92 67.5711 78.7252 67.188 65.6787 66.786C64.016 66.7357 60.6652 67.0497 59.2383 66.453C61.1494 60.8943 62.5636 55.9888 65.3347 50.6059C65.4876 50.2981 66.8126 48.6085 66.5387 48.3447C66.0546 47.8799 61.2194 49.1173 61.1366 48.439C61.0538 47.7606 62.4107 46.272 62.8439 45.6628C65.8698 41.4105 71.1062 37.3529 71.4757 32.6421C70.7304 32.3971 66.5387 33.3204 66.3795 32.7615C66.2903 32.4474 67.0802 31.6936 67.3095 31.4173C69.6283 28.5926 71.791 25.6467 73.7882 22.5924C74.8902 20.8966 75.9541 19.0876 75.6165 17.2472L70.845 17.5739L79.3238 3.79949C80.1306 2.75954 80.996 1.76552 81.9168 0.822266Z" fill="#282828"/>
<path d="M38.8047 71.8948C51.4156 62.4647 91.0142 49.2627 148.52 71.8948H38.8047Z" fill="#304439"/>
<path d="M38.1484 72.6758C50.9859 62.6564 91.2954 48.6292 149.835 72.6758" stroke="#282828"/>
<path d="M18.2177 50.8086C20.8809 55.0961 24.0768 60.0767 26.6955 64.3841L23.8203 64.5277C25.7007 69.0041 27.9596 73.3106 30.572 77.4001L26.8238 77.0635C30.1783 80.9654 33.007 85.2938 35.2376 89.9362L31.1934 89.4411C32.6236 93.8327 36.9835 97.5801 38.0981 102.016C38.1363 102.119 38.1534 102.227 38.1483 102.337C38.1433 102.445 38.1161 102.552 38.0684 102.65C37.5753 103.422 15.7468 103.121 5.64629 102.804C4.35907 102.764 1.7649 103.011 0.660156 102.541C2.13972 98.1596 3.2346 94.2928 5.37997 90.0495C5.49834 89.8074 6.52416 88.4757 6.31209 88.2672C5.93727 87.9009 2.19397 88.8764 2.12986 88.3414C2.06575 87.8072 3.11624 86.6333 3.4516 86.1537C5.79424 82.8016 9.84825 79.6033 10.1343 75.8901C9.55725 75.697 6.31209 76.4248 6.1888 75.9842C6.11975 75.7366 6.73131 75.1425 6.90885 74.9247C8.70406 72.6981 10.3784 70.3761 11.9246 67.9686C12.7778 66.6319 13.6014 65.2059 13.34 63.7554L9.64605 64.0128L16.2104 53.1553C16.8347 52.3356 17.5048 51.5521 18.2177 50.8086Z" fill="#282828"/>
<path d="M6.65625 106.26C16.7979 96.8301 48.6428 83.6277 94.8889 106.26H6.65625Z" fill="#304439"/>
<path d="M6.12891 107.041C16.4528 97.0215 48.8696 82.9944 95.9464 107.041" stroke="#282828"/>
</g>
</g>
<defs>
<clipPath id="clip0_2_16013">
<rect width="150" height="107" fill="white" transform="translate(0.636719 0.822266)"/>
</clipPath>
<clipPath id="clip1_2_16013">
<rect width="149.956" height="107" fill="white" transform="translate(0.660156 0.822266)"/>
</clipPath>
</defs>
</svg>
