<svg width="750" height="750" viewBox="0 0 750 750" fill="none" xmlns="http://www.w3.org/2000/svg">
<path d="M605.3 534.95H550.825C530.2 534.95 523.825 518.55 486.775 481C454.5 449.75 440.225 445.55 432.3 445.55C421.175 445.55 418 448.725 418 464.075V513.275C418 526.525 413.775 534.45 378.85 534.45C308.4 529.725 247.85 491.3 212.7 435.3L212.175 434.425C171.375 383.75 141.3 322.675 126.425 255.875L125.875 252.95C125.875 245.025 129.05 237.6 144.4 237.6H198.875C212.625 237.6 217.925 243.95 223.25 258.75C250.2 336.55 295.2 404.8 313.725 404.8C320.6 404.8 323.775 401.625 323.775 384.175V303.7C321.65 266.65 302.075 263.5 302.075 250.275C302.3 243.2 308.1 237.55 315.2 237.55C315.425 237.55 315.625 237.55 315.85 237.575H315.825H401.55C413.2 237.575 417.425 243.925 417.425 257.675V366.175C417.425 377.8 422.725 382.05 425.9 382.05C432.775 382.05 438.625 377.8 451.3 365.125C477.65 332.95 500.175 296.15 517.35 256.475L518.5 253.475C522.125 244.4 530.825 238.1 541 238.1C541.475 238.1 541.925 238.125 542.4 238.15H542.325H596.8C613.2 238.15 616.925 246.575 613.2 258.25C591.35 306.375 566.8 347.725 538.35 386.025L539.65 384.175C533.85 393.7 531.725 397.925 539.65 408.55C545.45 416.475 564.525 432.875 577.225 447.7C595.6 465.875 611 487.025 622.625 510.375L623.25 511.75C628.55 527.05 620.6 535 605.25 535L605.3 534.95ZM489.975 0H259.8C49.725 0 0 49.725 0 259.8V489.975C0 700.05 49.725 749.775 259.8 749.775H489.975C700.05 749.775 749.775 700.05 749.775 489.975V259.8C749.775 49.725 699.5 0 489.975 0Z" fill="#F5FCDE"/>
</svg>
