<svg width="492" height="492" viewBox="0 0 492 492" fill="none" xmlns="http://www.w3.org/2000/svg">
<path fill-rule="evenodd" clip-rule="evenodd" d="M246 0C110.138 0 0 110.138 0 246C0 292.484 12.9162 336.021 35.364 373.14L13.4269 447.725C7.87766 466.593 25.4079 484.123 44.2739 478.573L118.86 456.635C155.978 479.085 199.516 492 246 492C381.861 492 492 381.861 492 246C492 110.138 381.861 0 246 0ZM190.36 301.662C240.113 351.416 287.623 357.974 304.398 358.592C329.913 359.531 354.757 340.046 364.442 317.443C366.816 311.908 366.223 305.249 362.247 300.154C348.784 282.912 330.558 270.558 312.75 258.261C305.055 252.937 294.474 254.585 288.806 262.125L274.029 284.637C272.388 287.134 269.129 287.992 266.536 286.509C256.536 280.792 241.956 271.043 231.466 260.553C220.989 250.076 211.833 236.155 206.694 226.8C205.344 224.34 206.091 221.302 208.342 219.629L231.06 202.758C237.835 196.893 239.026 186.932 234.039 179.636C222.999 163.484 210.138 142.956 191.523 129.378C186.439 125.669 180.008 125.253 174.698 127.528C152.07 137.226 132.489 162.062 133.43 187.623C134.047 204.399 140.607 251.909 190.36 301.662Z" fill="#F5FCDE"/>
</svg>
